<?xml version="1.0" encoding="UTF-8"?>
<!DOCTYPE svg PUBLIC "-//W3C//DTD SVG 1.1//EN" "http://www.w3.org/Graphics/SVG/1.1/DTD/svg11.dtd">
<!-- Creator: CorelDRAW -->
<svg xmlns="http://www.w3.org/2000/svg" xml:space="preserve" width="32px" height="32px" style="shape-rendering:geometricPrecision; text-rendering:geometricPrecision; image-rendering:optimizeQuality; fill-rule:evenodd; clip-rule:evenodd"
viewBox="0 0 32 32"
 xmlns:xlink="http://www.w3.org/1999/xlink">
 <defs>
  <style type="text/css">
   <![CDATA[
    .str0 {stroke:#1F1A17;stroke-width:0.15}
    .fil52 {fill:none}
    .fil58 {fill:#00923F}
    .fil57 {fill:#00A539}
    .fil1 {fill:#AAA9A9}
    .fil55 {fill:#DA251D}
    .fil56 {fill:#FFF500}
    .fil59 {fill:#B6FF01}
    .fil3 {fill:#C2C1C1}
    .fil5 {fill:#C3C2C2}
    .fil7 {fill:#C4C4C3}
    .fil9 {fill:#C5C5C4}
    .fil11 {fill:#C6C6C5}
    .fil13 {fill:#C7C7C6}
    .fil15 {fill:#C8C8C7}
    .fil17 {fill:#C9C9C8}
    .fil19 {fill:#CACAC9}
    .fil21 {fill:#CCCBCA}
    .fil23 {fill:#CDCCCC}
    .fil25 {fill:#CECDCD}
    .fil27 {fill:#CFCECE}
    .fil29 {fill:#D0CFCF}
    .fil31 {fill:#D1D0D0}
    .fil33 {fill:#D2D1D1}
    .fil35 {fill:#D3D2D2}
    .fil37 {fill:#D4D3D3}
    .fil39 {fill:#D5D4D4}
    .fil41 {fill:#D6D6D5}
    .fil43 {fill:#D8D7D7}
    .fil45 {fill:#D9D8D8}
    .fil47 {fill:#DADAD9}
    .fil49 {fill:#DBDBDB}
    .fil51 {fill:#DDDCDC}
    .fil50 {fill:#DFDFDF}
    .fil48 {fill:#E1E0E0}
    .fil46 {fill:#E2E1E1}
    .fil44 {fill:#E3E3E2}
    .fil42 {fill:#E4E4E4}
    .fil40 {fill:#E6E5E5}
    .fil38 {fill:#E7E6E6}
    .fil36 {fill:#E8E8E7}
    .fil34 {fill:#E9E9E9}
    .fil32 {fill:#EBEAEA}
    .fil30 {fill:#ECECEB}
    .fil28 {fill:#EDEDED}
    .fil26 {fill:#EFEEEE}
    .fil24 {fill:#F0F0F0}
    .fil22 {fill:#F1F1F1}
    .fil20 {fill:#F2F2F2}
    .fil18 {fill:#F4F4F3}
    .fil16 {fill:whitesmoke}
    .fil14 {fill:#F6F6F6}
    .fil12 {fill:#F8F8F7}
    .fil10 {fill:#F9F9F9}
    .fil8 {fill:#FAFAFA}
    .fil6 {fill:#FBFBFB}
    .fil4 {fill:#FDFDFD}
    .fil2 {fill:white}
    .fil54 {fill:url(#id2)}
    .fil0 {fill:url(#id3)}
    .fil53 {fill:url(#id4)}
   ]]>
  </style>
     <clipPath id="id0">
      <path d="M25.0156 1.56575c-1.13228,-0.00019685 -2.05079,0.91811 -2.05079,2.05039 -0.00019685,1.13228 0.91811,2.05059 2.05039,2.05079 1.13228,0 2.05059,-0.91811 2.05079,-2.05039 0,-1.13228 -0.91811,-2.05079 -2.05039,-2.05079zm0 0.644291c-0.776575,-0.00019685 -1.4065,0.629528 -1.4065,1.4061 -0.00019685,0.776575 0.629528,1.4063 1.4061,1.4065 0.776575,0 1.4063,-0.629724 1.4065,-1.4063 0,-0.776575 -0.629528,-1.4063 -1.4061,-1.4063z"/>
     </clipPath>
     <clipPath id="id1">
      <path d="M7.00512 1.55965c-1.13228,-0.00019685 -2.05079,0.91811 -2.05079,2.05039 -0.00019685,1.13228 0.91811,2.05059 2.05039,2.05079 1.13228,0.00019685 2.05059,-0.91811 2.05079,-2.05039 0,-1.13228 -0.91811,-2.05059 -2.05039,-2.05079zm0 0.644291c-0.776575,0 -1.4065,0.629528 -1.4065,1.4061 -0.00019685,0.776575 0.629528,1.4065 1.4061,1.4065 0.776575,0.00019685 1.4063,-0.629528 1.4065,-1.4061 0,-0.776575 -0.629528,-1.4063 -1.4061,-1.4065z"/>
     </clipPath>
  <linearGradient id="id2" gradientUnits="userSpaceOnUse" x1="7.43366" y1="5.5311" x2="6.61437" y2="5.5311">
   <stop offset="0" style="stop-color:#C2C1C1"/>
   <stop offset="1" style="stop-color:white"/>
  </linearGradient>
  <linearGradient id="id3" gradientUnits="userSpaceOnUse" x1="32.014" y1="15.4939" x2="0.0124016" y2="15.4939">
   <stop offset="0" style="stop-color:#DEDEDD"/>
   <stop offset="0.470588" style="stop-color:white"/>
   <stop offset="1" style="stop-color:#E5E5E5"/>
  </linearGradient>
  <linearGradient id="id4" gradientUnits="userSpaceOnUse" xlink:href="#id2" x1="25.4441" y1="5.5372" x2="24.6248" y2="5.5372">
  </linearGradient>
 </defs>
 <g id="图层_x0020_1">
  <metadata id="CorelCorpID_0Corel-Layer"/>
  <g id="_74966208">
   <path id="_74967024" class="fil0 str0" d="M32.014 6.55098l-32 -0.00334646 -0.00177165 17.8892 32 0.00334646 0.00177165 -17.8892zm-2.76437 2.06988l-26.3888 -0.00275591 -0.00137795 13.7071 26.3888 0.00275591 0.00137795 -13.7071z"/>
   <rect id="_74966952" class="fil1 str0" transform="matrix(-0.0863805 -9.08645E-006 -4.50582E-005 0.428346 32.0138 8.62394)" width="32" height="32"/>
   <rect id="_74966880" class="fil1 str0" transform="matrix(-0.0887858 -9.33946E-006 -4.50582E-005 0.428346 2.86085 8.62402)" width="32" height="32"/>
   <g>
    <g style="clip-path:url(#id0)">
     <polygon id="_74966808" class="fil2" points="25.0152,3.61634 22.1055,3.52283 22.1053,3.70925 "/>
     <polygon id="_749668081" class="fil3" points="25.0152,3.61634 27.9248,3.70984 27.925,3.52343 "/>
     <polygon id="_7496680812" class="fil4" points="25.0152,3.61634 22.1053,3.70925 22.1173,3.89547 "/>
     <polygon id="_74966808123" class="fil5" points="25.0152,3.61634 27.925,3.52343 27.913,3.3372 "/>
     <polygon id="_749668081234" class="fil6" points="25.0152,3.61634 22.1173,3.89547 22.1411,4.08071 "/>
     <polygon id="_7496680812345" class="fil7" points="25.0152,3.61634 27.913,3.3372 27.8892,3.15197 "/>
     <polygon id="_74966808123456" class="fil8" points="25.0152,3.61634 22.1411,4.08071 22.1768,4.26378 "/>
     <polygon id="_749668081234567" class="fil9" points="25.0152,3.61634 27.8892,3.15197 27.8535,2.9689 "/>
     <polygon id="_7496680812345678" class="fil10" points="25.0152,3.61634 22.1768,4.26378 22.2242,4.44429 "/>
     <polygon id="_74966808123456789" class="fil11" points="25.0152,3.61634 27.8535,2.9689 27.8061,2.78839 "/>
     <polygon id="_7496680812345678910" class="fil12" points="25.0152,3.61634 22.2242,4.44429 22.2829,4.62146 "/>
     <polygon id="_749668081234567891011" class="fil13" points="25.0152,3.61634 27.8061,2.78839 27.7474,2.61122 "/>
     <polygon id="_74966808123456789101112" class="fil14" points="25.0152,3.61634 22.2829,4.62146 22.353,4.79449 "/>
     <polygon id="_7496680812345678910111213" class="fil15" points="25.0152,3.61634 27.7474,2.61122 27.6774,2.43819 "/>
     <polygon id="_749668081234567891011121314" class="fil16" points="25.0152,3.61634 22.353,4.79449 22.4339,4.9626 "/>
     <polygon id="_74966808123456789101112131415" class="fil17" points="25.0152,3.61634 27.6774,2.43819 27.5965,2.27008 "/>
     <polygon id="_7496680812345678910111213141516" class="fil18" points="25.0152,3.61634 22.4339,4.9626 22.5256,5.1252 "/>
     <polygon id="_749668081234567891011121314151617" class="fil19" points="25.0152,3.61634 27.5965,2.27008 27.5047,2.10748 "/>
     <polygon id="_74966808123456789101112131415161718" class="fil20" points="25.0152,3.61634 22.5256,5.1252 22.6274,5.28169 "/>
     <polygon id="_7496680812345678910111213141516171819" class="fil21" points="25.0152,3.61634 27.5047,2.10748 27.403,1.95098 "/>
     <polygon id="_749668081234567891011121314151617181920" class="fil22" points="25.0152,3.61634 22.6274,5.28169 22.739,5.4313 "/>
     <polygon id="_74966808123456789101112131415161718192021" class="fil23" points="25.0152,3.61634 27.403,1.95098 27.2913,1.80138 "/>
     <polygon id="_7496680812345678910111213141516171819202122" class="fil24" points="25.0152,3.61634 22.739,5.4313 22.8598,5.57343 "/>
     <polygon id="_749668081234567891011121314151617181920212223" class="fil25" points="25.0152,3.61634 27.2913,1.80138 27.1705,1.65925 "/>
     <polygon id="_74966808123456789101112131415161718192021222324" class="fil26" points="25.0152,3.61634 22.8598,5.57343 22.9898,5.70748 "/>
     <polygon id="_7496680812345678910111213141516171819202122232425" class="fil27" points="25.0152,3.61634 27.1705,1.65925 27.0406,1.5252 "/>
     <polygon id="_749668081234567891011121314151617181920212223242526" class="fil28" points="25.0152,3.61634 22.9898,5.70748 23.1278,5.83287 "/>
     <polygon id="_74966808123456789101112131415161718192021222324252627" class="fil29" points="25.0152,3.61634 27.0406,1.5252 26.9026,1.3998 "/>
     <polygon id="_7496680812345678910111213141516171819202122232425262728" class="fil30" points="25.0152,3.61634 23.1278,5.83287 23.2738,5.94921 "/>
     <polygon id="_749668081234567891011121314151617181920212223242526272829" class="fil31" points="25.0152,3.61634 26.9026,1.3998 26.7565,1.28346 "/>
     <polygon id="_74966808123456789101112131415161718192021222324252627282930" class="fil32" points="25.0152,3.61634 23.2738,5.94921 23.4268,6.0561 "/>
     <polygon id="_7496680812345678910111213141516171819202122232425262728293031" class="fil33" points="25.0152,3.61634 26.7565,1.28346 26.6035,1.17657 "/>
     <polygon id="_749668081234567891011121314151617181920212223242526272829303132" class="fil34" points="25.0152,3.61634 23.4268,6.0561 23.5864,6.15276 "/>
     <polygon id="_74966808123456789101112131415161718192021222324252627282930313233" class="fil35" points="25.0152,3.61634 26.6035,1.17657 26.4439,1.07992 "/>
     <polygon id="_7496680812345678910111213141516171819202122232425262728293031323334" class="fil36" points="25.0152,3.61634 23.5864,6.15276 23.7518,6.23917 "/>
     <polygon id="_749668081234567891011121314151617181920212223242526272829303132333435" class="fil37" points="25.0152,3.61634 26.4439,1.07992 26.2785,0.993504 "/>
     <polygon id="_74966808123456789101112131415161718192021222324252627282930313233343536" class="fil38" points="25.0152,3.61634 23.7518,6.23917 23.9224,6.31476 "/>
     <polygon id="_7496680812345678910111213141516171819202122232425262728293031323334353637" class="fil39" points="25.0152,3.61634 26.2785,0.993504 26.1079,0.917913 "/>
     <polygon id="_749668081234567891011121314151617181920212223242526272829303132333435363738" class="fil40" points="25.0152,3.61634 23.9224,6.31476 24.0976,6.37913 "/>
     <polygon id="_74966808123456789101112131415161718192021222324252627282930313233343536373839" class="fil41" points="25.0152,3.61634 26.1079,0.917913 25.9327,0.853543 "/>
     <polygon id="_7496680812345678910111213141516171819202122232425262728293031323334353637383940" class="fil42" points="25.0152,3.61634 24.0976,6.37913 24.2766,6.43228 "/>
     <polygon id="_749668081234567891011121314151617181920212223242526272829303132333435363738394041" class="fil43" points="25.0152,3.61634 25.9327,0.853543 25.7537,0.800394 "/>
     <polygon id="_74966808123456789101112131415161718192021222324252627282930313233343536373839404142" class="fil44" points="25.0152,3.61634 24.2766,6.43228 24.4585,6.47382 "/>
     <polygon id="_7496680812345678910111213141516171819202122232425262728293031323334353637383940414243" class="fil45" points="25.0152,3.61634 25.7537,0.800394 25.5719,0.758858 "/>
     <polygon id="_749668081234567891011121314151617181920212223242526272829303132333435363738394041424344" class="fil46" points="25.0152,3.61634 24.4585,6.47382 24.6427,6.50354 "/>
     <polygon id="_74966808123456789101112131415161718192021222324252627282930313233343536373839404142434445" class="fil47" points="25.0152,3.61634 25.5719,0.758858 25.3876,0.729134 "/>
     <polygon id="_7496680812345678910111213141516171819202122232425262728293031323334353637383940414243444546" class="fil48" points="25.0152,3.61634 24.6427,6.50354 24.8285,6.52165 "/>
     <polygon id="_749668081234567891011121314151617181920212223242526272829303132333435363738394041424344454647" class="fil49" points="25.0152,3.61634 25.3876,0.729134 25.2018,0.711024 "/>
     <polygon id="_74966808123456789101112131415161718192021222324252627282930313233343536373839404142434445464748" class="fil50" points="25.0152,3.61634 24.8285,6.52165 25.015,6.52756 "/>
     <polygon id="_7496680812345678910111213141516171819202122232425262728293031323334353637383940414243444546474849" class="fil51" points="25.0152,3.61634 25.2018,0.711024 25.0154,0.705118 "/>
     <polygon id="_749668081234567891011121314151617181920212223242526272829303132333435363738394041424344454647484950" class="fil51" points="25.0152,3.61634 25.015,6.52756 25.2014,6.52165 "/>
     <polygon id="_74966808123456789101112131415161718192021222324252627282930313233343536373839404142434445464748495051" class="fil50" points="25.0152,3.61634 25.0154,0.705118 24.8289,0.711024 "/>
     <polygon id="_7496680812345678910111213141516171819202122232425262728293031323334353637383940414243444546474849505152" class="fil49" points="25.0152,3.61634 25.2014,6.52165 25.387,6.50374 "/>
     <polygon id="_749668081234567891011121314151617181920212223242526272829303132333435363738394041424344454647484950515253" class="fil48" points="25.0152,3.61634 24.8289,0.711024 24.6433,0.728937 "/>
     <polygon id="_74966808123456789101112131415161718192021222324252627282930313233343536373839404142434445464748495051525354" class="fil47" points="25.0152,3.61634 25.387,6.50374 25.5713,6.47402 "/>
     <polygon id="_7496680812345678910111213141516171819202122232425262728293031323334353637383940414243444546474849505152535455" class="fil46" points="25.0152,3.61634 24.6433,0.728937 24.4591,0.758661 "/>
     <polygon id="_749668081234567891011121314151617181920212223242526272829303132333435363738394041424344454647484950515253545556" class="fil45" points="25.0152,3.61634 25.5713,6.47402 25.7533,6.43248 "/>
     <polygon id="_74966808123456789101112131415161718192021222324252627282930313233343536373839404142434445464748495051525354555657" class="fil44" points="25.0152,3.61634 24.4591,0.758661 24.277,0.800197 "/>
     <polygon id="_7496680812345678910111213141516171819202122232425262728293031323334353637383940414243444546474849505152535455565758" class="fil43" points="25.0152,3.61634 25.7533,6.43248 25.9321,6.37933 "/>
     <polygon id="_749668081234567891011121314151617181920212223242526272829303132333435363738394041424344454647484950515253545556575859" class="fil42" points="25.0152,3.61634 24.277,0.800197 24.0982,0.853346 "/>
     <polygon id="_74966808123456789101112131415161718192021222324252627282930313233343536373839404142434445464748495051525354555657585960" class="fil41" points="25.0152,3.61634 25.9321,6.37933 26.1073,6.31496 "/>
     <polygon id="_7496680812345678910111213141516171819202122232425262728293031323334353637383940414243444546474849505152535455565758596061" class="fil40" points="25.0152,3.61634 24.0982,0.853346 23.923,0.917717 "/>
     <polygon id="_749668081234567891011121314151617181920212223242526272829303132333435363738394041424344454647484950515253545556575859606162" class="fil39" points="25.0152,3.61634 26.1073,6.31496 26.278,6.23937 "/>
     <polygon id="_74966808123456789101112131415161718192021222324252627282930313233343536373839404142434445464748495051525354555657585960616263" class="fil38" points="25.0152,3.61634 23.923,0.917717 23.7524,0.993307 "/>
     <polygon id="_7496680812345678910111213141516171819202122232425262728293031323334353637383940414243444546474849505152535455565758596061626364" class="fil37" points="25.0152,3.61634 26.278,6.23937 26.4435,6.15315 "/>
     <polygon id="_749668081234567891011121314151617181920212223242526272829303132333435363738394041424344454647484950515253545556575859606162636465" class="fil36" points="25.0152,3.61634 23.7524,0.993307 23.5868,1.07953 "/>
     <polygon id="_74966808123456789101112131415161718192021222324252627282930313233343536373839404142434445464748495051525354555657585960616263646566" class="fil35" points="25.0152,3.61634 26.4435,6.15315 26.6031,6.0563 "/>
     <polygon id="_7496680812345678910111213141516171819202122232425262728293031323334353637383940414243444546474849505152535455565758596061626364656667" class="fil34" points="25.0152,3.61634 23.5868,1.07953 23.4272,1.17638 "/>
     <polygon id="_749668081234567891011121314151617181920212223242526272829303132333435363738394041424344454647484950515253545556575859606162636465666768" class="fil33" points="25.0152,3.61634 26.6031,6.0563 26.7561,5.94961 "/>
     <polygon id="_74966808123456789101112131415161718192021222324252627282930313233343536373839404142434445464748495051525354555657585960616263646566676869" class="fil32" points="25.0152,3.61634 23.4272,1.17638 23.2742,1.28307 "/>
     <polygon id="_7496680812345678910111213141516171819202122232425262728293031323334353637383940414243444546474849505152535455565758596061626364656667686970" class="fil31" points="25.0152,3.61634 26.7561,5.94961 26.902,5.83327 "/>
     <polygon id="_749668081234567891011121314151617181920212223242526272829303132333435363738394041424344454647484950515253545556575859606162636465666768697071" class="fil30" points="25.0152,3.61634 23.2742,1.28307 23.1283,1.39941 "/>
     <polygon id="_74966808123456789101112131415161718192021222324252627282930313233343536373839404142434445464748495051525354555657585960616263646566676869707172" class="fil29" points="25.0152,3.61634 26.902,5.83327 27.0402,5.70787 "/>
     <polygon id="_7496680812345678910111213141516171819202122232425262728293031323334353637383940414243444546474849505152535455565758596061626364656667686970717273" class="fil28" points="25.0152,3.61634 23.1283,1.39941 22.9902,1.5248 "/>
     <polygon id="_749668081234567891011121314151617181920212223242526272829303132333435363738394041424344454647484950515253545556575859606162636465666768697071727374" class="fil27" points="25.0152,3.61634 27.0402,5.70787 27.1701,5.57382 "/>
     <polygon id="_74966808123456789101112131415161718192021222324252627282930313233343536373839404142434445464748495051525354555657585960616263646566676869707172737475" class="fil26" points="25.0152,3.61634 22.9902,1.5248 22.8602,1.65886 "/>
     <polygon id="_7496680812345678910111213141516171819202122232425262728293031323334353637383940414243444546474849505152535455565758596061626364656667686970717273747576" class="fil25" points="25.0152,3.61634 27.1701,5.57382 27.2911,5.43169 "/>
     <polygon id="_749668081234567891011121314151617181920212223242526272829303132333435363738394041424344454647484950515253545556575859606162636465666768697071727374757677" class="fil24" points="25.0152,3.61634 22.8602,1.65886 22.7392,1.80098 "/>
     <polygon id="_74966808123456789101112131415161718192021222324252627282930313233343536373839404142434445464748495051525354555657585960616263646566676869707172737475767778" class="fil23" points="25.0152,3.61634 27.2911,5.43169 27.4028,5.28209 "/>
     <polygon id="_7496680812345678910111213141516171819202122232425262728293031323334353637383940414243444546474849505152535455565758596061626364656667686970717273747576777879" class="fil22" points="25.0152,3.61634 22.7392,1.80098 22.6276,1.95059 "/>
     <polygon id="_749668081234567891011121314151617181920212223242526272829303132333435363738394041424344454647484950515253545556575859606162636465666768697071727374757677787980" class="fil21" points="25.0152,3.61634 27.4028,5.28209 27.5045,5.12579 "/>
     <polygon id="_74966808123456789101112131415161718192021222324252627282930313233343536373839404142434445464748495051525354555657585960616263646566676869707172737475767778798081" class="fil20" points="25.0152,3.61634 22.6276,1.95059 22.5258,2.10689 "/>
     <polygon id="_7496680812345678910111213141516171819202122232425262728293031323334353637383940414243444546474849505152535455565758596061626364656667686970717273747576777879808182" class="fil19" points="25.0152,3.61634 27.5045,5.12579 27.5961,4.96319 "/>
     <polygon id="_749668081234567891011121314151617181920212223242526272829303132333435363738394041424344454647484950515253545556575859606162636465666768697071727374757677787980818283" class="fil18" points="25.0152,3.61634 22.5258,2.10689 22.4343,2.26949 "/>
     <polygon id="_74966808123456789101112131415161718192021222324252627282930313233343536373839404142434445464748495051525354555657585960616263646566676869707172737475767778798081828384" class="fil17" points="25.0152,3.61634 27.5961,4.96319 27.6772,4.79488 "/>
     <polygon id="_7496680812345678910111213141516171819202122232425262728293031323334353637383940414243444546474849505152535455565758596061626364656667686970717273747576777879808182838485" class="fil16" points="25.0152,3.61634 22.4343,2.26949 22.3531,2.4378 "/>
     <polygon id="_749668081234567891011121314151617181920212223242526272829303132333435363738394041424344454647484950515253545556575859606162636465666768697071727374757677787980818283848586" class="fil15" points="25.0152,3.61634 27.6772,4.79488 27.7472,4.62205 "/>
     <polygon id="_74966808123456789101112131415161718192021222324252627282930313233343536373839404142434445464748495051525354555657585960616263646566676869707172737475767778798081828384858687" class="fil14" points="25.0152,3.61634 22.3531,2.4378 22.2831,2.61063 "/>
     <polygon id="_7496680812345678910111213141516171819202122232425262728293031323334353637383940414243444546474849505152535455565758596061626364656667686970717273747576777879808182838485868788" class="fil13" points="25.0152,3.61634 27.7472,4.62205 27.8059,4.44488 "/>
     <polygon id="_749668081234567891011121314151617181920212223242526272829303132333435363738394041424344454647484950515253545556575859606162636465666768697071727374757677787980818283848586878889" class="fil12" points="25.0152,3.61634 22.2831,2.61063 22.2244,2.7878 "/>
     <polygon id="_74966808123456789101112131415161718192021222324252627282930313233343536373839404142434445464748495051525354555657585960616263646566676869707172737475767778798081828384858687888990" class="fil11" points="25.0152,3.61634 27.8059,4.44488 27.8533,4.26437 "/>
     <polygon id="_7496680812345678910111213141516171819202122232425262728293031323334353637383940414243444546474849505152535455565758596061626364656667686970717273747576777879808182838485868788899091" class="fil10" points="25.0152,3.61634 22.2244,2.7878 22.177,2.96831 "/>
     <polygon id="_749668081234567891011121314151617181920212223242526272829303132333435363738394041424344454647484950515253545556575859606162636465666768697071727374757677787980818283848586878889909192" class="fil9" points="25.0152,3.61634 27.8533,4.26437 27.889,4.0811 "/>
     <polygon id="_74966808123456789101112131415161718192021222324252627282930313233343536373839404142434445464748495051525354555657585960616263646566676869707172737475767778798081828384858687888990919293" class="fil8" points="25.0152,3.61634 22.177,2.96831 22.1413,3.15157 "/>
     <polygon id="_7496680812345678910111213141516171819202122232425262728293031323334353637383940414243444546474849505152535455565758596061626364656667686970717273747576777879808182838485868788899091929394" class="fil7" points="25.0152,3.61634 27.889,4.0811 27.913,3.89606 "/>
     <polygon id="_749668081234567891011121314151617181920212223242526272829303132333435363738394041424344454647484950515253545556575859606162636465666768697071727374757677787980818283848586878889909192939495" class="fil6" points="25.0152,3.61634 22.1413,3.15157 22.1173,3.33661 "/>
     <polygon id="_74966808123456789101112131415161718192021222324252627282930313233343536373839404142434445464748495051525354555657585960616263646566676869707172737475767778798081828384858687888990919293949596" class="fil5" points="25.0152,3.61634 27.913,3.89606 27.9248,3.70984 "/>
     <polygon id="_7496680812345678910111213141516171819202122232425262728293031323334353637383940414243444546474849505152535455565758596061626364656667686970717273747576777879808182838485868788899091929394959697" class="fil4" points="25.0152,3.61634 22.1173,3.33661 22.1055,3.52283 "/>
    </g>
    <path id="_749668081234567891011121314151617181920212223242526272829303132333435363738394041424344454647484950515253545556575859606162636465666768697071727374757677787980818283848586878889909192939495969798" class="fil52 str0" d="M25.0156 1.56575c-1.13228,-0.00019685 -2.05079,0.91811 -2.05079,2.05039 -0.00019685,1.13228 0.91811,2.05059 2.05039,2.05079 1.13228,0 2.05059,-0.91811 2.05079,-2.05039 0,-1.13228 -0.91811,-2.05079 -2.05039,-2.05079zm0 0.644291c-0.776575,-0.00019685 -1.4065,0.629528 -1.4065,1.4061 -0.00019685,0.776575 0.629528,1.4063 1.4061,1.4065 0.776575,0 1.4063,-0.629724 1.4065,-1.4063 0,-0.776575 -0.629528,-1.4063 -1.4061,-1.4063z"/>
   </g>
   <polygon class="fil53 str0" points="25.4439,4.52854 24.6252,4.52854 24.625,6.54567 25.4437,6.54567 "/>
   <g>
    <g style="clip-path:url(#id1)">
     <polygon class="fil2" points="7.00492,3.61043 4.09547,3.51693 4.09528,3.70335 "/>
     <polygon id="1" class="fil3" points="7.00492,3.61043 9.91437,3.70394 9.91457,3.51752 "/>
     <polygon id="12" class="fil4" points="7.00492,3.61043 4.09528,3.70335 4.10728,3.88957 "/>
     <polygon id="123" class="fil5" points="7.00492,3.61043 9.91457,3.51752 9.90256,3.3313 "/>
     <polygon id="1234" class="fil6" points="7.00492,3.61043 4.10728,3.88957 4.1311,4.07461 "/>
     <polygon id="12345" class="fil7" points="7.00492,3.61043 9.90256,3.3313 9.87874,3.14626 "/>
     <polygon id="123456" class="fil8" points="7.00492,3.61043 4.1311,4.07461 4.16673,4.25787 "/>
     <polygon id="1234567" class="fil9" points="7.00492,3.61043 9.87874,3.14626 9.84311,2.96299 "/>
     <polygon id="12345678" class="fil10" points="7.00492,3.61043 4.16673,4.25787 4.21417,4.43839 "/>
     <polygon id="123456789" class="fil11" points="7.00492,3.61043 9.84311,2.96299 9.79567,2.78248 "/>
     <polygon id="12345678910" class="fil12" points="7.00492,3.61043 4.21417,4.43839 4.27283,4.61555 "/>
     <polygon id="1234567891011" class="fil13" points="7.00492,3.61043 9.79567,2.78248 9.73701,2.60531 "/>
     <polygon id="123456789101112" class="fil14" points="7.00492,3.61043 4.27283,4.61555 4.34291,4.78839 "/>
     <polygon id="12345678910111213" class="fil15" points="7.00492,3.61043 9.73701,2.60531 9.66693,2.43248 "/>
     <polygon id="1234567891011121314" class="fil16" points="7.00492,3.61043 4.34291,4.78839 4.42382,4.95669 "/>
     <polygon id="123456789101112131415" class="fil17" points="7.00492,3.61043 9.66693,2.43248 9.58602,2.26417 "/>
     <polygon id="12345678910111213141516" class="fil18" points="7.00492,3.61043 4.42382,4.95669 4.51535,5.11929 "/>
     <polygon id="1234567891011121314151617" class="fil19" points="7.00492,3.61043 9.58602,2.26417 9.49449,2.10157 "/>
     <polygon id="123456789101112131415161718" class="fil20" points="7.00492,3.61043 4.51535,5.11929 4.61713,5.27559 "/>
     <polygon id="12345678910111213141516171819" class="fil21" points="7.00492,3.61043 9.49449,2.10157 9.39272,1.94528 "/>
     <polygon id="1234567891011121314151617181920" class="fil22" points="7.00492,3.61043 4.61713,5.27559 4.72874,5.4252 "/>
     <polygon id="123456789101112131415161718192021" class="fil23" points="7.00492,3.61043 9.39272,1.94528 9.2811,1.79567 "/>
     <polygon id="12345678910111213141516171819202122" class="fil24" points="7.00492,3.61043 4.72874,5.4252 4.8498,5.56732 "/>
     <polygon id="1234567891011121314151617181920212223" class="fil25" points="7.00492,3.61043 9.2811,1.79567 9.16004,1.65354 "/>
     <polygon id="123456789101112131415161718192021222324" class="fil26" points="7.00492,3.61043 4.8498,5.56732 4.97953,5.70138 "/>
     <polygon id="12345678910111213141516171819202122232425" class="fil27" points="7.00492,3.61043 9.16004,1.65354 9.03031,1.51949 "/>
     <polygon id="1234567891011121314151617181920212223242526" class="fil28" points="7.00492,3.61043 4.97953,5.70138 5.11772,5.82677 "/>
     <polygon id="123456789101112131415161718192021222324252627" class="fil29" points="7.00492,3.61043 9.03031,1.51949 8.89213,1.39409 "/>
     <polygon id="12345678910111213141516171819202122232425262728" class="fil30" points="7.00492,3.61043 5.11772,5.82677 5.26358,5.94311 "/>
     <polygon id="1234567891011121314151617181920212223242526272829" class="fil31" points="7.00492,3.61043 8.89213,1.39409 8.74626,1.27776 "/>
     <polygon id="123456789101112131415161718192021222324252627282930" class="fil32" points="7.00492,3.61043 5.26358,5.94311 5.41673,6.05 "/>
     <polygon id="12345678910111213141516171819202122232425262728293031" class="fil33" points="7.00492,3.61043 8.74626,1.27776 8.59311,1.17087 "/>
     <polygon id="1234567891011121314151617181920212223242526272829303132" class="fil34" points="7.00492,3.61043 5.41673,6.05 5.57618,6.14665 "/>
     <polygon id="123456789101112131415161718192021222324252627282930313233" class="fil35" points="7.00492,3.61043 8.59311,1.17087 8.43366,1.07421 "/>
     <polygon id="12345678910111213141516171819202122232425262728293031323334" class="fil36" points="7.00492,3.61043 5.57618,6.14665 5.74173,6.23307 "/>
     <polygon id="1234567891011121314151617181920212223242526272829303132333435" class="fil37" points="7.00492,3.61043 8.43366,1.07421 8.26811,0.987795 "/>
     <polygon id="123456789101112131415161718192021222324252627282930313233343536" class="fil38" points="7.00492,3.61043 5.74173,6.23307 5.9124,6.30866 "/>
     <polygon id="12345678910111213141516171819202122232425262728293031323334353637" class="fil39" points="7.00492,3.61043 8.26811,0.987795 8.09744,0.912205 "/>
     <polygon id="1234567891011121314151617181920212223242526272829303132333435363738" class="fil40" points="7.00492,3.61043 5.9124,6.30866 6.0874,6.37303 "/>
     <polygon id="123456789101112131415161718192021222324252627282930313233343536373839" class="fil41" points="7.00492,3.61043 8.09744,0.912205 7.92244,0.847835 "/>
     <polygon id="12345678910111213141516171819202122232425262728293031323334353637383940" class="fil42" points="7.00492,3.61043 6.0874,6.37303 6.26634,6.42618 "/>
     <polygon id="1234567891011121314151617181920212223242526272829303132333435363738394041" class="fil43" points="7.00492,3.61043 7.92244,0.847835 7.7435,0.794685 "/>
     <polygon id="123456789101112131415161718192021222324252627282930313233343536373839404142" class="fil44" points="7.00492,3.61043 6.26634,6.42618 6.44823,6.46772 "/>
     <polygon id="12345678910111213141516171819202122232425262728293031323334353637383940414243" class="fil45" points="7.00492,3.61043 7.7435,0.794685 7.56161,0.75315 "/>
     <polygon id="1234567891011121314151617181920212223242526272829303132333435363738394041424344" class="fil46" points="7.00492,3.61043 6.44823,6.46772 6.63248,6.49764 "/>
     <polygon id="123456789101112131415161718192021222324252627282930313233343536373839404142434445" class="fil47" points="7.00492,3.61043 7.56161,0.75315 7.37736,0.723228 "/>
     <polygon id="12345678910111213141516171819202122232425262728293031323334353637383940414243444546" class="fil48" points="7.00492,3.61043 6.63248,6.49764 6.81831,6.51555 "/>
     <polygon id="1234567891011121314151617181920212223242526272829303132333435363738394041424344454647" class="fil49" points="7.00492,3.61043 7.37736,0.723228 7.19154,0.705315 "/>
     <polygon id="123456789101112131415161718192021222324252627282930313233343536373839404142434445464748" class="fil50" points="7.00492,3.61043 6.81831,6.51555 7.00472,6.52146 "/>
     <polygon id="12345678910111213141516171819202122232425262728293031323334353637383940414243444546474849" class="fil51" points="7.00492,3.61043 7.19154,0.705315 7.00512,0.699409 "/>
     <polygon id="1234567891011121314151617181920212223242526272829303132333435363738394041424344454647484950" class="fil51" points="7.00492,3.61043 7.00472,6.52146 7.19114,6.51555 "/>
     <polygon id="123456789101112131415161718192021222324252627282930313233343536373839404142434445464748495051" class="fil50" points="7.00492,3.61043 7.00512,0.699409 6.8187,0.705315 "/>
     <polygon id="12345678910111213141516171819202122232425262728293031323334353637383940414243444546474849505152" class="fil49" points="7.00492,3.61043 7.19114,6.51555 7.37677,6.49764 "/>
     <polygon id="1234567891011121314151617181920212223242526272829303132333435363738394041424344454647484950515253" class="fil48" points="7.00492,3.61043 6.8187,0.705315 6.63307,0.723228 "/>
     <polygon id="123456789101112131415161718192021222324252627282930313233343536373839404142434445464748495051525354" class="fil47" points="7.00492,3.61043 7.37677,6.49764 7.56102,6.46791 "/>
     <polygon id="12345678910111213141516171819202122232425262728293031323334353637383940414243444546474849505152535455" class="fil46" points="7.00492,3.61043 6.63307,0.723228 6.44882,0.752953 "/>
     <polygon id="1234567891011121314151617181920212223242526272829303132333435363738394041424344454647484950515253545556" class="fil45" points="7.00492,3.61043 7.56102,6.46791 7.74291,6.42638 "/>
     <polygon id="123456789101112131415161718192021222324252627282930313233343536373839404142434445464748495051525354555657" class="fil44" points="7.00492,3.61043 6.44882,0.752953 6.26693,0.794488 "/>
     <polygon id="12345678910111213141516171819202122232425262728293031323334353637383940414243444546474849505152535455565758" class="fil43" points="7.00492,3.61043 7.74291,6.42638 7.92185,6.37323 "/>
     <polygon id="1234567891011121314151617181920212223242526272829303132333435363738394041424344454647484950515253545556575859" class="fil42" points="7.00492,3.61043 6.26693,0.794488 6.08799,0.847638 "/>
     <polygon id="123456789101112131415161718192021222324252627282930313233343536373839404142434445464748495051525354555657585960" class="fil41" points="7.00492,3.61043 7.92185,6.37323 8.09705,6.30886 "/>
     <polygon id="12345678910111213141516171819202122232425262728293031323334353637383940414243444546474849505152535455565758596061" class="fil40" points="7.00492,3.61043 6.08799,0.847638 5.9128,0.912008 "/>
     <polygon id="1234567891011121314151617181920212223242526272829303132333435363738394041424344454647484950515253545556575859606162" class="fil39" points="7.00492,3.61043 8.09705,6.30886 8.26772,6.23327 "/>
     <polygon id="123456789101112131415161718192021222324252627282930313233343536373839404142434445464748495051525354555657585960616263" class="fil38" points="7.00492,3.61043 5.9128,0.912008 5.74213,0.987598 "/>
     <polygon id="12345678910111213141516171819202122232425262728293031323334353637383940414243444546474849505152535455565758596061626364" class="fil37" points="7.00492,3.61043 8.26772,6.23327 8.43307,6.14705 "/>
     <polygon id="1234567891011121314151617181920212223242526272829303132333435363738394041424344454647484950515253545556575859606162636465" class="fil36" points="7.00492,3.61043 5.74213,0.987598 5.57677,1.07382 "/>
     <polygon id="123456789101112131415161718192021222324252627282930313233343536373839404142434445464748495051525354555657585960616263646566" class="fil35" points="7.00492,3.61043 8.43307,6.14705 8.59272,6.0502 "/>
     <polygon id="12345678910111213141516171819202122232425262728293031323334353637383940414243444546474849505152535455565758596061626364656667" class="fil34" points="7.00492,3.61043 5.57677,1.07382 5.41713,1.17067 "/>
     <polygon id="1234567891011121314151617181920212223242526272829303132333435363738394041424344454647484950515253545556575859606162636465666768" class="fil33" points="7.00492,3.61043 8.59272,6.0502 8.74587,5.9435 "/>
     <polygon id="123456789101112131415161718192021222324252627282930313233343536373839404142434445464748495051525354555657585960616263646566676869" class="fil32" points="7.00492,3.61043 5.41713,1.17067 5.26398,1.27736 "/>
     <polygon id="12345678910111213141516171819202122232425262728293031323334353637383940414243444546474849505152535455565758596061626364656667686970" class="fil31" points="7.00492,3.61043 8.74587,5.9435 8.89173,5.82717 "/>
     <polygon id="1234567891011121314151617181920212223242526272829303132333435363738394041424344454647484950515253545556575859606162636465666768697071" class="fil30" points="7.00492,3.61043 5.26398,1.27736 5.11811,1.3937 "/>
     <polygon id="123456789101112131415161718192021222324252627282930313233343536373839404142434445464748495051525354555657585960616263646566676869707172" class="fil29" points="7.00492,3.61043 8.89173,5.82717 9.02992,5.70177 "/>
     <polygon id="12345678910111213141516171819202122232425262728293031323334353637383940414243444546474849505152535455565758596061626364656667686970717273" class="fil28" points="7.00492,3.61043 5.11811,1.3937 4.97992,1.51909 "/>
     <polygon id="1234567891011121314151617181920212223242526272829303132333435363738394041424344454647484950515253545556575859606162636465666768697071727374" class="fil27" points="7.00492,3.61043 9.02992,5.70177 9.15965,5.56772 "/>
     <polygon id="123456789101112131415161718192021222324252627282930313233343536373839404142434445464748495051525354555657585960616263646566676869707172737475" class="fil26" points="7.00492,3.61043 4.97992,1.51909 4.8502,1.65315 "/>
     <polygon id="12345678910111213141516171819202122232425262728293031323334353637383940414243444546474849505152535455565758596061626364656667686970717273747576" class="fil25" points="7.00492,3.61043 9.15965,5.56772 9.28071,5.42559 "/>
     <polygon id="1234567891011121314151617181920212223242526272829303132333435363738394041424344454647484950515253545556575859606162636465666768697071727374757677" class="fil24" points="7.00492,3.61043 4.8502,1.65315 4.72913,1.79528 "/>
     <polygon id="123456789101112131415161718192021222324252627282930313233343536373839404142434445464748495051525354555657585960616263646566676869707172737475767778" class="fil23" points="7.00492,3.61043 9.28071,5.42559 9.39232,5.27598 "/>
     <polygon id="12345678910111213141516171819202122232425262728293031323334353637383940414243444546474849505152535455565758596061626364656667686970717273747576777879" class="fil22" points="7.00492,3.61043 4.72913,1.79528 4.61752,1.94488 "/>
     <polygon id="1234567891011121314151617181920212223242526272829303132333435363738394041424344454647484950515253545556575859606162636465666768697071727374757677787980" class="fil21" points="7.00492,3.61043 9.39232,5.27598 9.49409,5.11969 "/>
     <polygon id="123456789101112131415161718192021222324252627282930313233343536373839404142434445464748495051525354555657585960616263646566676869707172737475767778798081" class="fil20" points="7.00492,3.61043 4.61752,1.94488 4.51575,2.10118 "/>
     <polygon id="12345678910111213141516171819202122232425262728293031323334353637383940414243444546474849505152535455565758596061626364656667686970717273747576777879808182" class="fil19" points="7.00492,3.61043 9.49409,5.11969 9.58563,4.95709 "/>
     <polygon id="1234567891011121314151617181920212223242526272829303132333435363738394041424344454647484950515253545556575859606162636465666768697071727374757677787980818283" class="fil18" points="7.00492,3.61043 4.51575,2.10118 4.42421,2.26378 "/>
     <polygon id="123456789101112131415161718192021222324252627282930313233343536373839404142434445464748495051525354555657585960616263646566676869707172737475767778798081828384" class="fil17" points="7.00492,3.61043 9.58563,4.95709 9.66673,4.78898 "/>
     <polygon id="12345678910111213141516171819202122232425262728293031323334353637383940414243444546474849505152535455565758596061626364656667686970717273747576777879808182838485" class="fil16" points="7.00492,3.61043 4.42421,2.26378 4.34311,2.43189 "/>
     <polygon id="1234567891011121314151617181920212223242526272829303132333435363738394041424344454647484950515253545556575859606162636465666768697071727374757677787980818283848586" class="fil15" points="7.00492,3.61043 9.66673,4.78898 9.73681,4.61594 "/>
     <polygon id="123456789101112131415161718192021222324252627282930313233343536373839404142434445464748495051525354555657585960616263646566676869707172737475767778798081828384858687" class="fil14" points="7.00492,3.61043 4.34311,2.43189 4.27303,2.60492 "/>
     <polygon id="12345678910111213141516171819202122232425262728293031323334353637383940414243444546474849505152535455565758596061626364656667686970717273747576777879808182838485868788" class="fil13" points="7.00492,3.61043 9.73681,4.61594 9.79547,4.43898 "/>
     <polygon id="1234567891011121314151617181920212223242526272829303132333435363738394041424344454647484950515253545556575859606162636465666768697071727374757677787980818283848586878889" class="fil12" points="7.00492,3.61043 4.27303,2.60492 4.21437,2.78189 "/>
     <polygon id="123456789101112131415161718192021222324252627282930313233343536373839404142434445464748495051525354555657585960616263646566676869707172737475767778798081828384858687888990" class="fil11" points="7.00492,3.61043 9.79547,4.43898 9.84291,4.25846 "/>
     <polygon id="12345678910111213141516171819202122232425262728293031323334353637383940414243444546474849505152535455565758596061626364656667686970717273747576777879808182838485868788899091" class="fil10" points="7.00492,3.61043 4.21437,2.78189 4.16693,2.9624 "/>
     <polygon id="1234567891011121314151617181920212223242526272829303132333435363738394041424344454647484950515253545556575859606162636465666768697071727374757677787980818283848586878889909192" class="fil9" points="7.00492,3.61043 9.84291,4.25846 9.87854,4.0752 "/>
     <polygon id="123456789101112131415161718192021222324252627282930313233343536373839404142434445464748495051525354555657585960616263646566676869707172737475767778798081828384858687888990919293" class="fil8" points="7.00492,3.61043 4.16693,2.9624 4.1313,3.14567 "/>
     <polygon id="12345678910111213141516171819202122232425262728293031323334353637383940414243444546474849505152535455565758596061626364656667686970717273747576777879808182838485868788899091929394" class="fil7" points="7.00492,3.61043 9.87854,4.0752 9.90256,3.89016 "/>
     <polygon id="1234567891011121314151617181920212223242526272829303132333435363738394041424344454647484950515253545556575859606162636465666768697071727374757677787980818283848586878889909192939495" class="fil6" points="7.00492,3.61043 4.1313,3.14567 4.10728,3.33071 "/>
     <polygon id="123456789101112131415161718192021222324252627282930313233343536373839404142434445464748495051525354555657585960616263646566676869707172737475767778798081828384858687888990919293949596" class="fil5" points="7.00492,3.61043 9.90256,3.89016 9.91437,3.70394 "/>
     <polygon id="12345678910111213141516171819202122232425262728293031323334353637383940414243444546474849505152535455565758596061626364656667686970717273747576777879808182838485868788899091929394959697" class="fil4" points="7.00492,3.61043 4.10728,3.33071 4.09547,3.51693 "/>
    </g>
    <path id="1234567891011121314151617181920212223242526272829303132333435363738394041424344454647484950515253545556575859606162636465666768697071727374757677787980818283848586878889909192939495969798" class="fil52 str0" d="M7.00512 1.55965c-1.13228,-0.00019685 -2.05079,0.91811 -2.05079,2.05039 -0.00019685,1.13228 0.91811,2.05059 2.05039,2.05079 1.13228,0.00019685 2.05059,-0.91811 2.05079,-2.05039 0,-1.13228 -0.91811,-2.05059 -2.05039,-2.05079zm0 0.644291c-0.776575,0 -1.4065,0.629528 -1.4065,1.4061 -0.00019685,0.776575 0.629528,1.4065 1.4061,1.4065 0.776575,0.00019685 1.4063,-0.629528 1.4065,-1.4061 0,-0.776575 -0.629528,-1.4063 -1.4061,-1.4065z"/>
   </g>
   <polygon class="fil54 str0" points="7.43346,4.52244 6.61476,4.52244 6.61457,6.53957 7.43327,6.53957 "/>
   <circle class="fil55" cx="30.626" cy="11.0961" r="0.739567"/>
   <circle class="fil56" cx="30.64" cy="13.3427" r="0.735236"/>
   <circle class="fil57" cx="30.6406" cy="15.5722" r="0.736811"/>
   <rect class="fil58 str0" x="2.84705" y="8.63406" width="26.3965" height="13.7028"/>
   <path class="fil59" d="M3.47913 15.8972c0.109843,-0.00413386 0.268898,-0.00629921 0.476772,-0.00649606 -0.0716535,0.131299 -0.127756,0.227756 -0.168701,0.289764l0.439567 0.226969c-0.244291,0.113386 -0.470669,0.159449 -0.679724,0.137008 0.0423228,0.122244 0.0690945,0.220079 0.0801181,0.294094 0.357283,-0.0265748 0.649606,-0.11811 0.876969,-0.275197 0.261811,0.14626 0.437795,0.256496 0.527362,0.330906 0.0159449,-0.0334646 0.0305118,-0.0687008 0.0438976,-0.105512l0.0797244 -0.172638 -0.482677 -0.265354c0.0675197,-0.116929 0.124213,-0.26811 0.170079,-0.453543l0.419882 0.0127953 0.0019685 -0.283858 -0.900394 0.000787402 0.147244 -0.309252c-0.0442913,-0.0163386 -0.125787,-0.0555118 -0.244094,-0.116929 -0.0364173,0.119685 -0.0944882,0.261024 -0.174016,0.424213l-0.612008 -0.011811 -0.0019685 0.284055zm0.753346 -0.00452756l0.361024 0.00275591c-0.0403543,0.148622 -0.0903543,0.260039 -0.149606,0.333268l-0.299016 -0.163386 0.0875984 -0.172638zm-0.69311 -1.02697l-0.0019685 0.562795 0.247244 0.00177165 -0.0019685 -0.295866 1.19685 0.00866142c-0.000787402,0.100787 -0.00334646,0.204331 -0.00826772,0.310236l0.247244 0.00177165c-0.00393701,-0.179331 -0.00255906,-0.37185 0.00413386,-0.577165l-0.770866 0.00177165c0.023622,-0.0145669 0.0517717,-0.0305118 0.0846457,-0.0476378 -0.0348425,-0.0870079 -0.084252,-0.181102 -0.149213,-0.282283 -0.0564961,0.0425197 -0.127756,0.0830709 -0.21437,0.121063 0.0503937,0.0771654 0.0852362,0.14626 0.104331,0.207677l-0.737795 -0.0127953zm2.55433 0.949409l0.351378 -0.0023622 -0.00137795 0.185039 -0.463189 -0.00826772 -0.0019685 0.281693 0.463189 -0.0015748 -0.00137795 0.19252 -0.737598 -0.0173228 -0.0023622 0.317323c0.573031,-0.0120079 1.13917,-0.00787402 1.69882,0.0122047l0.0023622 -0.317126 -0.716339 0.00669291 0.0015748 -0.19252 0.43937 0.00807087 0.00216535 -0.281693 -0.439567 0.00177165 0.0011811 -0.185039 0.327756 0.00728346 0.0019685 -0.272047c0.105315,0.082874 0.219291,0.153346 0.341732,0.211811 0.0253937,-0.0864173 0.0726378,-0.196457 0.141732,-0.330709 -0.250787,-0.0468504 -0.465354,-0.201575 -0.644291,-0.46437 -0.0543307,-0.0771654 -0.102559,-0.163189 -0.145079,-0.257874 0.00787402,-0.0208661 0.0173228,-0.0409449 0.0279528,-0.0602362 -0.0952756,-0.0151575 -0.193898,-0.0415354 -0.295669,-0.0787402 -0.00807087,0.0496063 -0.0348425,0.119488 -0.0799213,0.21063 -0.115551,0.232087 -0.270079,0.422835 -0.463386,0.573819 -0.0944882,0.0683071 -0.186614,0.11811 -0.275984,0.149803 0.0781496,0.0885827 0.13878,0.180315 0.18248,0.275591 0.106693,-0.0730315 0.201969,-0.149606 0.28622,-0.229134l-0.00177165 0.264764zm0.0253937 -0.283858c0.18189,-0.173425 0.338976,-0.366732 0.471457,-0.581102 0.105315,0.236811 0.243898,0.432283 0.415551,0.587598 -0.302362,0.00905512 -0.598031,0.00688976 -0.887008,-0.00649606zm1.88839 0.232677c0.00570866,0.31752 0.00334646,0.66063 -0.00748031,1.02933l1.30846 0.00452756 -0.000393701 0.057874 0.255118 0.00177165c-0.00629921,-0.365748 -0.00433071,-0.713386 0.00570866,-1.0437l-0.260827 -0.00177165 0.00255906 0.692717 -0.4 -0.00295276 0.00570866 -0.79626 0.598425 0.00925197c-0.00492126,-0.391142 -0.0019685,-0.702953 0.00866142,-0.935236l-0.254921 -0.0019685 0.00314961 0.651378 -0.35315 -0.00255906 0.011811 -0.812402 -0.262992 -0.0019685 0 0.812598 -0.337598 -0.0023622 0.00905512 -0.675591 -0.264961 -0.0019685c0.00314961,0.332087 0.000787402,0.651772 -0.00688976,0.959646l0.598425 -0.000590551 -0.00590551 0.79626 -0.396457 -0.00295276 0.0114173 -0.731102 -0.266929 -0.0019685zm2.26457 0.872638l0.25315 0.00177165 0.000393701 -0.0600394 0.91811 0.00669291 -0.000393701 0.0600394 0.249016 0.00177165 0.00295276 -1.46693c0.000590551,-0.0767717 0.00354331,-0.152165 0.00925197,-0.226181 -0.443307,0.0112205 -0.916732,0.00688976 -1.42008,-0.0125984 0.00787402,0.533858 0.00374016,1.09902 -0.0124016,1.69547zm0.255512 -0.329921l0.00787402 -1.07736 0.91811 0.00669291 -0.00787402 1.07736 -0.91811 -0.00669291zm-4.78799 1.72303l0.00374016 -0.528937 0.500197 0.00374016 0.0023622 -0.327165 -0.767126 -0.00551181 -0.0141732 1.95256 0.767126 0.00570866 0.0023622 -0.326969 -0.500197 -0.00374016 0.00334646 -0.44252 0.319685 0.0023622 0.0023622 -0.327165 -0.319685 -0.0023622zm1.31732 0.476378l0.215157 0.657874 0.288189 0.00216535 -0.35689 -1.09213 0.302756 -0.873228 -0.288386 -0.0019685 -0.154528 0.443701 -0.143701 -0.445866 -0.288386 -0.00216535 0.286024 0.880118 -0.361024 1.05059 0.288386 0.0019685 0.212402 -0.621063zm1.07146 0.370669l-0.145276 -0.0011811 -0.0019685 0.267126 0.549409 0.00413386 0.00177165 -0.267126 -0.137205 -0.000984252 0.0102362 -1.4189 0.137402 0.000984252 0.0019685 -0.266732 -0.549409 -0.00393701 -0.0019685 0.266732 0.145276 0.000984252 -0.0102362 1.4189zm1.4876 -1.34783l0.333465 0.00255906 0.0023622 -0.327165 -0.943307 -0.00688976 -0.00255906 0.327165 0.343307 0.00255906 -0.011811 1.62539 0.266732 0.0019685 0.011811 -1.62559zm7.4065 -3.43858l-2.16516 0.259252 -0.695669 0.885236c-0.146063,0.379921 0.16752,0.628937 0.568701,0.465551l0.430906 -0.641339 0.513386 -0.0624016 -0.51063 1.18543 -0.0659449 1.00138 -1.19941 0.00177165c-0.614764,0.0818898 -0.625197,0.73622 -0.00314961,0.808858l1.84035 -0.0023622 0.155118 -1.1498 1.18091 1.8189c0.358071,0.414567 0.971457,0.168307 0.784449,-0.337795l-1.15827 -1.87028 0.348425 -0.976575 0.579724 0.777756 0.987795 -0.0120079 0.00177165 2.54193 -0.514173 0.767717 2.15866 0 0.000787402 -8.24587 -8.22559 -0.000787402 -0.000787402 8.24567 0.904528 0.00019685 0.737598 -0.744882 0.00669291 -0.586614c-0.73248,-0.124803 -0.655512,-1.15138 -0.00649606,-1.28937l0.000590551 -4.48937 4.93366 -0.0220472 0.0023622 3.42224 -0.00374016 -0.376575 -0.662008 0.00570866 -0.925394 -1.37953zm0.297441 -1.43445c-0.381299,-0.00019685 -0.690551,0.301772 -0.690748,0.674213 0,0.372441 0.309252,0.674606 0.690551,0.674606 0.381299,0 0.690551,-0.301969 0.690551,-0.674409 0.00019685,-0.372441 -0.309055,-0.674409 -0.690354,-0.674409zm0.143307 6.89882c0.192717,-0.342913 -0.0305118,-0.76752 -0.432283,-0.610433l-0.929528 0.610236 1.36181 0.00019685zm7.18642 -5.92303l-0.00807087 0 0.0362205 0.0338583 0.639961 0.769685 -4.05906 -0.00492126 0.00570866 1.99587 4.05689 0.00216535 0.00019685 0 -0.990551 1.2811 2.15492 -0.00275591 2.15551 -2.2185 -2.15551 -2.23917 -2.15276 0.0019685 0.316535 0.380709z"/>
  </g>
 </g>
</svg>
