<?xml version="1.0" encoding="UTF-8"?>
<!DOCTYPE svg PUBLIC "-//W3C//DTD SVG 1.1//EN" "http://www.w3.org/Graphics/SVG/1.1/DTD/svg11.dtd">
<!-- Creator: CorelDRAW -->
<svg xmlns="http://www.w3.org/2000/svg" xml:space="preserve" width="32px" height="32px" style="shape-rendering:geometricPrecision; text-rendering:geometricPrecision; image-rendering:optimizeQuality; fill-rule:evenodd; clip-rule:evenodd"
viewBox="0 0 31.9922 31.8351"
 xmlns:xlink="http://www.w3.org/1999/xlink">
 <defs>
  <style type="text/css">
   <![CDATA[
    .str0 {stroke:#1F1A17;stroke-width:0.149227}
    .str1 {stroke:#FFF500;stroke-width:0.149227}
    .str2 {stroke:white;stroke-width:0.149227}
    .fil0 {fill:none}
    .fil6 {fill:#D0CFCF}
    .fil5 {fill:#F8F6E8}
    .fil7 {fill:#FFFCBC}
    .fil9 {fill:#FFFCC1}
    .fil4 {fill:#FDFAD1}
    .fil1 {fill:#FEFBC8}
    .fil16 {fill:#00923F;fill-rule:nonzero}
    .fil15 {fill:#1F1A17;fill-rule:nonzero}
    .fil2 {fill:url(#id0)}
    .fil3 {fill:url(#id1)}
    .fil11 {fill:url(#id2)}
    .fil14 {fill:url(#id3)}
    .fil8 {fill:url(#id4)}
    .fil10 {fill:url(#id5)}
    .fil12 {fill:url(#id6)}
    .fil13 {fill:url(#id7)}
   ]]>
  </style>
  <linearGradient id="id0" gradientUnits="userSpaceOnUse" x1="26.027" y1="13.6443" x2="26.027" y2="10.3717">
   <stop offset="0" style="stop-color:#3F4446"/>
   <stop offset="0.360784" style="stop-color:#80888D"/>
   <stop offset="0.509804" style="stop-color:#C2C1C1"/>
   <stop offset="0.709804" style="stop-color:#4D4948"/>
   <stop offset="0.988235" style="stop-color:#4D4948"/>
   <stop offset="1" style="stop-color:white"/>
  </linearGradient>
  <linearGradient id="id1" gradientUnits="userSpaceOnUse" x1="12.9906" y1="6.26558" x2="18.0202" y2="16.0266">
   <stop offset="0" style="stop-color:#F8F4AA"/>
   <stop offset="0.501961" style="stop-color:#FEFCD8"/>
   <stop offset="0.768627" style="stop-color:#F8F4AB"/>
   <stop offset="1" style="stop-color:#FFFEE2"/>
  </linearGradient>
  <linearGradient id="id2" gradientUnits="userSpaceOnUse" x1="20.8536" y1="30.7549" x2="10.1884" y2="20.8268">
   <stop offset="0" style="stop-color:#DEDEDD"/>
   <stop offset="1" style="stop-color:white"/>
  </linearGradient>
  <radialGradient id="id3" gradientUnits="userSpaceOnUse" cx="19.904" cy="25.377" r="1.40512" fx="19.904" fy="25.377">
   <stop offset="0" style="stop-color:white"/>
   <stop offset="1" style="stop-color:#00923F"/>
  </radialGradient>
  <radialGradient id="id4" gradientUnits="userSpaceOnUse" cx="5.22177" cy="6.30945" r="4.35657" fx="5.22177" fy="6.30945">
   <stop offset="0" style="stop-color:white"/>
   <stop offset="1" style="stop-color:#D0CFCF"/>
  </radialGradient>
  <radialGradient id="id5" gradientUnits="userSpaceOnUse" xlink:href="#id4" cx="25.8678" cy="6.15376" r="4.35657" fx="25.8678" fy="6.15376">
  </radialGradient>
  <radialGradient id="id6" gradientUnits="userSpaceOnUse" cx="11.2764" cy="25.377" r="1.40512" fx="11.2764" fy="25.377">
   <stop offset="0" style="stop-color:white"/>
   <stop offset="1" style="stop-color:#DA251D"/>
  </radialGradient>
  <radialGradient id="id7" gradientUnits="userSpaceOnUse" cx="15.4832" cy="25.377" r="1.40512" fx="15.4832" fy="25.377">
   <stop offset="0" style="stop-color:white"/>
   <stop offset="1" style="stop-color:#FFF500"/>
  </radialGradient>
 </defs>
 <g id="图层_x0020_1">
  <metadata id="CorelCorpID_0Corel-Layer"/>
  <rect class="fil0" x="0.082447" width="31.8351" height="31.8351"/>
  <path class="fil1 str0" d="M3.31746 12.9918l25.8741 -0.0687384c1.49932,-0.00391672 2.72604,0.635096 2.72604,1.41022l0 13.0971c0,0.774923 -1.64013,2.6759 -3.34194,2.68041l-25.5302 0.0193878c-1.92566,0.00117502 -2.91894,-2.02534 -2.963,-2.51708 0.0283962,-3.72598 -0.0282004,-7.64701 0,-11.3728 0,-1.13585 0.931788,-2.72016 3.23502,-3.24853z"/>
  <path class="fil2" d="M24.7337 10.3717l2.54332 0 0 1.24885c0.167244,0.0376005 0.293362,0.203669 0.293362,0.402835 0,0.198774 -0.126118,0.364843 -0.293362,0.402443l0 1.21869 -2.54332 0 0 -1.25061c-0.145115,-0.0544424 -0.249887,-0.20837 -0.249887,-0.389518 0,-0.181344 0.104772,-0.335075 0.249887,-0.389518l0 -1.24317zm2.01241 1.19969l-1.46955 0c-0.0640384,0 -0.116718,-0.181932 -0.116718,-0.405381l0 -0.612771 0.172336 0 0 0.146094c0,0.189178 0.0413214,0.343496 0.0916513,0.343496l1.15445 0c0.0505257,0 0.0916513,-0.154319 0.0916513,-0.343496l0 -0.146094 0.192703 0 0 0.612771c0,0.223449 -0.0524841,0.405381 -0.116522,0.405381zm-1.43332 0.948826l1.46955 0c0.0642342,0 0.116522,0.181932 0.116522,0.405381l0 0.612771 -0.17214 0 0 -0.146094c0,-0.189178 -0.0413214,-0.343496 -0.0916513,-0.343496l-1.15445 0c-0.0505257,0 -0.0916513,0.154319 -0.0916513,0.343496l0 0.146094 -0.192703 0 0 -0.612771c0,-0.223449 0.0524841,-0.405381 0.116522,-0.405381z"/>
  <path class="fil2" d="M3.87383 10.5675l2.54332 0 0 1.17521c0.167244,0.0354463 0.293362,0.191723 0.293362,0.379139 0,0.187023 -0.126118,0.343301 -0.293362,0.378747l0 1.14682 -2.54332 0 0 -1.17697c-0.14531,-0.0511132 -0.249887,-0.196032 -0.249887,-0.366409 0,-0.170769 0.104576,-0.315492 0.249887,-0.366605l0 -1.16992zm2.01241 1.12899l-1.46955 0c-0.0640384,0 -0.116718,-0.171161 -0.116718,-0.381489l0 -0.576737 0.172336 0 0 0.137673c0,0.177819 0.0413214,0.323129 0.0916513,0.323129l1.15445 0c0.0505257,0 0.0916513,-0.14531 0.0916513,-0.323129l0 -0.137673 0.192703 0 0 0.576737c0,0.210328 -0.0524841,0.381489 -0.116522,0.381489zm-1.43332 0.892816l1.46955 0c0.0642342,0 0.116522,0.171357 0.116522,0.381684l0 0.576541 -0.17214 0 0 -0.137477c0,-0.178015 -0.0413214,-0.323325 -0.0916513,-0.323325l-1.15445 0c-0.0505257,0 -0.0916513,0.14531 -0.0916513,0.323325l0 0.137477 -0.192703 0 0 -0.576541c0,-0.210328 0.0524841,-0.381684 0.116522,-0.381684z"/>
  <path class="fil3 str0" d="M10.8293 8.62481l9.36468 0c0.40871,0 0.745744,0.522099 0.742806,1.15974l-0.0184086 3.84348 -1.09668 0.039363c0.0111627,-0.0757885 0.0172336,-0.154906 0.0172336,-0.236374l0 -2.30969c0,-0.541095 -0.262616,-0.983684 -0.583591,-0.983684l-7.35815 0c-0.320975,0 -0.583591,0.442589 -0.583591,0.983684l0 2.30969 0.00195836 0.0802928 -1.24434 -0.0097918 0.0152752 -3.71697c0.0027417,-0.637838 0.334292,-1.15974 0.742806,-1.15974z"/>
  <rect class="fil4 str0" x="0.0824472" y="14.2126" width="30.7684" height="15.9176" rx="2.82063" ry="2.82063"/>
  <g id="_76407232">
   <ellipse id="_270469016" class="fil5 str0" cx="5.19984" cy="6.38035" rx="5.10774" ry="4.29291"/>
   <ellipse id="_270467408" class="fil6 str1" cx="5.19994" cy="6.38043" rx="4.35566" ry="3.66081"/>
   <circle id="_270469160" class="fil7 str0" transform="matrix(0.656427 -0.14783 0.175889 0.551707 5.22161 6.30934)" r="7.51599"/>
   <path id="_76407328" class="fil8 str0" d="M4.09434 2.77343c2.3234,-0.523274 4.71221,0.63588 5.33457,2.58856 0.622563,1.95249 -0.756515,3.9602 -3.07991,4.48347 -2.3232,0.523078 -4.71201,-0.63588 -5.33457,-2.58856 -0.622563,-1.95268 0.75671,-3.9602 3.07991,-4.48347z"/>
   <line id="_270468176" class="fil0 str2" x1="5.52375" y1="6.4011" x2="5.52375" y2= "9.82529" />
   <line id="_270468320" class="fil0 str2" x1="5.55528" y1="6.33079" x2="6.60986" y2= "9.63846" />
   <line id="_270468440" class="fil0 str2" x1="5.56429" y1="6.25598" x2="7.60138" y2= "9.22153" />
   <line id="_270468008" class="fil0 str2" x1="5.5498" y1="6.18176" x2="8.43074" y2= "8.60327" />
   <line id="_270468056" class="fil0 str2" x1="5.51298" y1="6.11341" x2="9.04155" y2= "7.82541" />
   <line id="_270468464" class="fil0 str2" x1="5.45638" y1="6.05525" x2="9.3919" y2= "6.94141" />
   <line id="_270468296" class="fil0 str2" x1="5.38392" y1="6.01138" x2="9.4581" y2= "6.01138" />
   <line id="_270467840" class="fil0 str2" x1="5.3003" y1="5.98475" x2="9.23563" y2= "5.0984" />
   <line id="_270468608" class="fil0 str2" x1="5.2112" y1="5.97731" x2="8.73977" y2= "4.26511" />
   <line id="_270468632" class="fil0 str2" x1="5.12307" y1="5.98945" x2="8.00401" y2= "3.56794" />
   <line id="_270468656" class="fil0 str2" x1="5.0416" y1="6.0202" x2="7.07869" y2= "3.05465" />
   <line id="_270468680" class="fil0 str2" x1="4.97228" y1="6.06778" x2="6.02685" y2= "2.76011" />
   <line id="_270468704" class="fil0 str2" x1="4.92018" y1="6.12888" x2="4.92018" y2= "2.7045" />
   <line id="_76004072" class="fil0 str2" x1="4.88846" y1="6.19919" x2="3.83408" y2= "2.89152" />
   <line id="_76003784" class="fil0 str2" x1="4.87965" y1="6.2738" x2="2.84236" y2= "3.30826" />
   <line id="_270467816" class="fil0 str2" x1="4.89394" y1="6.34803" x2="2.013" y2= "3.92671" />
   <line id="_270577240" class="fil0 str2" x1="4.93076" y1="6.41657" x2="1.40238" y2= "4.70437" />
   <line id="_270579664" class="fil0 str2" x1="4.98736" y1="6.47473" x2="1.05184" y2= "5.58838" />
   <line id="_270578032" class="fil0 str2" x1="5.06001" y1="6.5186" x2="0.985643" y2= "6.5186" />
   <line id="_270582544" class="fil0 str2" x1="5.14363" y1="6.54523" x2="1.20811" y2= "7.43139" />
   <line id="_270577912" class="fil0 str2" x1="5.23254" y1="6.55267" x2="1.70417" y2= "8.26487" />
   <line id="_76003088" class="fil0 str2" x1="5.32067" y1="6.54053" x2="2.43973" y2= "8.96185" />
   <line id="_76008680" class="fil0 str2" x1="5.40233" y1="6.50959" x2="3.36505" y2= "9.47513" />
   <line id="_76002224" class="fil0 str2" x1="5.47146" y1="6.462" x2="4.41689" y2= "9.76967" />
  </g>
  <g id="_76407136">
   <ellipse id="_76003160" class="fil5 str0" cx="25.846" cy="6.22723" rx="5.10774" ry="4.44779"/>
   <ellipse id="_76000736" class="fil6 str0" cx="25.8461" cy="6.22732" rx="4.35566" ry="3.79288"/>
   <circle id="_76001168" class="fil9 str0" transform="matrix(0.656427 -0.153163 0.175889 0.571612 25.8678 6.15365)" r="7.51599"/>
   <path id="_76001528" class="fil10 str0" d="M24.7406 2.49006c2.3232,-0.542074 4.71201,0.658792 5.33457,2.68197 0.622563,2.02299 -0.75671,4.10316 -3.07991,4.64523 -2.3232,0.542074 -4.71201,-0.658792 -5.33457,-2.68197 -0.622563,-2.02299 0.75671,-4.10296 3.07991,-4.64523z"/>
   <line id="_76001744" class="fil0 str2" x1="26.1698" y1="6.24874" x2="26.1698" y2= "9.7965" />
   <line id="_76000832" class="fil0 str2" x1="26.2015" y1="6.17589" x2="27.2561" y2= "9.60282" />
   <line id="_76003904" class="fil0 str2" x1="26.2103" y1="6.09833" x2="28.2476" y2= "9.171" />
   <line id="_76003736" class="fil0 str2" x1="26.196" y1="6.02157" x2="29.077" y2= "8.53023" />
   <line id="_76001456" class="fil0 str2" x1="26.1592" y1="5.95067" x2="29.6876" y2= "7.72456" />
   <line id="_76001624" class="fil0 str2" x1="26.1026" y1="5.89036" x2="30.0381" y2= "6.80863" />
   <line id="_76000952" class="fil0 str2" x1="26.0299" y1="5.84492" x2="30.1043" y2= "5.84492" />
   <line id="_76002152" class="fil0 str2" x1="25.9465" y1="5.81731" x2="29.8818" y2= "4.89903" />
   <line id="_76004864" class="fil0 str2" x1="25.8574" y1="5.80967" x2="29.3858" y2= "4.03559" />
   <line id="_270471752" class="fil0 str2" x1="25.7693" y1="5.82221" x2="28.6502" y2= "3.31335" />
   <line id="_270467528" class="fil0 str2" x1="25.6878" y1="5.85413" x2="27.7249" y2= "2.78166" />
   <line id="_270472736" class="fil0 str2" x1="25.6185" y1="5.90348" x2="26.6731" y2= "2.47654" />
   <line id="_270474200" class="fil0 str2" x1="25.5664" y1="5.96654" x2="25.5664" y2= "2.41877" />
   <line id="_270470576" class="fil0 str2" x1="25.5347" y1="6.03939" x2="24.4801" y2= "2.61245" />
   <line id="_270467192" class="fil0 str2" x1="25.5259" y1="6.11694" x2="23.4886" y2= "3.04447" />
   <line id="_270472832" class="fil0 str2" x1="25.5402" y1="6.19371" x2="22.6592" y2= "3.68505" />
   <line id="_270467576" class="fil0 str2" x1="25.577" y1="6.26479" x2="22.0486" y2= "4.49072" />
   <line id="_270471224" class="fil0 str2" x1="25.6336" y1="6.32492" x2="21.698" y2= "5.40664" />
   <line id="_270469616" class="fil0 str2" x1="25.7062" y1="6.37035" x2="21.6319" y2= "6.37035" />
   <line id="_270474296" class="fil0 str2" x1="25.7898" y1="6.39796" x2="21.8543" y2= "7.31624" />
   <line id="_75816928" class="fil0 str2" x1="25.8788" y1="6.4058" x2="22.3504" y2= "8.17968" />
   <line id="_75817768" class="fil0 str2" x1="25.9669" y1="6.39326" x2="23.0859" y2= "8.90192" />
   <line id="_75815944" class="fil0 str2" x1="26.0483" y1="6.36115" x2="24.0113" y2= "9.43362" />
   <line id="_75817744" class="fil0 str2" x1="26.1177" y1="6.3118" x2="25.0631" y2= "9.73893" />
  </g>
  <path class="fil11 str0" d="M15.521 22.4185c5.00694,0 9.15945,2.92227 9.92321,6.74459l-19.8464 0c0.763565,-3.82233 4.91607,-6.74459 9.92321,-6.74459z"/>
  <ellipse class="fil12" cx="11.2765" cy="25.377" rx="1.35804" ry="1.40512"/>
  <ellipse class="fil13" cx="15.4831" cy="25.377" rx="1.35804" ry="1.40512"/>
  <ellipse class="fil14" cx="19.9039" cy="25.377" rx="1.35804" ry="1.40512"/>
  <path class="fil15" d="M18.6197 27.5345c0.0659967,0.0070501 0.132189,0.010771 0.198186,0.010771l0.599846 0c0.0524841,0 0.116718,-0.00372088 0.19329,-0.010771l0 0.113193c-0.0765719,-0.0070501 -0.140806,-0.010771 -0.19329,-0.010771l-0.250278 0 0 0.275345 0.198186 0c0.048959,0 0.109668,-0.00352505 0.182519,-0.010771l0 0.113389c-0.072851,-0.00724593 -0.13356,-0.0109668 -0.182519,-0.0109668l-0.198186 0 0 0.340167 0.297279 0c0.0591425,0 0.127098,-0.00352505 0.203474,-0.010771l0 0.113389c-0.0763761,-0.00724593 -0.144331,-0.0109668 -0.203474,-0.0109668l-0.693651 0c-0.0626675,0 -0.128664,0.00372088 -0.198186,0.0109668l0 -0.113389c0.0695218,0.00724593 0.135519,0.010771 0.198186,0.010771l0.2869 0 0 -0.340167 -0.193094 0c-0.0487632,0 -0.109472,0.00372088 -0.182519,0.0109668l0 -0.113389c0.0799011,0.00724593 0.140806,0.010771 0.182519,0.010771l0.193094 0 0 -0.275345 -0.240095 0c-0.069326,0 -0.135519,0.00372088 -0.198186,0.010771l0 -0.113193zm0.584179 -0.102618c-0.0278087,0.0109668 -0.0624717,0.0287879 -0.103989,0.0538549 -0.010771,-0.0321171 -0.0419089,-0.0896929 -0.0941971,-0.172727 0.0383839,-0.0178211 0.0730468,-0.035838 0.104576,-0.0538549 0.0137085,0.0217378 0.0301587,0.0495465 0.0493507,0.083622 0.0191919,0.0342713 0.0340755,0.0638425 0.0442589,0.0891054z"/>
  <path id="1" class="fil15" d="M21.0592 28.2092c0.0348588,0.0287879 0.0730468,0.0485673 0.114564,0.0595342 -0.0205628,0.0753969 -0.0405381,0.12416 -0.05973,0.145506 -0.0191919,0.021542 -0.0565966,0.0325088 -0.112214,0.0325088l-0.380901 0c-0.0730468,0.00372088 -0.111235,-0.0360338 -0.11476,-0.118872l0 -0.183303 -0.281612 0 0 0.140219 -0.099093 0c0.00332921,-0.0612967 0.00509174,-0.193486 0.00509174,-0.396764 0,-0.203082 -0.00176252,-0.335663 -0.00509174,-0.396568l0.380705 0c0,-0.0938055 -0.00156669,-0.165677 -0.00509174,-0.216007l0.104381 0c-0.00352505,0.0432798 -0.00548341,0.115152 -0.00548341,0.216007l0.391476 0c-0.00352505,0.050134 -0.00509174,0.155298 -0.00509174,0.315688 0,0.159998 0.00156669,0.272408 0.00509174,0.337425l-0.391476 0 0 0.145506c0,0.0470006 0.026242,0.0703051 0.0783344,0.0703051l0.266141 0c0.0522882,0 0.082447,-0.0117502 0.0912596,-0.0350547 0.00861679,-0.0235003 0.0166461,-0.0622759 0.0235003,-0.116131zm-0.834653 -0.631375l0 0.188786 0.281612 0 0 -0.188786 -0.281612 0zm0 0.27515l0 0.205236 0.281612 0 0 -0.205236 -0.281612 0zm0.375418 -0.27515l0 0.188786 0.292187 0 0 -0.188786 -0.292187 0zm0 0.27515l0 0.205236 0.292187 0 0 -0.205236 -0.292187 0z"/>
  <path class="fil15" d="M10.4012 27.869c0.0348588,-0.014296 0.0679551,-0.0287879 0.099093,-0.0430839 0.0593383,0.151185 0.104381,0.275345 0.135714,0.37248 -0.0313338,0.0144919 -0.0659967,0.0287879 -0.104185,0.0432798 -0.0385797,-0.133364 -0.0818595,-0.257524 -0.130623,-0.372676zm0.255566 -0.134931c0.0348588,-0.0070501 0.0697176,-0.0160586 0.104381,-0.0270254 0.034663,0.115152 0.0659967,0.237549 0.0938055,0.367193 -0.0344671,0.010771 -0.0695218,0.0217378 -0.104185,0.0325088 -0.0278087,-0.129643 -0.0591425,-0.253804 -0.0940013,-0.372676zm0.380901 -0.0105751c0.0485673,0.025067 0.0975263,0.0430839 0.145898,0.0538549 -0.034663,0.0755927 -0.0667801,0.151185 -0.0963513,0.226582 -0.0295712,0.0755927 -0.0806844,0.205236 -0.153927,0.388735l0.130231 0c0.0524841,0 0.108101,-0.00176252 0.167048,-0.00548341l0 0.108101c-0.0589466,-0.00372088 -0.114564,-0.00528757 -0.167048,-0.00528757l-0.547753 0c-0.0589466,0 -0.128664,0.00156669 -0.208565,0.00528757l0 -0.108101c0.0767677,0.00372088 0.146094,0.00548341 0.208565,0.00548341l0.307854 0c0.0487632,-0.107906 0.0922388,-0.223057 0.130623,-0.345455 0.038188,-0.122202 0.0659967,-0.230303 0.0834262,-0.323717zm-0.406947 -0.383447c0.0419089,-0.00724593 0.0834262,-0.0160586 0.125335,-0.0270254 0.0137085,0.0542466 0.0278087,0.111822 0.0417131,0.172727l0.187611 0c0.0695218,0 0.146094,-0.00176252 0.229716,-0.00528757l0 0.0973305c-0.083622,-0.00372088 -0.160194,-0.00567925 -0.229716,-0.00567925l-0.673088 0c0,0.205236 -0.00313338,0.351917 -0.0101835,0.439848 -0.0070501,0.0883221 -0.0207586,0.178407 -0.0417131,0.270058 -0.0211503,0.0918471 -0.0556174,0.180757 -0.104576,0.26712 -0.0309421,-0.0323129 -0.0607092,-0.0611008 -0.0885179,-0.0863637 0.0415172,-0.0538549 0.0750052,-0.135714 0.099093,-0.245578 0.0244795,-0.109472 0.0383839,-0.225603 0.0419089,-0.348196 0.00313338,-0.122202 0.00156669,-0.250083 -0.00528757,-0.383251l0.469615 0c-0.0103793,-0.046609 -0.0244795,-0.0953721 -0.0419089,-0.145702z"/>
  <path id="1" class="fil15" d="M11.9485 27.2917c0.038188,0.025067 0.0802928,0.0448465 0.125335,0.0591425 -0.034663,0.0287879 -0.0624717,0.0595342 -0.083622,0.0918471l0.500949 0c-0.0207586,0.0217378 -0.0442589,0.0505257 -0.0706968,0.0863637 -0.0258504,0.0360338 -0.0546383,0.0755927 -0.0855803,0.118677l0.25537 0c-0.00332921,0.0575758 -0.00509174,0.133364 -0.00509174,0.226778 0,0.0936096 0.00176252,0.172727 0.00509174,0.237549l-0.672893 0c-0.0591425,0 -0.125335,0.00372088 -0.198186,0.010771l0 -0.0971347c0.072851,0.00372088 0.139044,0.00528757 0.198186,0.00528757l0.568512 0 0 -0.10771 -0.573995 0c-0.0483715,0 -0.10771,0.00176252 -0.177232,0.00528757l0 -0.0916513c0.0695218,0.00332921 0.12886,0.00528757 0.177232,0.00528757l0.573995 0 0 -0.113389 -0.48489 0c-0.087147,0 -0.158431,0.00176252 -0.214049,0.00528757l0 -0.0538549c-0.0452381,0.0432798 -0.0851887,0.0810761 -0.119852,0.113193 -0.0278087,-0.0287879 -0.0540507,-0.0518965 -0.0783344,-0.0699135 0.0624717,-0.0432798 0.126902,-0.104576 0.192703,-0.183498 0.0661926,-0.0793136 0.12181,-0.161956 0.167048,-0.24832zm-0.0205628 0.23187c-0.0350547,0.0432798 -0.0732427,0.084797 -0.114956,0.12416l0.401856 0c0.038188,-0.0430839 0.069326,-0.0846012 0.0938055,-0.12416l-0.380705 0zm-0.240095 0.674851c0.0278087,0.0144919 0.0571841,0.025067 0.0885179,0.0325088 -0.034663,0.104185 -0.0695218,0.206803 -0.104185,0.307658 -0.0278087,-0.0144919 -0.0607092,-0.0287879 -0.0992889,-0.0432798 0.0348588,-0.0685426 0.0730468,-0.167244 0.114956,-0.296887zm0.417327 0c0.0207586,-0.0180169 0.0432798,-0.0360338 0.0677593,-0.0538549 0.034663,0.046609 0.0714802,0.0971347 0.109472,0.15099 -0.0278087,0.014296 -0.0571841,0.0340755 -0.0887137,0.0595342 -0.0278087,-0.0575758 -0.0571841,-0.109864 -0.0885179,-0.156669zm0.344084 0.00528757c0.0211503,-0.0180169 0.0436714,-0.039363 0.0679551,-0.0648217 0.0834262,0.0900846 0.15471,0.169398 0.213853,0.237549 -0.0278087,0.021542 -0.0556174,0.0470006 -0.0834262,0.0757885 -0.0556174,-0.0900846 -0.121614,-0.172727 -0.198382,-0.248516zm-0.568316 -0.0160586l0.103989 0c-0.00332921,0.0646259 -0.00509174,0.115935 -0.00509174,0.153731 0,0.0377964 0.00097918,0.0675634 0.0027417,0.0891054 0.00195836,0.0217378 0.0184086,0.0323129 0.0493507,0.0323129l0.266337 0c0.0242837,0 0.0442589,-0.00900846 0.05973,-0.0270254 0.0160586,-0.0178211 0.0270254,-0.0575758 0.0340755,-0.118481 0.034663,0.0178211 0.0730468,0.0340755 0.11476,0.0485673 -0.0244795,0.0826428 -0.0503299,0.133169 -0.0781386,0.15099 -0.0278087,0.0180169 -0.0659967,0.0270254 -0.114956,0.0270254l-0.323521 0c-0.0556174,-0.00372088 -0.0877345,-0.0217378 -0.0963513,-0.0538549 -0.00881262,-0.0325088 -0.0121418,-0.0720677 -0.0105751,-0.118872 0.00176252,-0.0468048 0.000783344,-0.108101 -0.00235003,-0.183498z"/>
  <path class="fil15" d="M14.5316 27.9718l0 0.242641 0.224036 0 0 -0.242641 -0.224036 0zm-0.161956 -0.404989c0.048959,0.00352505 0.125335,0.00528757 0.22952,0.00528757l0 -0.12416c0,-0.046609 -0.00176252,-0.0934138 -0.00509174,-0.140219l0.109472 0c-0.00685426,0.0468048 -0.0103793,0.0953721 -0.0103793,0.145898l0 0.118481c0.104185,0 0.182519,-0.00176252 0.234612,-0.00528757l0 0.0973305c-0.0520924,-0.00372088 -0.130427,-0.00567925 -0.234612,-0.00567925l0 0.226974 0.161761 0c-0.00352505,0.060905 -0.00548341,0.140219 -0.00548341,0.237353 0,0.0971347 0.00195836,0.178015 0.00548341,0.243033l-0.0992889 0 0 -0.0650176 -0.224036 0 0 0.113585 -0.0994847 0c0.00372088,-0.0683468 0.00548341,-0.157452 0.00548341,-0.267316 0,-0.109668 -0.00176252,-0.197011 -0.00548341,-0.261637l0.167048 0 0 -0.226974c-0.104185,0 -0.180561,0.00195836 -0.22952,0.00567925l0 -0.0973305zm0.730273 -0.27515c0.0383839,0.0180169 0.0783344,0.0340755 0.120047,0.0483715 -0.0139044,0.0182128 -0.0285921,0.0495465 -0.0442589,0.0945888 -0.0156669,0.0450423 -0.0321171,0.0908679 -0.0497424,0.137477l0.240291 0c0.0695218,0 0.130427,-0.00176252 0.182323,-0.00528757l0 0.0916513c-0.0450423,-0.00332921 -0.0920429,-0.00528757 -0.140806,-0.00528757 -0.00685426,0.0826428 -0.0209545,0.180757 -0.0415172,0.294146 -0.0209545,0.113389 -0.0556174,0.216986 -0.104576,0.3104 0.048959,0.0505257 0.0992889,0.0873429 0.151381,0.110647 0.0520924,0.0235003 0.101051,0.0385797 0.14629,0.0460215 -0.0315296,0.0323129 -0.0558133,0.0718718 -0.0730468,0.118677 -0.0593383,-0.0287879 -0.111431,-0.058555 -0.156669,-0.0893012 -0.045434,-0.0303546 -0.0887137,-0.0656051 -0.130427,-0.105164 -0.0487632,0.0432798 -0.103401,0.0828386 -0.164502,0.118872 -0.0607092,0.035838 -0.120831,0.0665843 -0.179777,0.0916513 -0.0174294,-0.0360338 -0.0436714,-0.0718718 -0.0783344,-0.10771 0.0593383,-0.0109668 0.12181,-0.0325088 0.187807,-0.0650176 0.0661926,-0.0323129 0.12181,-0.0736343 0.166852,-0.12416 -0.038188,-0.0755927 -0.0659967,-0.146485 -0.0834262,-0.21307 -0.0172336,-0.0665843 -0.0313338,-0.130623 -0.0417131,-0.191528 -0.0207586,0.0430839 -0.0417131,0.0844053 -0.0624717,0.12416 -0.0211503,-0.0397547 -0.0436714,-0.0720677 -0.0679551,-0.0973305 0.0348588,-0.0395589 0.0746135,-0.115935 0.120047,-0.229324 0.0452381,-0.113193 0.0799011,-0.231282 0.104185,-0.353484zm-0.00509174 0.366801c-0.0172336,0.0468048 -0.0330963,0.0863637 -0.0470006,0.118872l0.0366213 -0.010771c0.0137085,0.0863637 0.0303546,0.163719 0.0495465,0.232066 0.0191919,0.0685426 0.0409297,0.126118 0.0652134,0.172727 0.0313338,-0.0575758 0.0562049,-0.133952 0.0755927,-0.229324 0.0191919,-0.0953721 0.0305504,-0.189765 0.0340755,-0.283571l-0.214049 0z"/>
  <path id="1" class="fil15" d="M15.8754 27.4104l0.380705 0c-0.0137085,0.0287879 -0.0329005,0.0828386 -0.05738,0.161761 -0.0242837,0.0793136 -0.0487632,0.152948 -0.0730468,0.221295 0.0624717,0.0830345 0.100072,0.145898 0.11241,0.189178 0.011946,0.0430839 0.0172336,0.0863637 0.015471,0.129448 -0.00195836,0.0432798 -0.021542,0.0763761 -0.0599258,0.0998764 -0.0383839,0.0233045 -0.0834262,0.0403422 -0.13591,0.0511132 -0.00313338,-0.035838 -0.015471,-0.0736343 -0.0364255,-0.113193 0.0661926,0.00372088 0.108101,-0.00450423 0.125335,-0.0242837 0.0174294,-0.0197794 0.021542,-0.0485673 0.0129252,-0.0863637 -0.00861679,-0.0377964 -0.0242837,-0.0748094 -0.0470006,-0.110647 -0.0223253,-0.0360338 -0.0511132,-0.0755927 -0.0857762,-0.118677 0.0172336,-0.0470006 0.0356422,-0.0981139 0.0546383,-0.153927 0.0191919,-0.0558133 0.0338796,-0.112606 0.0442589,-0.170182l-0.151381 0 0 1.04204 -0.0988972 0c0.00352505,-0.0755927 0.00528757,-0.172727 0.00528757,-0.2916l0 -0.609833c0,-0.0755927 -0.00176252,-0.14766 -0.00528757,-0.216007zm0.547753 0.636859l0 0.0755927 0.380705 0 0 -0.0755927 -0.380705 0zm0.250278 -0.636859c-0.038188,0.010771 -0.0710885,0.021542 -0.0988972,0.0323129 -0.0105751,-0.0395589 -0.0246753,-0.0773552 -0.0419089,-0.113193 0.0313338,-0.010771 0.0624717,-0.0217378 0.0940013,-0.0325088 0.0139044,0.035838 0.0295712,0.0736343 0.0468048,0.113389zm-0.171944 0.140414c0.0101835,0.035838 0.0225211,0.0718718 0.0364255,0.10771l0.140806 0c0.0070501,-0.0213461 0.0121418,-0.0430839 0.0158627,-0.0646259 0.00313338,-0.0217378 0.00685426,-0.0430839 0.0103793,-0.0648217l-0.198382 0c-0.0730468,0 -0.137477,0.00195836 -0.193094,0.00528757l0 -0.0863637c0.0556174,0.00372088 0.118285,0.00567925 0.188003,0.00567925l0.255566 0c0.0659967,0 0.128664,-0.00195836 0.187807,-0.00567925l0 0.0863637c-0.0591425,-0.00332921 -0.12181,-0.00528757 -0.187807,-0.00528757l-0.0417131 0c0.0242837,0.0109668 0.0556174,0.0233045 0.0936096,0.0377964 -0.0172336,0.0287879 -0.0329005,0.0595342 -0.0468048,0.0916513l0.0732427 0c0.0589466,0 0.114564,-0.00176252 0.166852,-0.00528757l0 0.0863637c-0.0522882,-0.00372088 -0.107906,-0.00548341 -0.166852,-0.00548341l-0.407143 0c-0.0591425,0 -0.118089,0.00176252 -0.177232,0.00548341l0 -0.0863637c0.038188,0.00352505 0.0818595,0.00528757 0.130427,0.00528757l0.0571841 0c-0.00685426,-0.0321171 -0.015471,-0.060905 -0.0258504,-0.0863637 0.0278087,-0.00332921 0.0571841,-0.010771 0.0887137,-0.0213461zm-0.177427 0.269666l0.578891 0c-0.00332921,0.0540507 -0.00509174,0.0971347 -0.00509174,0.129643l0 0.108101c0,0.046609 0.00176252,0.0934138 0.00509174,0.140219l-0.244991 0 0 0.0971347 0.177427 0c0.0520924,0 0.10771,-0.00176252 0.166852,-0.00548341l0 0.0863637c-0.0487632,-0.00352505 -0.104381,-0.00528757 -0.166852,-0.00528757l-0.177427 0c0,0.0720677 0.00176252,0.129643 0.00509174,0.172727l-0.104381 0c0.00352505,-0.0430839 0.00528757,-0.10066 0.00528757,-0.172727l-0.135714 0c-0.0730468,0 -0.14061,0.00176252 -0.203474,0.00528757l0 -0.0863637c0.0591425,0.00372088 0.127098,0.00548341 0.203474,0.00548341l0.135714 0 0 -0.0971347 -0.239899 0c0.00332921,-0.0360338 0.00509174,-0.0846012 0.00509174,-0.145898l0 -0.102422c0,-0.0468048 -0.00176252,-0.0900846 -0.00509174,-0.129643zm0.099093 0.0757885l0 0.0755927 0.380705 0 0 -0.0755927 -0.380705 0z"/>
  <path class="fil16" d="M1.65795 17.6877c0.0763761,-0.0436714 0.144135,-0.109277 0.203278,-0.196815 0.144135,0.113977 0.2963,0.253999 0.457473,0.420656 -0.0851887,0.0701093 -0.152948,0.140219 -0.203278,0.210328 -0.135519,-0.175665 -0.288466,-0.320192 -0.457473,-0.434168zm-0.139827 0.867554c0.0595342,-0.0701093 0.11006,-0.14864 0.15236,-0.23657 0.186436,0.10536 0.364059,0.214636 0.533653,0.328613 -0.0595342,0.0701093 -0.109864,0.149031 -0.152165,0.23657 -0.152948,-0.140219 -0.330571,-0.249495 -0.533849,-0.328613zm0.495269 0.538941c0.0763761,0.0791178 0.156669,0.144723 0.241858,0.197403 -0.0511132,0.0785303 -0.110647,0.220903 -0.178407,0.426727 -0.0675634,0.206411 -0.131014,0.418893 -0.190353,0.637642 -0.0844053,-0.0785303 -0.190744,-0.135714 -0.31745,-0.171161 0.0763761,-0.0957638 0.15236,-0.233828 0.228736,-0.413802 0.0759844,-0.179386 0.148052,-0.404793 0.215615,-0.676809zm0.432014 -1.43274c0.0677593,-0.0348588 0.139827,-0.0830345 0.216203,-0.144135 0.101443,0.140219 0.206999,0.3151 0.317059,0.525428 -0.0844053,0.0436714 -0.16039,0.0920429 -0.228149,0.144723 -0.0763761,-0.184086 -0.178211,-0.359555 -0.305113,-0.526016zm0.114368 0.69698l0.686209 0c0,-0.508586 -0.00450423,-0.832695 -0.013121,-0.972913l0.266729 0c-0.00822511,0.140219 -0.0125335,0.464327 -0.0125335,0.972913l0.698547 0c-0.00842095,0.210328 -0.0123377,0.380705 -0.0123377,0.512503l0 1.23553c0,0.0611008 -0.0233045,0.113781 -0.0699135,0.157452 -0.046609,0.0438673 -0.158823,0.083622 -0.336642,0.118285 -0.00861679,-0.0789219 -0.0552258,-0.174882 -0.139827,-0.28925 0.118677,0.00900846 0.198969,0.00900846 0.241074,0 0.0424964,-0.00842095 0.0634509,-0.0436714 0.0634509,-0.104968l0 -0.302175 -1.11744 0 0 0.670151 -0.254195 0c0.00881262,-0.236766 0.0125335,-0.442394 0.0125335,-0.617471l0 -0.88087c0,-0.201319 -0.00372088,-0.367976 -0.0125335,-0.499186zm0.254195 0.210328l0 0.341538 1.11744 0 0 -0.341538 -1.11744 0zm0 0.551866l0 0.354855 1.11744 0 0 -0.354855 -1.11744 0zm1.24493 -1.59038c0.0846012,0.0526799 0.177819,0.100856 0.279066,0.144527 -0.0589466,0.0348588 -0.124748,0.103206 -0.196619,0.203669 -0.0720677,0.100856 -0.137673,0.207978 -0.196815,0.321954 -0.0677593,-0.0522882 -0.139827,-0.0959597 -0.216203,-0.131406 0.11006,-0.140023 0.220511,-0.319604 0.330571,-0.538745z"/>
  <path id="1" class="fil16" d="M5.65398 18.6079c0.127293,-0.271429 0.237549,-0.547753 0.330571,-0.828191l-0.533653 0 0 2.54979 -0.241466 0c0.00881262,-0.18389 0.013121,-0.358772 0.013121,-0.525428l0 -1.64306c0,-0.18389 -0.00430839,-0.381293 -0.013121,-0.591621l1.09277 0c-0.0677593,0.158236 -0.133364,0.322542 -0.197207,0.492919 -0.0634509,0.170965 -0.129056,0.34428 -0.196815,0.519357 0.11006,0.140219 0.190744,0.269666 0.24127,0.387951 0.0509174,0.117893 0.0761802,0.236178 0.0761802,0.354463 0,0.118285 -0.0464131,0.212482 -0.139631,0.282591 -0.093218,0.0701093 -0.224428,0.122789 -0.393435,0.157648 -0.0256545,-0.0959597 -0.0677593,-0.192311 -0.127489,-0.288858 0.160977,0 0.273191,-0.0150794 0.336642,-0.0460215 0.0638425,-0.0307463 0.0910638,-0.0963513 0.0828386,-0.197403 -0.00861679,-0.100268 -0.0421047,-0.201319 -0.101835,-0.302175 -0.0589466,-0.100464 -0.135519,-0.207978 -0.228736,-0.321954zm2.14695 0.0526799c-0.0168419,0.131406 -0.0338796,0.284941 -0.0505257,0.460019l-0.0889096 0.761998c-0.0254587,0.210328 -0.0910638,0.330963 -0.197207,0.361709 -0.105751,0.0307463 -0.273387,0.0634509 -0.501928,0.0987014 -0.025067,-0.10536 -0.0591425,-0.210328 -0.101247,-0.315688 0.177623,0.00900846 0.313142,0.00665843 0.40636,-0.00626675 0.093218,-0.0133169 0.148052,-0.0857762 0.165481,-0.216986l0.101247 -0.933159 -0.647826 0c-0.0252628,0.184086 -0.0552258,0.346042 -0.0889096,0.486261 -0.0340755,0.140219 -0.0910638,0.293362 -0.171552,0.459823 -0.0802928,0.166461 -0.213657,0.363863 -0.400289,0.591621 -0.0930221,-0.0791178 -0.186436,-0.135714 -0.279458,-0.170965 0.178211,-0.14864 0.317646,-0.306875 0.419481,-0.473336 0.101443,-0.166069 0.171161,-0.343692 0.209545,-0.532282 0.038188,-0.188394 0.0634509,-0.374439 0.0759844,-0.558524 0.013121,-0.18389 0.0191919,-0.350351 0.0191919,-0.49899 -0.143744,0 -0.279262,0.00391672 -0.406556,0.0129252l0 -0.223253c0.160781,0.00842095 0.291992,0.0129252 0.394022,0.0129252l0.978201 0c0.101443,0 0.22012,-0.00450423 0.355638,-0.0129252l0 0.236178c-0.126902,-0.00842095 -0.245578,-0.0129252 -0.355638,-0.0129252l-0.724006 0 -0.013121 0.47314 0.902021 0zm-0.495465 -0.893796c-0.0423006,0.0174294 -0.126706,0.0571841 -0.253804,0.118285 -0.0509174,-0.140219 -0.114368,-0.271429 -0.190548,-0.394218 0.0844053,-0.0352505 0.169006,-0.0746135 0.253999,-0.118285 0.0757885,0.166461 0.139827,0.297867 0.190353,0.394218z"/>
  <path id="12" class="fil16" d="M9.44713 18.7392c0.0846012,-0.034663 0.165286,-0.0701093 0.24127,-0.104772 0.144135,0.36778 0.254195,0.670151 0.330571,0.906721 -0.0763761,0.0354463 -0.160781,0.0701093 -0.254195,0.105556 -0.0930221,-0.324696 -0.198969,-0.627067 -0.317646,-0.907504zm0.622171 -0.328613c0.0851887,-0.0172336 0.16979,-0.0391672 0.254195,-0.0656051 0.0846012,0.280437 0.161173,0.578304 0.228932,0.893992 -0.0846012,0.026242 -0.16979,0.0526799 -0.254195,0.0791178 -0.0677593,-0.315884 -0.143744,-0.618059 -0.228932,-0.907504zm0.927479 -0.0256545c0.118677,0.0611008 0.237353,0.104772 0.355442,0.13121 -0.0844053,0.18389 -0.162544,0.36778 -0.234612,0.55167 -0.0722635,0.184086 -0.196815,0.499774 -0.375026,0.946671l0.317646 0c0.127293,0 0.262812,-0.00450423 0.40636,-0.0135127l0 0.263008c-0.143548,-0.00900846 -0.279066,-0.0129252 -0.40636,-0.0129252l-1.33384 0c-0.143744,0 -0.313338,0.00391672 -0.507803,0.0129252l0 -0.263008c0.186436,0.00900846 0.355442,0.0135127 0.507803,0.0135127l0.749465 0c0.118677,-0.263008 0.224232,-0.543445 0.317646,-0.841116 0.0930221,-0.297867 0.160781,-0.560874 0.203278,-0.788436zm-0.99093 -0.933746c0.102031,-0.0174294 0.203278,-0.039363 0.305113,-0.0656051 0.0336838,0.131798 0.0677593,0.272016 0.101443,0.420656l0.457473 0c0.169202,0 0.355638,-0.00450423 0.558916,-0.0129252l0 0.23657c-0.203278,-0.00900846 -0.389714,-0.0135127 -0.558916,-0.0135127l-1.63895 0c0,0.499774 -0.00802928,0.856978 -0.0248712,1.07122 -0.0174294,0.214636 -0.0509174,0.433973 -0.102031,0.657226 -0.0509174,0.223645 -0.135323,0.440044 -0.254195,0.650371 -0.0757885,-0.0785303 -0.147856,-0.14864 -0.215615,-0.210328 0.101247,-0.13121 0.182128,-0.33018 0.24127,-0.597692 0.0595342,-0.266925 0.093218,-0.549516 0.101835,-0.84797 0.00802928,-0.297671 0.00372088,-0.608854 -0.0129252,-0.932963l1.14349 0c-0.0254587,-0.113977 -0.0595342,-0.232262 -0.102031,-0.355051z"/>
  <path id="123" class="fil16" d="M13.2146 17.3334c0.093218,0.0611008 0.195053,0.109277 0.305113,0.143939 -0.0844053,0.0701093 -0.152165,0.144723 -0.203278,0.223841l1.21947 0c-0.0509174,0.0526799 -0.107906,0.122789 -0.171748,0.210328 -0.0634509,0.0875387 -0.133364,0.18389 -0.209349,0.288858l0.622367 0c-0.00822511,0.140023 -0.0125335,0.324696 -0.0125335,0.552258 0,0.227757 0.00430839,0.420656 0.0125335,0.578108l-1.63856 0c-0.143939,0 -0.305113,0.00900846 -0.482736,0.0264379l0 -0.23657c0.177623,0.00881262 0.338796,0.0127293 0.482736,0.0127293l1.38436 0 0 -0.26242 -1.39729 0c-0.118285,0 -0.262224,0.00450423 -0.432014,0.0129252l0 -0.223253c0.16979,0.00842095 0.313729,0.0129252 0.432014,0.0129252l1.39729 0 0 -0.275737 -1.18109 0c-0.211895,0 -0.385405,0.00430839 -0.520924,0.0127293l0 -0.13121c-0.109864,0.105556 -0.207586,0.197403 -0.291992,0.275933 -0.0677593,-0.0701093 -0.13121,-0.126706 -0.190744,-0.170377 0.152165,-0.105556 0.309421,-0.254587 0.469811,-0.447094 0.160977,-0.192898 0.296496,-0.394218 0.406556,-0.60435zm-0.0503299 0.564595c-0.0851887,0.10536 -0.177819,0.206411 -0.27985,0.302371l0.978397 0c0.0930221,-0.104968 0.169006,-0.205824 0.228541,-0.302371l-0.927088 0zm-0.584375 1.64306c0.0677593,0.0354463 0.139239,0.0611008 0.215811,0.0791178 -0.0846012,0.253999 -0.16979,0.503494 -0.254195,0.749269 -0.0677593,-0.0354463 -0.148052,-0.0701093 -0.24127,-0.105556 0.0846012,-0.166461 0.177819,-0.407143 0.279654,-0.722831zm1.01619 0c0.0503299,-0.0436714 0.105556,-0.0875387 0.164894,-0.13121 0.0844053,0.113781 0.173902,0.236766 0.266533,0.367976 -0.0677593,0.034663 -0.139435,0.0828386 -0.215615,0.144527 -0.0677593,-0.140219 -0.139827,-0.267512 -0.215811,-0.381293zm0.837982 0.0129252c0.0509174,-0.0436714 0.106143,-0.0959597 0.16509,-0.157648 0.203474,0.219336 0.376789,0.412235 0.520924,0.578304 -0.0677593,0.0526799 -0.135519,0.114368 -0.203278,0.184478 -0.135519,-0.219336 -0.2963,-0.420656 -0.482736,-0.605133zm-1.38417 -0.0391672l0.253608 0c-0.00822511,0.157452 -0.0125335,0.282591 -0.0125335,0.374439 0,0.0920429 0.0021542,0.164306 0.00646259,0.217182 0.00430839,0.0526799 0.0444548,0.0783344 0.120439,0.0783344l0.648217 0c0.0589466,0 0.107906,-0.0217378 0.145702,-0.0656051 0.0383839,-0.0436714 0.0654092,-0.140023 0.0828386,-0.288662 0.0846012,0.0436714 0.177819,0.0830345 0.279262,0.118285 -0.0591425,0.201319 -0.122398,0.324109 -0.190157,0.36778 -0.0677593,0.0438673 -0.161173,0.0656051 -0.27985,0.0656051l-0.787457 0c-0.135323,-0.00881262 -0.214049,-0.0526799 -0.235199,-0.13121 -0.0211503,-0.0789219 -0.0293754,-0.175469 -0.0254587,-0.28925 0.00430839,-0.113781 0.0021542,-0.263008 -0.00587508,-0.446898z"/>
  <path id="1234" class="fil16" d="M16.284 17.7798l0 0.618059 0.418893 0 0 -0.618059 -0.418893 0zm0 0.815265l0 0.591229 0.418893 0 0 -0.591229 -0.418893 0zm-0.266729 -1.01208l0.939621 0c-0.00842095,0.288858 -0.0121418,0.602196 -0.0121418,0.939817 0,0.337034 0.00372088,0.624129 0.0121418,0.860895l-0.939621 0c0.00802928,-0.227757 0.0125335,-0.512699 0.0125335,-0.854628 0,-0.341538 -0.00450423,-0.657226 -0.0125335,-0.946084zm1.49854 1.32738l0 0.42046 0.74966 0 0 -0.42046 -0.74966 0zm1.01639 -1.38006c-0.0168419,0.10536 -0.0315296,0.265162 -0.0446506,0.479994 -0.0123377,0.214245 -0.0313338,0.356617 -0.0569883,0.426727 -0.0252628,0.0701093 -0.0720677,0.118285 -0.139631,0.144723 -0.0677593,0.026242 -0.169202,0.0526799 -0.304721,0.0789219 -0.00861679,-0.0789219 -0.046609,-0.166461 -0.114368,-0.262812 0.135519,0 0.226582,-0.00450423 0.272604,-0.0129252 0.0468048,-0.00900846 0.0744177,-0.0483715 0.0830345,-0.118481l0.0379922 -0.538745 -0.432014 0c-0.0423006,0.244991 -0.116522,0.446898 -0.222078,0.60435 -0.105947,0.157648 -0.231087,0.288858 -0.374634,0.394414 -0.093218,-0.0791178 -0.165286,-0.140219 -0.216203,-0.184086 0.152752,-0.0789219 0.2775,-0.186044 0.375026,-0.321759 0.0971347,-0.136302 0.158823,-0.300608 0.184282,-0.492919 -0.152948,0 -0.301,0.00391672 -0.444939,0.0127293l0 -0.223057c0.127293,0.00842095 0.254195,0.0129252 0.380901,0.0129252l1.01639 0zm-2.36257 2.1164c0.0763761,0.0436714 0.156473,0.0783344 0.241074,0.104772 -0.118089,0.297867 -0.207586,0.512503 -0.266729,0.643713 -0.0844053,-0.0436714 -0.177623,-0.0830345 -0.279458,-0.117697 0.0930221,-0.10536 0.195053,-0.315688 0.305113,-0.630788zm0.546187 0.117697c0.0759844,-0.0174294 0.156669,-0.039363 0.241074,-0.0656051 0.0934138,0.306679 0.15236,0.508586 0.178015,0.604546 -0.101443,0.00881262 -0.186436,0.026242 -0.254195,0.0526799 -0.0168419,-0.0875387 -0.0714802,-0.284941 -0.164894,-0.591621zm1.01619 -0.0656051c0.0846012,0.280437 0.143744,0.473336 0.178015,0.578695 -0.0765719,0.0174294 -0.161173,0.0391672 -0.254195,0.0656051 -0.0256545,-0.0791178 -0.0846012,-0.267512 -0.178015,-0.565183 0.0677593,-0.0174294 0.15236,-0.0438673 0.254195,-0.0791178zm0.977809 0.565183c-0.101247,0.0354463 -0.185848,0.0701093 -0.253608,0.105556 -0.0423006,-0.114564 -0.13121,-0.320192 -0.266729,-0.618059 0.0591425,-0.0174294 0.135519,-0.0436714 0.228345,-0.0791178 0.143939,0.280437 0.241662,0.47784 0.291992,0.591621zm-1.43528 -1.55102l1.24513 0c-0.00881262,0.114368 -0.013121,0.245578 -0.013121,0.394805 0,0.14864 0.00430839,0.288662 0.013121,0.42046l-1.24513 0c0.00881262,-0.140219 0.0125335,-0.278087 0.0125335,-0.414389 0,-0.135714 -0.00372088,-0.269079 -0.0125335,-0.400876z"/>
  <path id="12345" class="fil16" d="M19.8611 17.9116l0 0.551866 0.431818 0 0 -0.551866 -0.431818 0zm0 0.761998l0 0.604546 0.431818 0 0 -0.604546 -0.431818 0zm1.27039 -0.893796l0 0.526016 0.685426 0 0 -0.526016 -0.685426 0zm0 0.736343c0,0.0789219 -0.0021542,0.159802 -0.00646259,0.243228 -0.00430839,0.0830345 -0.00665843,0.172727 -0.00665843,0.269275l0.698547 0 0 -0.512503 -0.685426 0zm-1.51166 -0.814874l0.914163 0c-0.00842095,0.174882 -0.0121418,0.358967 -0.0121418,0.551866l0 0.893796c0,0.192898 0.00372088,0.381293 0.0121418,0.565379l-0.241074 0 0 -0.223841 -0.431818 0 0 0.460411 -0.24127 0c0.00822511,-0.210328 0.0125335,-0.429468 0.0125335,-0.657226l0 -1.05144c0,-0.192898 -0.00430839,-0.37248 -0.0125335,-0.538941zm1.25746 -0.131798l1.18148 0c-0.00861679,0.158236 -0.0129252,0.342126 -0.0129252,0.552453l0 1.77427c0.0252628,0.244991 -0.110256,0.381293 -0.406556,0.407143 -0.0168419,-0.0959597 -0.0591425,-0.196815 -0.126902,-0.302371 0.0759844,0.00900846 0.148052,0.00685426 0.215811,-0.00607092 0.0677593,-0.0135127 0.0975263,-0.0679551 0.0887137,-0.164306l0 -0.591621 -0.711081 0c-0.0252628,0.42046 -0.152165,0.801949 -0.380901,1.14329 -0.093218,-0.0611008 -0.177819,-0.113781 -0.254195,-0.157452 0.296496,-0.306875 0.436323,-0.828386 0.418893,-1.56414l0 -0.52582c0,-0.201319 -0.00372088,-0.38991 -0.0123377,-0.565379z"/>
  <path id="123456" class="fil16" d="M23.1329 18.1348c0.0677593,0.0172336 0.152752,0.0307463 0.254195,0.0397547 -0.0256545,0.0520924 -0.048959,0.159802 -0.0701093,0.321759 -0.0209545,0.162152 -0.0442589,0.33488 -0.0699135,0.519357 -0.0677593,-0.0180169 -0.143548,-0.0307463 -0.228541,-0.0397547 0.0340755,-0.140219 0.0595342,-0.278283 0.0761802,-0.413802 0.0168419,-0.135714 0.0299629,-0.278283 0.038188,-0.427314zm1.05458 -0.0264379c0.0589466,0.0881262 0.126706,0.161956 0.203278,0.223645 -0.05973,0.0264379 -0.141981,0.0769636 -0.247733,0.15099 -0.106143,0.0746135 -0.218553,0.151381 -0.336642,0.229912 -0.0172336,0.149031 -0.0340755,0.293754 -0.0509174,0.433973 0.11006,0.0791178 0.224624,0.168811 0.343301,0.269275 0.118089,0.100856 0.245383,0.230499 0.380901,0.387951 -0.0846012,0.0611008 -0.160977,0.13121 -0.228736,0.210328 -0.0763761,-0.113781 -0.150206,-0.216986 -0.222274,-0.309029 -0.0720677,-0.0918471 -0.179777,-0.195053 -0.324109,-0.309029 -0.0421047,0.140219 -0.0975263,0.282787 -0.165286,0.427314 -0.0675634,0.144723 -0.169006,0.313533 -0.304525,0.505844 -0.0765719,-0.0611008 -0.160977,-0.113781 -0.254195,-0.157452 0.135519,-0.122789 0.249691,-0.278283 0.343105,-0.466677 0.0930221,-0.188394 0.158823,-0.394218 0.196619,-0.617863 0.0385797,-0.223253 0.0618842,-0.466677 0.0701093,-0.729098 0.00842095,-0.263008 0.00842095,-0.574191 0,-0.933159 0.0930221,0.0258504 0.190744,0.039363 0.291992,0.039363 -0.033488,0.113781 -0.0526799,0.249495 -0.0569883,0.407143 -0.00411256,0.15804 -0.00646259,0.350351 -0.00646259,0.578695 0.135519,-0.0881262 0.258504,-0.201907 0.368563,-0.342126zm0.419089 -0.196815c-0.0677593,0 -0.190353,0.00450423 -0.368563,0.0129252l0 -0.249691c0.186436,0.00900846 0.313729,0.0129252 0.381293,0.0129252l0.902021 0c0.0757885,0 0.206999,-0.00391672 0.393435,-0.0129252l0 0.249691c-0.177623,-0.00842095 -0.304525,-0.0129252 -0.380901,-0.0129252l-0.228736 0 0 2.08937c0,0.175665 -0.0424964,0.278283 -0.126902,0.309029 -0.0846012,0.0309421 -0.216203,0.0595342 -0.394022,0.0851887 -0.0168419,-0.104772 -0.046609,-0.210328 -0.0889096,-0.3151 0.160977,0.00900846 0.262812,0.00900846 0.305113,0 0.0423006,-0.00900846 0.0636467,-0.0701093 0.0636467,-0.18389l0 -1.9846 -0.457473 0z"/>
  <path id="1234567" class="fil16" d="M27.5359 19.6332c0.0677593,0.0963513 0.140023,0.179386 0.215811,0.249495 -0.093218,0.0442589 -0.217966,0.118285 -0.374634,0.223841 -0.156669,0.104772 -0.349567,0.214636 -0.578304,0.328613 -0.0503299,-0.0875387 -0.105556,-0.171161 -0.164698,-0.250278 0.347021,-0.13121 0.64763,-0.3151 0.901825,-0.55167zm0.698743 0.23657c0.0677593,-0.0791178 0.126706,-0.157452 0.177623,-0.23657 0.101835,0.0526799 0.243424,0.127293 0.425552,0.223645 0.182128,0.0959597 0.353876,0.192507 0.514265,0.288858 -0.0844053,0.0701093 -0.152165,0.149227 -0.203082,0.23657 -0.169202,-0.13121 -0.474315,-0.302175 -0.914358,-0.512503zm-0.889487 -0.749073l0 0.263008 1.32131 0 0 -0.263008 -1.32131 0zm-0.279066 -1.61682l1.87963 0c-0.0168419,0.10536 -0.025067,0.250083 -0.025067,0.433973l0 1.44586 0.203278 0c0.126902,0 0.249299,-0.00900846 0.367976,-0.0264379l0 0.249495c-0.101247,-0.0174294 -0.219924,-0.026242 -0.355442,-0.026242l-2.15929 0c-0.186436,0 -0.330571,0.00881262 -0.432014,0.026242l0 -0.249495c0.101443,0.00900846 0.236962,0.0174294 0.406556,0.0264379l0.139827 0 0 -1.41942c-0.00861679,-0.184478 -0.0174294,-0.337621 -0.0254587,-0.460411zm0.279066 0.197403l0 0.275933 1.32131 0 0 -0.275933 -1.32131 0zm0 0.473336l0 0.275933 1.32131 0 0 -0.275933 -1.32131 0zm0 0.472748l0 0.275933 1.32131 0 0 -0.275933 -1.32131 0z"/>
 </g>
</svg>
