<?xml version="1.0" encoding="UTF-8"?>
<!DOCTYPE svg PUBLIC "-//W3C//DTD SVG 1.1//EN" "http://www.w3.org/Graphics/SVG/1.1/DTD/svg11.dtd">
<!-- Creator: CorelDRAW -->
<svg xmlns="http://www.w3.org/2000/svg" xml:space="preserve" width="32px" height="32px" style="shape-rendering:geometricPrecision; text-rendering:geometricPrecision; image-rendering:optimizeQuality; fill-rule:evenodd; clip-rule:evenodd"
viewBox="0 0 32 32"
 xmlns:xlink="http://www.w3.org/1999/xlink">
 <defs>
  <style type="text/css">
   <![CDATA[
    .str0 {stroke:#1F1A17;stroke-width:0.15}
    .fil53 {fill:none}
    .fil0 {fill:#00923F}
    .fil58 {fill:#00A539}
    .fil2 {fill:#AAA9A9}
    .fil56 {fill:#DA251D}
    .fil57 {fill:#FFF500}
    .fil55 {fill:#B5FF01}
    .fil4 {fill:#C2C1C1}
    .fil6 {fill:#C3C2C2}
    .fil8 {fill:#C4C4C3}
    .fil10 {fill:#C5C5C4}
    .fil12 {fill:#C6C6C5}
    .fil14 {fill:#C7C7C6}
    .fil16 {fill:#C8C8C7}
    .fil18 {fill:#C9C9C8}
    .fil20 {fill:#CACAC9}
    .fil22 {fill:#CCCBCA}
    .fil24 {fill:#CDCCCC}
    .fil26 {fill:#CECDCD}
    .fil28 {fill:#CFCECE}
    .fil30 {fill:#D0CFCF}
    .fil32 {fill:#D1D0D0}
    .fil34 {fill:#D2D1D1}
    .fil36 {fill:#D3D2D2}
    .fil38 {fill:#D4D3D3}
    .fil40 {fill:#D5D4D4}
    .fil42 {fill:#D6D6D5}
    .fil44 {fill:#D8D7D7}
    .fil46 {fill:#D9D8D8}
    .fil48 {fill:#DADAD9}
    .fil50 {fill:#DBDBDB}
    .fil52 {fill:#DDDCDC}
    .fil51 {fill:#DFDFDF}
    .fil49 {fill:#E1E0E0}
    .fil47 {fill:#E2E1E1}
    .fil45 {fill:#E3E3E2}
    .fil43 {fill:#E4E4E4}
    .fil41 {fill:#E6E5E5}
    .fil39 {fill:#E7E6E6}
    .fil37 {fill:#E8E8E7}
    .fil35 {fill:#E9E9E9}
    .fil33 {fill:#EBEAEA}
    .fil31 {fill:#ECECEB}
    .fil29 {fill:#EDEDED}
    .fil27 {fill:#EFEEEE}
    .fil25 {fill:#F0F0F0}
    .fil23 {fill:#F1F1F1}
    .fil21 {fill:#F2F2F2}
    .fil19 {fill:#F4F4F3}
    .fil17 {fill:whitesmoke}
    .fil15 {fill:#F6F6F6}
    .fil13 {fill:#F8F8F7}
    .fil11 {fill:#F9F9F9}
    .fil9 {fill:#FAFAFA}
    .fil7 {fill:#FBFBFB}
    .fil5 {fill:#FDFDFD}
    .fil3 {fill:white}
    .fil54 {fill:url(#id2)}
    .fil1 {fill:url(#id3)}
   ]]>
  </style>
     <clipPath id="id0">
      <path d="M6.99902 2.03169c1.13228,0 2.05059,0.918307 2.05059,2.05059 0,1.13228 -0.918307,2.05059 -2.05059,2.05059 -1.13228,0 -2.05059,-0.918307 -2.05059,-2.05059 0,-1.13228 0.918307,-2.05059 2.05059,-2.05059zm0 0.644291c0.776575,0 1.4063,0.629724 1.4063,1.4063 0,0.776575 -0.629724,1.4063 -1.4063,1.4063 -0.776575,0 -1.4063,-0.629724 -1.4063,-1.4063 0,-0.776575 0.629724,-1.4063 1.4063,-1.4063z"/>
     </clipPath>
     <clipPath id="id1">
      <path d="M25.0094 2.02756c1.13228,0 2.05059,0.918307 2.05059,2.05059 0,1.13228 -0.918307,2.05059 -2.05059,2.05059 -1.13228,0 -2.05059,-0.918307 -2.05059,-2.05059 0,-1.13228 0.918307,-2.05059 2.05059,-2.05059zm0 0.644291c0.776575,0 1.4063,0.629724 1.4063,1.4063 0,0.776575 -0.629724,1.4063 -1.4063,1.4063 -0.776575,0 -1.4063,-0.629724 -1.4063,-1.4063 0,-0.776575 0.629724,-1.4063 1.4063,-1.4063z"/>
     </clipPath>
  <linearGradient id="id2" gradientUnits="userSpaceOnUse" x1="6.57028" y1="6.00295" x2="7.38898" y2="6.00295">
   <stop offset="0" style="stop-color:#C2C1C1"/>
   <stop offset="1" style="stop-color:white"/>
  </linearGradient>
  <linearGradient id="id3" gradientUnits="userSpaceOnUse" x1="-0" y1="15.9608" x2="32" y2="15.9608">
   <stop offset="0" style="stop-color:#DEDEDD"/>
   <stop offset="0.470588" style="stop-color:white"/>
   <stop offset="1" style="stop-color:#E5E5E5"/>
  </linearGradient>
 </defs>
 <g id="图层_x0020_1">
  <metadata id="CorelCorpID_0Corel-Layer"/>
  <g id="_78376816">
   <rect id="_78375784" class="fil0 str0" x="2.76457" y="9.09154" width="26.3965" height="13.7028"/>
   <polygon id="_78376576" class="fil1 str0" points="-0,7.01634 32,7.01634 32,24.9055 -0,24.9055 -0,22.7963 2.76417,22.7963 2.76417,22.7935 29.153,22.7935 29.153,22.7963 31.9941,22.7963 31.9941,9.08917 29.153,9.08917 29.153,9.08642 2.76417,9.08642 2.76417,9.08917 -0,9.08917 "/>
   <rect id="_78376504" class="fil2 str0" y="9.08921" width="2.76418" height="13.7071"/>
   <rect id="_78376432" class="fil2 str0" x="29.153" y="9.08921" width="2.84114" height="13.7071"/>
   <g>
    <g style="clip-path:url(#id0)">
     <polygon id="_78376360" class="fil3" points="6.99902,4.08228 9.90866,4.17539 9.90866,3.98917 "/>
     <polygon id="_783763601" class="fil4" points="6.99902,4.08228 4.08937,3.98917 4.08937,4.17539 "/>
     <polygon id="_7837636012" class="fil5" points="6.99902,4.08228 9.90866,3.98917 9.89665,3.80276 "/>
     <polygon id="_78376360123" class="fil6" points="6.99902,4.08228 4.08937,4.17539 4.10138,4.36181 "/>
     <polygon id="_783763601234" class="fil7" points="6.99902,4.08228 9.89665,3.80276 9.87283,3.61772 "/>
     <polygon id="_7837636012345" class="fil8" points="6.99902,4.08228 4.10138,4.36181 4.1252,4.54685 "/>
     <polygon id="_78376360123456" class="fil9" points="6.99902,4.08228 9.87283,3.61772 9.83701,3.43465 "/>
     <polygon id="_783763601234567" class="fil10" points="6.99902,4.08228 4.1252,4.54685 4.16102,4.72992 "/>
     <polygon id="_7837636012345678" class="fil11" points="6.99902,4.08228 9.83701,3.43465 9.78976,3.25413 "/>
     <polygon id="_78376360123456789" class="fil12" points="6.99902,4.08228 4.16102,4.72992 4.20827,4.91043 "/>
     <polygon id="_7837636012345678910" class="fil13" points="6.99902,4.08228 9.78976,3.25413 9.73091,3.07697 "/>
     <polygon id="_783763601234567891011" class="fil14" points="6.99902,4.08228 4.20827,4.91043 4.26713,5.0876 "/>
     <polygon id="_78376360123456789101112" class="fil15" points="6.99902,4.08228 9.73091,3.07697 9.66083,2.90394 "/>
     <polygon id="_7837636012345678910111213" class="fil16" points="6.99902,4.08228 4.26713,5.0876 4.3372,5.26063 "/>
     <polygon id="_783763601234567891011121314" class="fil17" points="6.99902,4.08228 9.66083,2.90394 9.57992,2.73583 "/>
     <polygon id="_78376360123456789101112131415" class="fil18" points="6.99902,4.08228 4.3372,5.26063 4.41811,5.42874 "/>
     <polygon id="_7837636012345678910111213141516" class="fil19" points="6.99902,4.08228 9.57992,2.73583 9.48839,2.57323 "/>
     <polygon id="_783763601234567891011121314151617" class="fil20" points="6.99902,4.08228 4.41811,5.42874 4.50965,5.59134 "/>
     <polygon id="_78376360123456789101112131415161718" class="fil21" points="6.99902,4.08228 9.48839,2.57323 9.38661,2.41693 "/>
     <polygon id="_7837636012345678910111213141516171819" class="fil22" points="6.99902,4.08228 4.50965,5.59134 4.61142,5.74764 "/>
     <polygon id="_783763601234567891011121314151617181920" class="fil23" points="6.99902,4.08228 9.38661,2.41693 9.275,2.26732 "/>
     <polygon id="_78376360123456789101112131415161718192021" class="fil24" points="6.99902,4.08228 4.61142,5.74764 4.72303,5.89724 "/>
     <polygon id="_7837636012345678910111213141516171819202122" class="fil25" points="6.99902,4.08228 9.275,2.26732 9.15394,2.1252 "/>
     <polygon id="_783763601234567891011121314151617181920212223" class="fil26" points="6.99902,4.08228 4.72303,5.89724 4.84409,6.03937 "/>
     <polygon id="_78376360123456789101112131415161718192021222324" class="fil27" points="6.99902,4.08228 9.15394,2.1252 9.02421,1.99114 "/>
     <polygon id="_7837636012345678910111213141516171819202122232425" class="fil28" points="6.99902,4.08228 4.84409,6.03937 4.97382,6.17343 "/>
     <polygon id="_783763601234567891011121314151617181920212223242526" class="fil29" points="6.99902,4.08228 9.02421,1.99114 8.88602,1.86575 "/>
     <polygon id="_78376360123456789101112131415161718192021222324252627" class="fil30" points="6.99902,4.08228 4.97382,6.17343 5.11201,6.29882 "/>
     <polygon id="_7837636012345678910111213141516171819202122232425262728" class="fil31" points="6.99902,4.08228 8.88602,1.86575 8.74016,1.74941 "/>
     <polygon id="_783763601234567891011121314151617181920212223242526272829" class="fil32" points="6.99902,4.08228 5.11201,6.29882 5.25787,6.41516 "/>
     <polygon id="_78376360123456789101112131415161718192021222324252627282930" class="fil33" points="6.99902,4.08228 8.74016,1.74941 8.58701,1.64252 "/>
     <polygon id="_7837636012345678910111213141516171819202122232425262728293031" class="fil34" points="6.99902,4.08228 5.25787,6.41516 5.41102,6.52205 "/>
     <polygon id="_783763601234567891011121314151617181920212223242526272829303132" class="fil35" points="6.99902,4.08228 8.58701,1.64252 8.42756,1.54587 "/>
     <polygon id="_78376360123456789101112131415161718192021222324252627282930313233" class="fil36" points="6.99902,4.08228 5.41102,6.52205 5.57047,6.6187 "/>
     <polygon id="_7837636012345678910111213141516171819202122232425262728293031323334" class="fil37" points="6.99902,4.08228 8.42756,1.54587 8.26201,1.45945 "/>
     <polygon id="_783763601234567891011121314151617181920212223242526272829303132333435" class="fil38" points="6.99902,4.08228 5.57047,6.6187 5.73602,6.70512 "/>
     <polygon id="_78376360123456789101112131415161718192021222324252627282930313233343536" class="fil39" points="6.99902,4.08228 8.26201,1.45945 8.09134,1.38406 "/>
     <polygon id="_7837636012345678910111213141516171819202122232425262728293031323334353637" class="fil40" points="6.99902,4.08228 5.73602,6.70512 5.90669,6.78051 "/>
     <polygon id="_783763601234567891011121314151617181920212223242526272829303132333435363738" class="fil41" points="6.99902,4.08228 8.09134,1.38406 7.91634,1.31949 "/>
     <polygon id="_78376360123456789101112131415161718192021222324252627282930313233343536373839" class="fil42" points="6.99902,4.08228 5.90669,6.78051 6.08169,6.84508 "/>
     <polygon id="_7837636012345678910111213141516171819202122232425262728293031323334353637383940" class="fil43" points="6.99902,4.08228 7.91634,1.31949 7.7374,1.26654 "/>
     <polygon id="_783763601234567891011121314151617181920212223242526272829303132333435363738394041" class="fil44" points="6.99902,4.08228 6.08169,6.84508 6.26063,6.89803 "/>
     <polygon id="_78376360123456789101112131415161718192021222324252627282930313233343536373839404142" class="fil45" points="6.99902,4.08228 7.7374,1.26654 7.55531,1.225 "/>
     <polygon id="_7837636012345678910111213141516171819202122232425262728293031323334353637383940414243" class="fil46" points="6.99902,4.08228 6.26063,6.89803 6.44272,6.93957 "/>
     <polygon id="_783763601234567891011121314151617181920212223242526272829303132333435363738394041424344" class="fil47" points="6.99902,4.08228 7.55531,1.225 7.37126,1.19508 "/>
     <polygon id="_78376360123456789101112131415161718192021222324252627282930313233343536373839404142434445" class="fil48" points="6.99902,4.08228 6.44272,6.93957 6.62677,6.96949 "/>
     <polygon id="_7837636012345678910111213141516171819202122232425262728293031323334353637383940414243444546" class="fil49" points="6.99902,4.08228 7.37126,1.19508 7.18543,1.17717 "/>
     <polygon id="_783763601234567891011121314151617181920212223242526272829303132333435363738394041424344454647" class="fil50" points="6.99902,4.08228 6.62677,6.96949 6.8126,6.9874 "/>
     <polygon id="_78376360123456789101112131415161718192021222324252627282930313233343536373839404142434445464748" class="fil51" points="6.99902,4.08228 7.18543,1.17717 6.99902,1.17126 "/>
     <polygon id="_7837636012345678910111213141516171819202122232425262728293031323334353637383940414243444546474849" class="fil52" points="6.99902,4.08228 6.8126,6.9874 6.99902,6.99331 "/>
     <polygon id="_783763601234567891011121314151617181920212223242526272829303132333435363738394041424344454647484950" class="fil52" points="6.99902,4.08228 6.99902,1.17126 6.8126,1.17717 "/>
     <polygon id="_78376360123456789101112131415161718192021222324252627282930313233343536373839404142434445464748495051" class="fil51" points="6.99902,4.08228 6.99902,6.99331 7.18543,6.9874 "/>
     <polygon id="_7837636012345678910111213141516171819202122232425262728293031323334353637383940414243444546474849505152" class="fil50" points="6.99902,4.08228 6.8126,1.17717 6.62677,1.19508 "/>
     <polygon id="_783763601234567891011121314151617181920212223242526272829303132333435363738394041424344454647484950515253" class="fil49" points="6.99902,4.08228 7.18543,6.9874 7.37126,6.96949 "/>
     <polygon id="_78376360123456789101112131415161718192021222324252627282930313233343536373839404142434445464748495051525354" class="fil48" points="6.99902,4.08228 6.62677,1.19508 6.44272,1.225 "/>
     <polygon id="_7837636012345678910111213141516171819202122232425262728293031323334353637383940414243444546474849505152535455" class="fil47" points="6.99902,4.08228 7.37126,6.96949 7.55531,6.93957 "/>
     <polygon id="_783763601234567891011121314151617181920212223242526272829303132333435363738394041424344454647484950515253545556" class="fil46" points="6.99902,4.08228 6.44272,1.225 6.26063,1.26654 "/>
     <polygon id="_78376360123456789101112131415161718192021222324252627282930313233343536373839404142434445464748495051525354555657" class="fil45" points="6.99902,4.08228 7.55531,6.93957 7.7374,6.89803 "/>
     <polygon id="_7837636012345678910111213141516171819202122232425262728293031323334353637383940414243444546474849505152535455565758" class="fil44" points="6.99902,4.08228 6.26063,1.26654 6.08169,1.31949 "/>
     <polygon id="_783763601234567891011121314151617181920212223242526272829303132333435363738394041424344454647484950515253545556575859" class="fil43" points="6.99902,4.08228 7.7374,6.89803 7.91634,6.84508 "/>
     <polygon id="_78376360123456789101112131415161718192021222324252627282930313233343536373839404142434445464748495051525354555657585960" class="fil42" points="6.99902,4.08228 6.08169,1.31949 5.90669,1.38406 "/>
     <polygon id="_7837636012345678910111213141516171819202122232425262728293031323334353637383940414243444546474849505152535455565758596061" class="fil41" points="6.99902,4.08228 7.91634,6.84508 8.09134,6.78051 "/>
     <polygon id="_783763601234567891011121314151617181920212223242526272829303132333435363738394041424344454647484950515253545556575859606162" class="fil40" points="6.99902,4.08228 5.90669,1.38406 5.73602,1.45945 "/>
     <polygon id="_78376360123456789101112131415161718192021222324252627282930313233343536373839404142434445464748495051525354555657585960616263" class="fil39" points="6.99902,4.08228 8.09134,6.78051 8.26201,6.70512 "/>
     <polygon id="_7837636012345678910111213141516171819202122232425262728293031323334353637383940414243444546474849505152535455565758596061626364" class="fil38" points="6.99902,4.08228 5.73602,1.45945 5.57047,1.54587 "/>
     <polygon id="_783763601234567891011121314151617181920212223242526272829303132333435363738394041424344454647484950515253545556575859606162636465" class="fil37" points="6.99902,4.08228 8.26201,6.70512 8.42756,6.6187 "/>
     <polygon id="_78376360123456789101112131415161718192021222324252627282930313233343536373839404142434445464748495051525354555657585960616263646566" class="fil36" points="6.99902,4.08228 5.57047,1.54587 5.41102,1.64252 "/>
     <polygon id="_7837636012345678910111213141516171819202122232425262728293031323334353637383940414243444546474849505152535455565758596061626364656667" class="fil35" points="6.99902,4.08228 8.42756,6.6187 8.58701,6.52205 "/>
     <polygon id="_783763601234567891011121314151617181920212223242526272829303132333435363738394041424344454647484950515253545556575859606162636465666768" class="fil34" points="6.99902,4.08228 5.41102,1.64252 5.25787,1.74941 "/>
     <polygon id="_78376360123456789101112131415161718192021222324252627282930313233343536373839404142434445464748495051525354555657585960616263646566676869" class="fil33" points="6.99902,4.08228 8.58701,6.52205 8.74016,6.41516 "/>
     <polygon id="_7837636012345678910111213141516171819202122232425262728293031323334353637383940414243444546474849505152535455565758596061626364656667686970" class="fil32" points="6.99902,4.08228 5.25787,1.74941 5.11201,1.86575 "/>
     <polygon id="_783763601234567891011121314151617181920212223242526272829303132333435363738394041424344454647484950515253545556575859606162636465666768697071" class="fil31" points="6.99902,4.08228 8.74016,6.41516 8.88602,6.29882 "/>
     <polygon id="_78376360123456789101112131415161718192021222324252627282930313233343536373839404142434445464748495051525354555657585960616263646566676869707172" class="fil30" points="6.99902,4.08228 5.11201,1.86575 4.97382,1.99114 "/>
     <polygon id="_7837636012345678910111213141516171819202122232425262728293031323334353637383940414243444546474849505152535455565758596061626364656667686970717273" class="fil29" points="6.99902,4.08228 8.88602,6.29882 9.02421,6.17343 "/>
     <polygon id="_783763601234567891011121314151617181920212223242526272829303132333435363738394041424344454647484950515253545556575859606162636465666768697071727374" class="fil28" points="6.99902,4.08228 4.97382,1.99114 4.84409,2.1252 "/>
     <polygon id="_78376360123456789101112131415161718192021222324252627282930313233343536373839404142434445464748495051525354555657585960616263646566676869707172737475" class="fil27" points="6.99902,4.08228 9.02421,6.17343 9.15394,6.03937 "/>
     <polygon id="_7837636012345678910111213141516171819202122232425262728293031323334353637383940414243444546474849505152535455565758596061626364656667686970717273747576" class="fil26" points="6.99902,4.08228 4.84409,2.1252 4.72303,2.26732 "/>
     <polygon id="_783763601234567891011121314151617181920212223242526272829303132333435363738394041424344454647484950515253545556575859606162636465666768697071727374757677" class="fil25" points="6.99902,4.08228 9.15394,6.03937 9.275,5.89724 "/>
     <polygon id="_78376360123456789101112131415161718192021222324252627282930313233343536373839404142434445464748495051525354555657585960616263646566676869707172737475767778" class="fil24" points="6.99902,4.08228 4.72303,2.26732 4.61142,2.41693 "/>
     <polygon id="_7837636012345678910111213141516171819202122232425262728293031323334353637383940414243444546474849505152535455565758596061626364656667686970717273747576777879" class="fil23" points="6.99902,4.08228 9.275,5.89724 9.38661,5.74764 "/>
     <polygon id="_783763601234567891011121314151617181920212223242526272829303132333435363738394041424344454647484950515253545556575859606162636465666768697071727374757677787980" class="fil22" points="6.99902,4.08228 4.61142,2.41693 4.50965,2.57323 "/>
     <polygon id="_78376360123456789101112131415161718192021222324252627282930313233343536373839404142434445464748495051525354555657585960616263646566676869707172737475767778798081" class="fil21" points="6.99902,4.08228 9.38661,5.74764 9.48839,5.59134 "/>
     <polygon id="_7837636012345678910111213141516171819202122232425262728293031323334353637383940414243444546474849505152535455565758596061626364656667686970717273747576777879808182" class="fil20" points="6.99902,4.08228 4.50965,2.57323 4.41811,2.73583 "/>
     <polygon id="_783763601234567891011121314151617181920212223242526272829303132333435363738394041424344454647484950515253545556575859606162636465666768697071727374757677787980818283" class="fil19" points="6.99902,4.08228 9.48839,5.59134 9.57992,5.42874 "/>
     <polygon id="_78376360123456789101112131415161718192021222324252627282930313233343536373839404142434445464748495051525354555657585960616263646566676869707172737475767778798081828384" class="fil18" points="6.99902,4.08228 4.41811,2.73583 4.3372,2.90394 "/>
     <polygon id="_7837636012345678910111213141516171819202122232425262728293031323334353637383940414243444546474849505152535455565758596061626364656667686970717273747576777879808182838485" class="fil17" points="6.99902,4.08228 9.57992,5.42874 9.66083,5.26063 "/>
     <polygon id="_783763601234567891011121314151617181920212223242526272829303132333435363738394041424344454647484950515253545556575859606162636465666768697071727374757677787980818283848586" class="fil16" points="6.99902,4.08228 4.3372,2.90394 4.26713,3.07697 "/>
     <polygon id="_78376360123456789101112131415161718192021222324252627282930313233343536373839404142434445464748495051525354555657585960616263646566676869707172737475767778798081828384858687" class="fil15" points="6.99902,4.08228 9.66083,5.26063 9.73091,5.0876 "/>
     <polygon id="_7837636012345678910111213141516171819202122232425262728293031323334353637383940414243444546474849505152535455565758596061626364656667686970717273747576777879808182838485868788" class="fil14" points="6.99902,4.08228 4.26713,3.07697 4.20827,3.25413 "/>
     <polygon id="_783763601234567891011121314151617181920212223242526272829303132333435363738394041424344454647484950515253545556575859606162636465666768697071727374757677787980818283848586878889" class="fil13" points="6.99902,4.08228 9.73091,5.0876 9.78976,4.91043 "/>
     <polygon id="_78376360123456789101112131415161718192021222324252627282930313233343536373839404142434445464748495051525354555657585960616263646566676869707172737475767778798081828384858687888990" class="fil12" points="6.99902,4.08228 4.20827,3.25413 4.16102,3.43465 "/>
     <polygon id="_7837636012345678910111213141516171819202122232425262728293031323334353637383940414243444546474849505152535455565758596061626364656667686970717273747576777879808182838485868788899091" class="fil11" points="6.99902,4.08228 9.78976,4.91043 9.83701,4.72992 "/>
     <polygon id="_783763601234567891011121314151617181920212223242526272829303132333435363738394041424344454647484950515253545556575859606162636465666768697071727374757677787980818283848586878889909192" class="fil10" points="6.99902,4.08228 4.16102,3.43465 4.1252,3.61772 "/>
     <polygon id="_78376360123456789101112131415161718192021222324252627282930313233343536373839404142434445464748495051525354555657585960616263646566676869707172737475767778798081828384858687888990919293" class="fil9" points="6.99902,4.08228 9.83701,4.72992 9.87283,4.54685 "/>
     <polygon id="_7837636012345678910111213141516171819202122232425262728293031323334353637383940414243444546474849505152535455565758596061626364656667686970717273747576777879808182838485868788899091929394" class="fil8" points="6.99902,4.08228 4.1252,3.61772 4.10138,3.80276 "/>
     <polygon id="_783763601234567891011121314151617181920212223242526272829303132333435363738394041424344454647484950515253545556575859606162636465666768697071727374757677787980818283848586878889909192939495" class="fil7" points="6.99902,4.08228 9.87283,4.54685 9.89665,4.36181 "/>
     <polygon id="_78376360123456789101112131415161718192021222324252627282930313233343536373839404142434445464748495051525354555657585960616263646566676869707172737475767778798081828384858687888990919293949596" class="fil6" points="6.99902,4.08228 4.10138,3.80276 4.08937,3.98917 "/>
     <polygon id="_7837636012345678910111213141516171819202122232425262728293031323334353637383940414243444546474849505152535455565758596061626364656667686970717273747576777879808182838485868788899091929394959697" class="fil5" points="6.99902,4.08228 9.89665,4.36181 9.90866,4.17539 "/>
    </g>
    <path id="_783763601234567891011121314151617181920212223242526272829303132333435363738394041424344454647484950515253545556575859606162636465666768697071727374757677787980818283848586878889909192939495969798" class="fil53 str0" d="M6.99902 2.03169c1.13228,0 2.05059,0.918307 2.05059,2.05059 0,1.13228 -0.918307,2.05059 -2.05059,2.05059 -1.13228,0 -2.05059,-0.918307 -2.05059,-2.05059 0,-1.13228 0.918307,-2.05059 2.05059,-2.05059zm0 0.644291c0.776575,0 1.4063,0.629724 1.4063,1.4063 0,0.776575 -0.629724,1.4063 -1.4063,1.4063 -0.776575,0 -1.4063,-0.629724 -1.4063,-1.4063 0,-0.776575 0.629724,-1.4063 1.4063,-1.4063z"/>
   </g>
   <rect class="fil54 str0" x="6.57028" y="4.99449" width="0.818701" height="2.01713"/>
   <g>
    <g style="clip-path:url(#id1)">
     <polygon class="fil3" points="25.0094,4.07815 27.9191,4.17126 27.9191,3.98504 "/>
     <polygon id="1" class="fil4" points="25.0094,4.07815 22.0998,3.98504 22.0998,4.17126 "/>
     <polygon id="12" class="fil5" points="25.0094,4.07815 27.9191,3.98504 27.9071,3.79862 "/>
     <polygon id="123" class="fil6" points="25.0094,4.07815 22.0998,4.17126 22.1118,4.35768 "/>
     <polygon id="1234" class="fil7" points="25.0094,4.07815 27.9071,3.79862 27.8833,3.61358 "/>
     <polygon id="12345" class="fil8" points="25.0094,4.07815 22.1118,4.35768 22.1356,4.54272 "/>
     <polygon id="123456" class="fil9" points="25.0094,4.07815 27.8833,3.61358 27.8474,3.43051 "/>
     <polygon id="1234567" class="fil10" points="25.0094,4.07815 22.1356,4.54272 22.1715,4.72579 "/>
     <polygon id="12345678" class="fil11" points="25.0094,4.07815 27.8474,3.43051 27.8002,3.25 "/>
     <polygon id="123456789" class="fil12" points="25.0094,4.07815 22.1715,4.72579 22.2187,4.9063 "/>
     <polygon id="12345678910" class="fil13" points="25.0094,4.07815 27.8002,3.25 27.7413,3.07283 "/>
     <polygon id="1234567891011" class="fil14" points="25.0094,4.07815 22.2187,4.9063 22.2776,5.08346 "/>
     <polygon id="123456789101112" class="fil15" points="25.0094,4.07815 27.7413,3.07283 27.6713,2.8998 "/>
     <polygon id="12345678910111213" class="fil16" points="25.0094,4.07815 22.2776,5.08346 22.3476,5.2565 "/>
     <polygon id="1234567891011121314" class="fil17" points="25.0094,4.07815 27.6713,2.8998 27.5904,2.73169 "/>
     <polygon id="123456789101112131415" class="fil18" points="25.0094,4.07815 22.3476,5.2565 22.4285,5.42461 "/>
     <polygon id="12345678910111213141516" class="fil19" points="25.0094,4.07815 27.5904,2.73169 27.4988,2.56909 "/>
     <polygon id="1234567891011121314151617" class="fil20" points="25.0094,4.07815 22.4285,5.42461 22.5201,5.5872 "/>
     <polygon id="123456789101112131415161718" class="fil21" points="25.0094,4.07815 27.4988,2.56909 27.397,2.4128 "/>
     <polygon id="12345678910111213141516171819" class="fil22" points="25.0094,4.07815 22.5201,5.5872 22.6219,5.7435 "/>
     <polygon id="1234567891011121314151617181920" class="fil23" points="25.0094,4.07815 27.397,2.4128 27.2854,2.26319 "/>
     <polygon id="123456789101112131415161718192021" class="fil24" points="25.0094,4.07815 22.6219,5.7435 22.7335,5.89311 "/>
     <polygon id="12345678910111213141516171819202122" class="fil25" points="25.0094,4.07815 27.2854,2.26319 27.1644,2.12106 "/>
     <polygon id="1234567891011121314151617181920212223" class="fil26" points="25.0094,4.07815 22.7335,5.89311 22.8545,6.03524 "/>
     <polygon id="123456789101112131415161718192021222324" class="fil27" points="25.0094,4.07815 27.1644,2.12106 27.0346,1.98701 "/>
     <polygon id="12345678910111213141516171819202122232425" class="fil28" points="25.0094,4.07815 22.8545,6.03524 22.9843,6.16929 "/>
     <polygon id="1234567891011121314151617181920212223242526" class="fil29" points="25.0094,4.07815 27.0346,1.98701 26.8965,1.86161 "/>
     <polygon id="123456789101112131415161718192021222324252627" class="fil30" points="25.0094,4.07815 22.9843,6.16929 23.1224,6.29469 "/>
     <polygon id="12345678910111213141516171819202122232425262728" class="fil31" points="25.0094,4.07815 26.8965,1.86161 26.7506,1.74528 "/>
     <polygon id="1234567891011121314151617181920212223242526272829" class="fil32" points="25.0094,4.07815 23.1224,6.29469 23.2683,6.41102 "/>
     <polygon id="123456789101112131415161718192021222324252627282930" class="fil33" points="25.0094,4.07815 26.7506,1.74528 26.5974,1.63839 "/>
     <polygon id="12345678910111213141516171819202122232425262728293031" class="fil34" points="25.0094,4.07815 23.2683,6.41102 23.4215,6.51791 "/>
     <polygon id="1234567891011121314151617181920212223242526272829303132" class="fil35" points="25.0094,4.07815 26.5974,1.63839 26.438,1.54173 "/>
     <polygon id="123456789101112131415161718192021222324252627282930313233" class="fil36" points="25.0094,4.07815 23.4215,6.51791 23.5809,6.61457 "/>
     <polygon id="12345678910111213141516171819202122232425262728293031323334" class="fil37" points="25.0094,4.07815 26.438,1.54173 26.2724,1.45531 "/>
     <polygon id="1234567891011121314151617181920212223242526272829303132333435" class="fil38" points="25.0094,4.07815 23.5809,6.61457 23.7465,6.70098 "/>
     <polygon id="123456789101112131415161718192021222324252627282930313233343536" class="fil39" points="25.0094,4.07815 26.2724,1.45531 26.1018,1.37992 "/>
     <polygon id="12345678910111213141516171819202122232425262728293031323334353637" class="fil40" points="25.0094,4.07815 23.7465,6.70098 23.9171,6.77638 "/>
     <polygon id="1234567891011121314151617181920212223242526272829303132333435363738" class="fil41" points="25.0094,4.07815 26.1018,1.37992 25.9268,1.31535 "/>
     <polygon id="123456789101112131415161718192021222324252627282930313233343536373839" class="fil42" points="25.0094,4.07815 23.9171,6.77638 24.0921,6.84094 "/>
     <polygon id="12345678910111213141516171819202122232425262728293031323334353637383940" class="fil43" points="25.0094,4.07815 25.9268,1.31535 25.7478,1.2624 "/>
     <polygon id="1234567891011121314151617181920212223242526272829303132333435363738394041" class="fil44" points="25.0094,4.07815 24.0921,6.84094 24.2711,6.8939 "/>
     <polygon id="123456789101112131415161718192021222324252627282930313233343536373839404142" class="fil45" points="25.0094,4.07815 25.7478,1.2624 25.5657,1.22087 "/>
     <polygon id="12345678910111213141516171819202122232425262728293031323334353637383940414243" class="fil46" points="25.0094,4.07815 24.2711,6.8939 24.4531,6.93543 "/>
     <polygon id="1234567891011121314151617181920212223242526272829303132333435363738394041424344" class="fil47" points="25.0094,4.07815 25.5657,1.22087 25.3817,1.19094 "/>
     <polygon id="123456789101112131415161718192021222324252627282930313233343536373839404142434445" class="fil48" points="25.0094,4.07815 24.4531,6.93543 24.6372,6.96535 "/>
     <polygon id="12345678910111213141516171819202122232425262728293031323334353637383940414243444546" class="fil49" points="25.0094,4.07815 25.3817,1.19094 25.1959,1.17303 "/>
     <polygon id="1234567891011121314151617181920212223242526272829303132333435363738394041424344454647" class="fil50" points="25.0094,4.07815 24.6372,6.96535 24.823,6.98327 "/>
     <polygon id="123456789101112131415161718192021222324252627282930313233343536373839404142434445464748" class="fil51" points="25.0094,4.07815 25.1959,1.17303 25.0094,1.16713 "/>
     <polygon id="12345678910111213141516171819202122232425262728293031323334353637383940414243444546474849" class="fil52" points="25.0094,4.07815 24.823,6.98327 25.0094,6.98917 "/>
     <polygon id="1234567891011121314151617181920212223242526272829303132333435363738394041424344454647484950" class="fil52" points="25.0094,4.07815 25.0094,1.16713 24.823,1.17303 "/>
     <polygon id="123456789101112131415161718192021222324252627282930313233343536373839404142434445464748495051" class="fil51" points="25.0094,4.07815 25.0094,6.98917 25.1959,6.98327 "/>
     <polygon id="12345678910111213141516171819202122232425262728293031323334353637383940414243444546474849505152" class="fil50" points="25.0094,4.07815 24.823,1.17303 24.6372,1.19094 "/>
     <polygon id="1234567891011121314151617181920212223242526272829303132333435363738394041424344454647484950515253" class="fil49" points="25.0094,4.07815 25.1959,6.98327 25.3817,6.96535 "/>
     <polygon id="123456789101112131415161718192021222324252627282930313233343536373839404142434445464748495051525354" class="fil48" points="25.0094,4.07815 24.6372,1.19094 24.4531,1.22087 "/>
     <polygon id="12345678910111213141516171819202122232425262728293031323334353637383940414243444546474849505152535455" class="fil47" points="25.0094,4.07815 25.3817,6.96535 25.5657,6.93543 "/>
     <polygon id="1234567891011121314151617181920212223242526272829303132333435363738394041424344454647484950515253545556" class="fil46" points="25.0094,4.07815 24.4531,1.22087 24.2711,1.2624 "/>
     <polygon id="123456789101112131415161718192021222324252627282930313233343536373839404142434445464748495051525354555657" class="fil45" points="25.0094,4.07815 25.5657,6.93543 25.7478,6.8939 "/>
     <polygon id="12345678910111213141516171819202122232425262728293031323334353637383940414243444546474849505152535455565758" class="fil44" points="25.0094,4.07815 24.2711,1.2624 24.0921,1.31535 "/>
     <polygon id="1234567891011121314151617181920212223242526272829303132333435363738394041424344454647484950515253545556575859" class="fil43" points="25.0094,4.07815 25.7478,6.8939 25.9268,6.84094 "/>
     <polygon id="123456789101112131415161718192021222324252627282930313233343536373839404142434445464748495051525354555657585960" class="fil42" points="25.0094,4.07815 24.0921,1.31535 23.9171,1.37992 "/>
     <polygon id="12345678910111213141516171819202122232425262728293031323334353637383940414243444546474849505152535455565758596061" class="fil41" points="25.0094,4.07815 25.9268,6.84094 26.1018,6.77638 "/>
     <polygon id="1234567891011121314151617181920212223242526272829303132333435363738394041424344454647484950515253545556575859606162" class="fil40" points="25.0094,4.07815 23.9171,1.37992 23.7465,1.45531 "/>
     <polygon id="123456789101112131415161718192021222324252627282930313233343536373839404142434445464748495051525354555657585960616263" class="fil39" points="25.0094,4.07815 26.1018,6.77638 26.2724,6.70098 "/>
     <polygon id="12345678910111213141516171819202122232425262728293031323334353637383940414243444546474849505152535455565758596061626364" class="fil38" points="25.0094,4.07815 23.7465,1.45531 23.5809,1.54173 "/>
     <polygon id="1234567891011121314151617181920212223242526272829303132333435363738394041424344454647484950515253545556575859606162636465" class="fil37" points="25.0094,4.07815 26.2724,6.70098 26.438,6.61457 "/>
     <polygon id="123456789101112131415161718192021222324252627282930313233343536373839404142434445464748495051525354555657585960616263646566" class="fil36" points="25.0094,4.07815 23.5809,1.54173 23.4215,1.63839 "/>
     <polygon id="12345678910111213141516171819202122232425262728293031323334353637383940414243444546474849505152535455565758596061626364656667" class="fil35" points="25.0094,4.07815 26.438,6.61457 26.5974,6.51791 "/>
     <polygon id="1234567891011121314151617181920212223242526272829303132333435363738394041424344454647484950515253545556575859606162636465666768" class="fil34" points="25.0094,4.07815 23.4215,1.63839 23.2683,1.74528 "/>
     <polygon id="123456789101112131415161718192021222324252627282930313233343536373839404142434445464748495051525354555657585960616263646566676869" class="fil33" points="25.0094,4.07815 26.5974,6.51791 26.7506,6.41102 "/>
     <polygon id="12345678910111213141516171819202122232425262728293031323334353637383940414243444546474849505152535455565758596061626364656667686970" class="fil32" points="25.0094,4.07815 23.2683,1.74528 23.1224,1.86161 "/>
     <polygon id="1234567891011121314151617181920212223242526272829303132333435363738394041424344454647484950515253545556575859606162636465666768697071" class="fil31" points="25.0094,4.07815 26.7506,6.41102 26.8965,6.29469 "/>
     <polygon id="123456789101112131415161718192021222324252627282930313233343536373839404142434445464748495051525354555657585960616263646566676869707172" class="fil30" points="25.0094,4.07815 23.1224,1.86161 22.9843,1.98701 "/>
     <polygon id="12345678910111213141516171819202122232425262728293031323334353637383940414243444546474849505152535455565758596061626364656667686970717273" class="fil29" points="25.0094,4.07815 26.8965,6.29469 27.0346,6.16929 "/>
     <polygon id="1234567891011121314151617181920212223242526272829303132333435363738394041424344454647484950515253545556575859606162636465666768697071727374" class="fil28" points="25.0094,4.07815 22.9843,1.98701 22.8545,2.12106 "/>
     <polygon id="123456789101112131415161718192021222324252627282930313233343536373839404142434445464748495051525354555657585960616263646566676869707172737475" class="fil27" points="25.0094,4.07815 27.0346,6.16929 27.1644,6.03524 "/>
     <polygon id="12345678910111213141516171819202122232425262728293031323334353637383940414243444546474849505152535455565758596061626364656667686970717273747576" class="fil26" points="25.0094,4.07815 22.8545,2.12106 22.7335,2.26319 "/>
     <polygon id="1234567891011121314151617181920212223242526272829303132333435363738394041424344454647484950515253545556575859606162636465666768697071727374757677" class="fil25" points="25.0094,4.07815 27.1644,6.03524 27.2854,5.89311 "/>
     <polygon id="123456789101112131415161718192021222324252627282930313233343536373839404142434445464748495051525354555657585960616263646566676869707172737475767778" class="fil24" points="25.0094,4.07815 22.7335,2.26319 22.6219,2.4128 "/>
     <polygon id="12345678910111213141516171819202122232425262728293031323334353637383940414243444546474849505152535455565758596061626364656667686970717273747576777879" class="fil23" points="25.0094,4.07815 27.2854,5.89311 27.397,5.7435 "/>
     <polygon id="1234567891011121314151617181920212223242526272829303132333435363738394041424344454647484950515253545556575859606162636465666768697071727374757677787980" class="fil22" points="25.0094,4.07815 22.6219,2.4128 22.5201,2.56909 "/>
     <polygon id="123456789101112131415161718192021222324252627282930313233343536373839404142434445464748495051525354555657585960616263646566676869707172737475767778798081" class="fil21" points="25.0094,4.07815 27.397,5.7435 27.4988,5.5872 "/>
     <polygon id="12345678910111213141516171819202122232425262728293031323334353637383940414243444546474849505152535455565758596061626364656667686970717273747576777879808182" class="fil20" points="25.0094,4.07815 22.5201,2.56909 22.4285,2.73169 "/>
     <polygon id="1234567891011121314151617181920212223242526272829303132333435363738394041424344454647484950515253545556575859606162636465666768697071727374757677787980818283" class="fil19" points="25.0094,4.07815 27.4988,5.5872 27.5904,5.42461 "/>
     <polygon id="123456789101112131415161718192021222324252627282930313233343536373839404142434445464748495051525354555657585960616263646566676869707172737475767778798081828384" class="fil18" points="25.0094,4.07815 22.4285,2.73169 22.3476,2.8998 "/>
     <polygon id="12345678910111213141516171819202122232425262728293031323334353637383940414243444546474849505152535455565758596061626364656667686970717273747576777879808182838485" class="fil17" points="25.0094,4.07815 27.5904,5.42461 27.6713,5.2565 "/>
     <polygon id="1234567891011121314151617181920212223242526272829303132333435363738394041424344454647484950515253545556575859606162636465666768697071727374757677787980818283848586" class="fil16" points="25.0094,4.07815 22.3476,2.8998 22.2776,3.07283 "/>
     <polygon id="123456789101112131415161718192021222324252627282930313233343536373839404142434445464748495051525354555657585960616263646566676869707172737475767778798081828384858687" class="fil15" points="25.0094,4.07815 27.6713,5.2565 27.7413,5.08346 "/>
     <polygon id="12345678910111213141516171819202122232425262728293031323334353637383940414243444546474849505152535455565758596061626364656667686970717273747576777879808182838485868788" class="fil14" points="25.0094,4.07815 22.2776,3.07283 22.2187,3.25 "/>
     <polygon id="1234567891011121314151617181920212223242526272829303132333435363738394041424344454647484950515253545556575859606162636465666768697071727374757677787980818283848586878889" class="fil13" points="25.0094,4.07815 27.7413,5.08346 27.8002,4.9063 "/>
     <polygon id="123456789101112131415161718192021222324252627282930313233343536373839404142434445464748495051525354555657585960616263646566676869707172737475767778798081828384858687888990" class="fil12" points="25.0094,4.07815 22.2187,3.25 22.1715,3.43051 "/>
     <polygon id="12345678910111213141516171819202122232425262728293031323334353637383940414243444546474849505152535455565758596061626364656667686970717273747576777879808182838485868788899091" class="fil11" points="25.0094,4.07815 27.8002,4.9063 27.8474,4.72579 "/>
     <polygon id="1234567891011121314151617181920212223242526272829303132333435363738394041424344454647484950515253545556575859606162636465666768697071727374757677787980818283848586878889909192" class="fil10" points="25.0094,4.07815 22.1715,3.43051 22.1356,3.61358 "/>
     <polygon id="123456789101112131415161718192021222324252627282930313233343536373839404142434445464748495051525354555657585960616263646566676869707172737475767778798081828384858687888990919293" class="fil9" points="25.0094,4.07815 27.8474,4.72579 27.8833,4.54272 "/>
     <polygon id="12345678910111213141516171819202122232425262728293031323334353637383940414243444546474849505152535455565758596061626364656667686970717273747576777879808182838485868788899091929394" class="fil8" points="25.0094,4.07815 22.1356,3.61358 22.1118,3.79862 "/>
     <polygon id="1234567891011121314151617181920212223242526272829303132333435363738394041424344454647484950515253545556575859606162636465666768697071727374757677787980818283848586878889909192939495" class="fil7" points="25.0094,4.07815 27.8833,4.54272 27.9071,4.35768 "/>
     <polygon id="123456789101112131415161718192021222324252627282930313233343536373839404142434445464748495051525354555657585960616263646566676869707172737475767778798081828384858687888990919293949596" class="fil6" points="25.0094,4.07815 22.1118,3.79862 22.0998,3.98504 "/>
     <polygon id="12345678910111213141516171819202122232425262728293031323334353637383940414243444546474849505152535455565758596061626364656667686970717273747576777879808182838485868788899091929394959697" class="fil5" points="25.0094,4.07815 27.9071,4.35768 27.9191,4.17126 "/>
    </g>
    <path id="1234567891011121314151617181920212223242526272829303132333435363738394041424344454647484950515253545556575859606162636465666768697071727374757677787980818283848586878889909192939495969798" class="fil53 str0" d="M25.0094 2.02756c1.13228,0 2.05059,0.918307 2.05059,2.05059 0,1.13228 -0.918307,2.05059 -2.05059,2.05059 -1.13228,0 -2.05059,-0.918307 -2.05059,-2.05059 0,-1.13228 0.918307,-2.05059 2.05059,-2.05059zm0 0.644291c0.776575,0 1.4063,0.629724 1.4063,1.4063 0,0.776575 -0.629724,1.4063 -1.4063,1.4063 -0.776575,0 -1.4063,-0.629724 -1.4063,-1.4063 0,-0.776575 0.629724,-1.4063 1.4063,-1.4063z"/>
   </g>
   <rect class="fil54 str0" x="24.5807" y="4.99035" width="0.818701" height="2.01713"/>
   <path class="fil55" d="M20.2132 16.2774c0.109843,-0.00492126 0.268898,-0.00826772 0.476772,-0.00984252 -0.0706693,0.131693 -0.126181,0.228543 -0.166535,0.290945l0.441142 0.223819c-0.243307,0.115157 -0.469488,0.162795 -0.67874,0.141929 0.0433071,0.12185 0.0706693,0.219488 0.0824803,0.293504 0.35689,-0.0291339 0.648425,-0.122835 0.874803,-0.281693 0.262795,0.144488 0.439567,0.253346 0.529724,0.327165 0.015748,-0.0336614 0.0301181,-0.0688976 0.0433071,-0.105906l0.0783465 -0.173228 -0.484646 -0.261811c0.0667323,-0.117323 0.122244,-0.268898 0.166732,-0.454724l0.419882 0.00984252 0 -0.284055 -0.900394 0.00748031 0.145079 -0.310433c-0.0444882,-0.0159449 -0.126181,-0.0545276 -0.245079,-0.115157 -0.0354331,0.120079 -0.0925197,0.261811 -0.170866,0.425591l-0.612008 -0.00748031 0 0.284055zm0.753346 -0.00984252l0.361024 0c-0.0391732,0.149016 -0.0883858,0.26063 -0.147047,0.334449l-0.300394 -0.16122 0.0864173 -0.173228zm-0.700394 -1.02205l0.0019685 0.562795 0.247244 0 -0.00413386 -0.295866 1.19685 0c0,0.100787 -0.00177165,0.204331 -0.00590551,0.310236l0.247244 0c-0.00511811,-0.179331 -0.00511811,-0.37185 0,-0.577165l-0.770866 0.00748031c0.0234252,-0.0147638 0.0515748,-0.0309055 0.084252,-0.0484252 -0.0354331,-0.0866142 -0.0856299,-0.180315 -0.151181,-0.281102 -0.0562992,0.0429134 -0.127165,0.0840551 -0.213583,0.122638 0.0507874,0.0767717 0.0864173,0.145669 0.105709,0.20689l-0.737598 -0.00748031zm2.56102 0.930906l0.351378 -0.00492126 0 0.185039 -0.463189 -0.00492126 0 0.281693 0.463189 -0.00492126 0 0.19252 -0.737795 -0.0120079 0 0.317323c0.573031,-0.0161417 1.13917,-0.0161417 1.69902,0l0 -0.317323 -0.716339 0.0120079 0 -0.19252 0.439567 0.00492126 0 -0.281693 -0.439567 0.00492126 0 -0.185039 0.327756 0.00492126 0 -0.272047c0.105906,0.0820866 0.220472,0.151772 0.343307,0.209252 0.0248031,-0.0866142 0.0712598,-0.197047 0.13937,-0.331693 -0.251181,-0.0450787 -0.466929,-0.198228 -0.647638,-0.459646 -0.0549213,-0.0767717 -0.10374,-0.162402 -0.147047,-0.25689 0.00767717,-0.0208661 0.017126,-0.0411417 0.0275591,-0.0604331 -0.0954724,-0.0143701 -0.194094,-0.0401575 -0.29626,-0.0765748 -0.00767717,0.0496063 -0.0338583,0.119685 -0.0783465,0.21122 -0.113976,0.232874 -0.266929,0.424803 -0.459252,0.577165 -0.0940945,0.0688976 -0.18563,0.119488 -0.274803,0.151772 0.0785433,0.0879921 0.139961,0.179331 0.184449,0.274213 0.106102,-0.0738189 0.200984,-0.150984 0.284646,-0.231102l0 0.264764zm0.0234252 -0.284055c0.180512,-0.174803 0.33622,-0.369291 0.467126,-0.584449 0.107087,0.236024 0.247047,0.430512 0.419882,0.584449 -0.302362,0.0112205 -0.598031,0.0112205 -0.887008,0zm1.88996 0.218898c0.00807087,0.31752 0.00807087,0.66063 0,1.02933l1.30846 -0.00492126 0 0.057874 0.255118 0c-0.00885827,-0.365748 -0.00944882,-0.713386 -0.00177165,-1.0437l-0.261024 0 0.00767717 0.692717 -0.4 0 0 -0.79626 0.598425 0.00492126c-0.00767717,-0.391142 -0.00708661,-0.702953 0.00177165,-0.935433l-0.254921 0 0.00807087 0.651378 -0.353346 0 0.00590551 -0.812598 -0.262992 0 0.00590551 0.812598 -0.337402 0 0.00393701 -0.675591 -0.264764 0c0.00531496,0.332087 0.00531496,0.651772 0,0.959646l0.598228 -0.00492126 0 0.79626 -0.396457 0 0.00610236 -0.731299 -0.266929 0zm2.27087 0.856102l0.25315 0 0 -0.0600394 0.917913 0 0 0.0600394 0.249213 0 -0.00767717 -1.46693c0,-0.0767717 0.0023622,-0.152165 0.00767717,-0.226181 -0.443307,0.0143701 -0.916732,0.0135827 -1.42028,-0.0023622 0.011811,0.533858 0.011811,1.09902 0,1.69547zm0.25315 -0.331693l0 -1.07736 0.917913 0 0 1.07736 -0.917913 0zm-4.77559 1.75787l0 -0.528937 0.500394 0 0 -0.327165 -0.767126 0 0 1.95276 0.767126 0 0 -0.326969 -0.500394 0 0 -0.44252 0.319882 0 0 -0.327165 -0.319882 0zm1.32087 0.466732l0.220079 0.656299 0.288189 0 -0.364961 -1.08937 0.296457 -0.875394 -0.288386 0 -0.151378 0.444882 -0.14685 -0.444882 -0.288386 0 0.292323 0.877953 -0.353346 1.05315 0.288386 0 0.207874 -0.622638zm1.07421 0.362795l-0.145276 0 0 0.267126 0.549213 0 0 -0.267126 -0.137205 0 0 -1.4189 0.137205 0 0 -0.266732 -0.549213 0 0 0.266732 0.145276 0 0 1.4189zm1.47776 -1.35846l0.333465 0 0 -0.327165 -0.943504 0 0 0.327165 0.343307 0 0 1.62559 0.266732 0 0 -1.62559zm-23.1128 -1.90098l0.306693 -0.284646 1.87461 -1.92933 2.15492 -0.00275591 -0.990551 1.2811 0.00019685 0 4.05689 0.00216535 0.00570866 1.99587 -4.05906 -0.00492126 0.984646 1.18425 -2.15276 0.0019685 -1.96339 -2.03976 -0.217913 -0.203937zm11.6065 -1.39291l2.16516 0.259252 0.695669 0.88563c0.146063,0.379724 -0.167717,0.62874 -0.568701,0.465157l-0.430906 -0.641142 -0.513386 -0.0625984 0.510433 1.18563 0.065748 1.00138 1.19961 0.00177165c0.614567,0.0820866 0.625,0.73622 0.00295276,0.808858l-1.84016 -0.00255906 -0.155118 -1.1498 -1.1811 1.8189c-0.358071,0.414567 -0.971654,0.168307 -0.784449,-0.337992l1.15827 -1.87008 -0.348031 -0.976575 -0.579724 0.777559 -0.987992 -0.0120079 -0.00216535 2.54193 0.514173 0.767717 -2.15866 -0.00019685 0 -8.24587 8.22579 0 0 8.24587 -0.904724 0 -0.737598 -0.744882 -0.00649606 -0.586811c0.73248,-0.124606 0.655512,-1.15138 0.00649606,-1.28937l0 -4.48937 -4.93366 -0.0226378 -0.00295276 3.42559 0.00393701 -0.379724 0.662205 0.00570866 0.925394 -1.37933zm-0.297244 -1.43465c0.381299,0 0.690551,0.301969 0.690551,0.674409 0,0.372441 -0.309252,0.674409 -0.690551,0.674409 -0.381299,0 -0.690551,-0.301969 -0.690551,-0.674409 0,-0.372441 0.309252,-0.674409 0.690551,-0.674409zm-0.144094 6.89882c-0.19252,-0.342913 0.0307087,-0.76752 0.432283,-0.610433l0.929528 0.610433 -1.36181 0z"/>
   <g>
    <circle class="fil56" cx="30.5474" cy="11.2272" r="0.739567"/>
    <circle class="fil57" cx="30.5614" cy="13.4738" r="0.735236"/>
    <circle class="fil58" cx="30.562" cy="15.7033" r="0.736811"/>
   </g>
  </g>
 </g>
</svg>
