<?xml version="1.0" encoding="UTF-8"?>
<!DOCTYPE svg PUBLIC "-//W3C//DTD SVG 1.1//EN" "http://www.w3.org/Graphics/SVG/1.1/DTD/svg11.dtd">
<!-- Creator: CorelDRAW -->
<svg xmlns="http://www.w3.org/2000/svg" xml:space="preserve" width="32px" height="32px" style="shape-rendering:geometricPrecision; text-rendering:geometricPrecision; image-rendering:optimizeQuality; fill-rule:evenodd; clip-rule:evenodd"
viewBox="0 0 26.1566 26.1566"
 xmlns:xlink="http://www.w3.org/1999/xlink">
 <defs>
  <style type="text/css">
   <![CDATA[
    .str0 {stroke:#1F1A17;stroke-width:0.122054}
    .str1 {stroke:#1F1A17;stroke-width:0.320352}
    .fil2 {fill:none}
    .fil3 {fill:#00923F}
    .fil1 {fill:#DEDEDD}
    .fil4 {fill:#B0FF01}
    .fil0 {fill:url(#id0)}
   ]]>
  </style>
  <linearGradient id="id0" gradientUnits="userSpaceOnUse" x1="-2.75343" y1="22.2188" x2="28.9099" y2="3.93793">
   <stop offset="0" style="stop-color:#B2B2B2"/>
   <stop offset="0.14902" style="stop-color:#E5E5E5"/>
   <stop offset="0.290196" style="stop-color:#B2B2B2"/>
   <stop offset="0.490196" style="stop-color:white"/>
   <stop offset="0.729412" style="stop-color:#B2B2B2"/>
   <stop offset="0.909804" style="stop-color:#E5E5E5"/>
   <stop offset="0.988235" style="stop-color:#B2B2B2"/>
   <stop offset="1" style="stop-color:white"/>
  </linearGradient>
 </defs>
 <g id="图层_x0020_1">
  <metadata id="CorelCorpID_0Corel-Layer"/>
  <g id="_110086872">
   <path id="_109328168" class="fil0 str0" d="M6.56867 24.3532c6.22589,3.59451 14.19,1.46049 17.7845,-4.7654 3.59451,-6.22573 1.46049,-14.1898 -4.7654,-17.7844 -6.22573,-3.59451 -14.1898,-1.46049 -17.7844,4.76524 -3.59451,6.22589 -1.46049,14.19 4.76524,17.7845zm1.62755 -2.81878c4.6693,2.69593 10.6426,1.09544 13.3384,-3.57401 2.69593,-4.6693 1.09544,-10.6424 -3.57401,-13.3384 -4.6693,-2.69577 -10.6424,-1.09528 -13.3384,3.57401 -2.69577,4.6693 -1.09528,10.6426 3.57401,13.3384z"/>
   <path id="_109326656" class="fil1 str0" d="M3.488 8.48998c0.604985,-0.162098 0.964261,-0.784223 0.802162,-1.38921 -0.162098,-0.604825 -0.784223,-0.964101 -1.38921,-0.802002 -0.604985,0.162098 -0.964101,0.784223 -0.802002,1.38921 0.162098,0.604985 0.784223,0.964101 1.38905,0.802002z"/>
   <line id="_109326728" class="fil2 str1" x1="2.52982" y1="7.57041" x2="3.90173" y2= "7.2028" />
   <line id="_109327328" class="fil2 str1" x1="3.38356" y1="8.10395" x2="3.00795" y2= "6.70193" />
   <path id="_109327448" class="fil1 str0" d="M23.2683 19.9101c0.604985,-0.162098 0.964101,-0.784062 0.802002,-1.38905 -0.162098,-0.604985 -0.784062,-0.964101 -1.38905,-0.802002 -0.604985,0.162098 -0.964101,0.784223 -0.802002,1.38905 0.162098,0.604985 0.784223,0.964101 1.38905,0.802002z"/>
   <line id="_109327664" class="fil2 str1" x1="22.3101" y1="18.9906" x2="23.6821" y2= "18.623" />
   <line id="_109326584" class="fil2 str1" x1="23.1639" y1="19.524" x2="22.7883" y2= "18.1222" />
   <path id="_110087208" class="fil1 str0" d="M12.281 2.51925c0.442887,0.442887 1.16128,0.442887 1.604,0 0.442887,-0.442887 0.442887,-1.16112 0,-1.604 -0.442727,-0.442887 -1.16112,-0.442887 -1.604,0 -0.442887,0.442887 -0.442887,1.16112 0,1.604z"/>
   <line id="_110087856" class="fil2 str1" x1="12.5983" y1="1.22967" x2="13.6025" y2= "2.23382" />
   <line id="_110087760" class="fil2 str1" x1="12.5631" y1="2.23558" x2="13.5893" y2= "1.20933" />
   <path id="_110086584" class="fil1 str0" d="M12.265 25.2961c0.442887,0.442887 1.16128,0.442887 1.604,0 0.442887,-0.442887 0.442887,-1.16112 0,-1.604 -0.442727,-0.442887 -1.16112,-0.442887 -1.604,0 -0.442887,0.442887 -0.442887,1.16112 0,1.604z"/>
   <line id="_110087400" class="fil2 str1" x1="12.5823" y1="24.0066" x2="13.5865" y2= "25.0107" />
   <line id="_110086752" class="fil2 str1" x1="12.5471" y1="25.0125" x2="13.5733" y2= "23.9862" />
   <path id="_110088072" class="fil1 str0" d="M21.8339 7.09228c-0.162098,0.604985 0.197017,1.22711 0.802002,1.38921 0.604985,0.162098 1.22695,-0.197017 1.38905,-0.802002 0.162098,-0.604985 -0.197017,-1.22711 -0.802002,-1.38921 -0.604985,-0.162098 -1.22695,0.197177 -1.38905,0.802002z"/>
   <line id="_110087040" class="fil2 str1" x1="23.1094" y1="6.72227" x2="22.7418" y2= "8.09402" />
   <line id="_110087280" class="fil2 str1" x1="22.2204" y1="7.19479" x2="23.6225" y2= "7.57041" />
   <path id="_110087424" class="fil1 str0" d="M2.15773 18.4526c-0.162098,0.604985 0.197017,1.22695 0.802002,1.38905 0.604985,0.162098 1.22695,-0.197017 1.38905,-0.802002 0.162098,-0.604985 -0.197017,-1.22695 -0.802002,-1.38905 -0.604825,-0.162098 -1.22695,0.197017 -1.38905,0.802002z"/>
   <line id="_110087088" class="fil2 str1" x1="3.43322" y1="18.0825" x2="3.06561" y2= "19.4544" />
   <line id="_110088096" class="fil2 str1" x1="2.5444" y1="18.5551" x2="3.94626" y2= "18.9307" />
   <circle id="_110087880" class="fil3 str0" cx="13.0783" cy="13.0778" r="9.7642"/>
   <polygon id="_110087112" class="fil4 str0" points="20.9169,13.1091 16.4265,8.28351 10.9082,8.2952 13.638,10.8202 13.638,10.8202 5.26307,10.8197 5.23968,15.2185 13.6353,15.2105 10.9285,17.8723 16.4421,17.8678 "/>
  </g>
 </g>
</svg>
