<?xml version="1.0" encoding="UTF-8"?>
<!DOCTYPE svg PUBLIC "-//W3C//DTD SVG 1.1//EN" "http://www.w3.org/Graphics/SVG/1.1/DTD/svg11.dtd">
<!-- Creator: CorelDRAW -->
<svg xmlns="http://www.w3.org/2000/svg" xml:space="preserve" width="32px" height="32px" style="shape-rendering:geometricPrecision; text-rendering:geometricPrecision; image-rendering:optimizeQuality; fill-rule:evenodd; clip-rule:evenodd"
viewBox="0 0 32 32"
 xmlns:xlink="http://www.w3.org/1999/xlink">
 <defs>
  <style type="text/css">
   <![CDATA[
    .str0 {stroke:#1F1A17;stroke-width:0.15}
    .fil50 {fill:none}
    .fil58 {fill:#00923F}
    .fil56 {fill:#00A539}
    .fil53 {fill:#AAA9A9}
    .fil54 {fill:#DA251D}
    .fil55 {fill:#FFF500}
    .fil1 {fill:#C2C1C1}
    .fil3 {fill:#C3C2C2}
    .fil5 {fill:#C4C4C3}
    .fil7 {fill:#C5C5C4}
    .fil9 {fill:#C6C6C5}
    .fil11 {fill:#C7C7C6}
    .fil13 {fill:#C8C8C7}
    .fil15 {fill:#C9C9C8}
    .fil17 {fill:#CACAC9}
    .fil19 {fill:#CCCBCA}
    .fil21 {fill:#CDCCCC}
    .fil23 {fill:#CECDCD}
    .fil25 {fill:#CFCECE}
    .fil27 {fill:#D0CFCF}
    .fil29 {fill:#D1D0D0}
    .fil31 {fill:#D2D1D1}
    .fil33 {fill:#D3D2D2}
    .fil35 {fill:#D4D3D3}
    .fil37 {fill:#D5D4D4}
    .fil39 {fill:#D6D6D5}
    .fil41 {fill:#D8D7D7}
    .fil43 {fill:#D9D8D8}
    .fil45 {fill:#DADAD9}
    .fil47 {fill:#DBDBDB}
    .fil49 {fill:#DDDCDC}
    .fil48 {fill:#DFDFDF}
    .fil46 {fill:#E1E0E0}
    .fil44 {fill:#E2E1E1}
    .fil42 {fill:#E3E3E2}
    .fil40 {fill:#E4E4E4}
    .fil38 {fill:#E6E5E5}
    .fil36 {fill:#E7E6E6}
    .fil34 {fill:#E8E8E7}
    .fil32 {fill:#E9E9E9}
    .fil30 {fill:#EBEAEA}
    .fil28 {fill:#ECECEB}
    .fil26 {fill:#EDEDED}
    .fil24 {fill:#EFEEEE}
    .fil22 {fill:#F0F0F0}
    .fil20 {fill:#F1F1F1}
    .fil18 {fill:#F2F2F2}
    .fil16 {fill:#F4F4F3}
    .fil14 {fill:whitesmoke}
    .fil12 {fill:#F6F6F6}
    .fil10 {fill:#F8F8F7}
    .fil8 {fill:#F9F9F9}
    .fil6 {fill:#FAFAFA}
    .fil4 {fill:#FBFBFB}
    .fil2 {fill:#FDFDFD}
    .fil0 {fill:white}
    .fil59 {fill:#B6FF01;fill-rule:nonzero}
    .fil51 {fill:url(#id2)}
    .fil52 {fill:url(#id3)}
    .fil57 {fill:url(#id4)}
   ]]>
  </style>
      <clipPath id="id0">
       <path d="M5.79075 1.68425c-1.13228,-0.00019685 -2.05079,0.91811 -2.05079,2.05039 -0.00019685,1.13228 0.91811,2.05059 2.05039,2.05079 1.13228,0.00019685 2.05059,-0.91811 2.05079,-2.05039 0,-1.13228 -0.91811,-2.05059 -2.05039,-2.05079zm0 0.644291c-0.776575,0 -1.4065,0.629528 -1.4065,1.4061 -0.00019685,0.776575 0.629528,1.4065 1.4061,1.4065 0.776575,0.00019685 1.4063,-0.629528 1.4065,-1.4061 0,-0.776575 -0.629528,-1.4063 -1.4061,-1.4065z"/>
      </clipPath>
      <clipPath id="id1">
       <path d="M26.4315 1.56299c-1.13228,-0.00019685 -2.05079,0.91811 -2.05079,2.05039 -0.00019685,1.13228 0.91811,2.05059 2.05039,2.05079 1.13228,0 2.05059,-0.91811 2.05079,-2.05039 0,-1.13228 -0.91811,-2.05079 -2.05039,-2.05079zm0 0.644291c-0.776575,-0.00019685 -1.4065,0.629528 -1.4065,1.4061 -0.00019685,0.776575 0.629528,1.4063 1.4061,1.4065 0.776575,0 1.4063,-0.629724 1.4065,-1.4063 0,-0.776575 -0.629528,-1.4063 -1.4061,-1.4063z"/>
      </clipPath>
  <linearGradient id="id2" gradientUnits="userSpaceOnUse" x1="6.21909" y1="5.65571" x2="5.4002" y2="5.65571">
   <stop offset="0" style="stop-color:#C2C1C1"/>
   <stop offset="1" style="stop-color:white"/>
  </linearGradient>
  <linearGradient id="id3" gradientUnits="userSpaceOnUse" x1="31.9972" y1="15.4906" x2="-0.00433071" y2="15.4906">
   <stop offset="0" style="stop-color:#DEDEDD"/>
   <stop offset="0.470588" style="stop-color:white"/>
   <stop offset="1" style="stop-color:#E5E5E5"/>
  </linearGradient>
  <linearGradient id="id4" gradientUnits="userSpaceOnUse" xlink:href="#id2" x1="26.8598" y1="5.53445" x2="26.0409" y2="5.53445">
  </linearGradient>
 </defs>
 <g id="图层_x0020_1">
  <metadata id="CorelCorpID_0Corel-Layer"/>
  <g id="_28452544">
   <g>
    <g>
     <g style="clip-path:url(#id0)">
      <polygon id="_28454080" class="fil0" points="5.79055,3.73484 2.8811,3.64134 2.88091,3.82776 "/>
      <polygon id="_284540801" class="fil1" points="5.79055,3.73484 8.7,3.82835 8.7002,3.64193 "/>
      <polygon id="_2845408012" class="fil2" points="5.79055,3.73484 2.88091,3.82776 2.89291,4.01398 "/>
      <polygon id="_28454080123" class="fil3" points="5.79055,3.73484 8.7002,3.64193 8.68819,3.45571 "/>
      <polygon id="_284540801234" class="fil4" points="5.79055,3.73484 2.89291,4.01398 2.91673,4.19902 "/>
      <polygon id="_2845408012345" class="fil5" points="5.79055,3.73484 8.68819,3.45571 8.66437,3.27067 "/>
      <polygon id="_28454080123456" class="fil6" points="5.79055,3.73484 2.91673,4.19902 2.95236,4.38228 "/>
      <polygon id="_284540801234567" class="fil7" points="5.79055,3.73484 8.66437,3.27067 8.62874,3.0874 "/>
      <polygon id="_2845408012345678" class="fil8" points="5.79055,3.73484 2.95236,4.38228 2.9998,4.5628 "/>
      <polygon id="_28454080123456789" class="fil9" points="5.79055,3.73484 8.62874,3.0874 8.5813,2.90689 "/>
      <polygon id="_2845408012345678910" class="fil10" points="5.79055,3.73484 2.9998,4.5628 3.05846,4.73996 "/>
      <polygon id="_284540801234567891011" class="fil11" points="5.79055,3.73484 8.5813,2.90689 8.52264,2.72972 "/>
      <polygon id="_28454080123456789101112" class="fil12" points="5.79055,3.73484 3.05846,4.73996 3.12854,4.9128 "/>
      <polygon id="_2845408012345678910111213" class="fil13" points="5.79055,3.73484 8.52264,2.72972 8.45256,2.55689 "/>
      <polygon id="_284540801234567891011121314" class="fil14" points="5.79055,3.73484 3.12854,4.9128 3.20945,5.0811 "/>
      <polygon id="_28454080123456789101112131415" class="fil15" points="5.79055,3.73484 8.45256,2.55689 8.37165,2.38858 "/>
      <polygon id="_2845408012345678910111213141516" class="fil16" points="5.79055,3.73484 3.20945,5.0811 3.30098,5.2437 "/>
      <polygon id="_284540801234567891011121314151617" class="fil17" points="5.79055,3.73484 8.37165,2.38858 8.28012,2.22598 "/>
      <polygon id="_28454080123456789101112131415161718" class="fil18" points="5.79055,3.73484 3.30098,5.2437 3.40276,5.4 "/>
      <polygon id="_2845408012345678910111213141516171819" class="fil19" points="5.79055,3.73484 8.28012,2.22598 8.17835,2.06969 "/>
      <polygon id="_284540801234567891011121314151617181920" class="fil20" points="5.79055,3.73484 3.40276,5.4 3.51437,5.54961 "/>
      <polygon id="_28454080123456789101112131415161718192021" class="fil21" points="5.79055,3.73484 8.17835,2.06969 8.06673,1.92008 "/>
      <polygon id="_2845408012345678910111213141516171819202122" class="fil22" points="5.79055,3.73484 3.51437,5.54961 3.63543,5.69173 "/>
      <polygon id="_284540801234567891011121314151617181920212223" class="fil23" points="5.79055,3.73484 8.06673,1.92008 7.94567,1.77795 "/>
      <polygon id="_28454080123456789101112131415161718192021222324" class="fil24" points="5.79055,3.73484 3.63543,5.69173 3.76516,5.82579 "/>
      <polygon id="_2845408012345678910111213141516171819202122232425" class="fil25" points="5.79055,3.73484 7.94567,1.77795 7.81594,1.6439 "/>
      <polygon id="_284540801234567891011121314151617181920212223242526" class="fil26" points="5.79055,3.73484 3.76516,5.82579 3.90335,5.95118 "/>
      <polygon id="_28454080123456789101112131415161718192021222324252627" class="fil27" points="5.79055,3.73484 7.81594,1.6439 7.67776,1.5185 "/>
      <polygon id="_2845408012345678910111213141516171819202122232425262728" class="fil28" points="5.79055,3.73484 3.90335,5.95118 4.04921,6.06752 "/>
      <polygon id="_284540801234567891011121314151617181920212223242526272829" class="fil29" points="5.79055,3.73484 7.67776,1.5185 7.53189,1.40217 "/>
      <polygon id="_28454080123456789101112131415161718192021222324252627282930" class="fil30" points="5.79055,3.73484 4.04921,6.06752 4.20236,6.17441 "/>
      <polygon id="_2845408012345678910111213141516171819202122232425262728293031" class="fil31" points="5.79055,3.73484 7.53189,1.40217 7.37874,1.29528 "/>
      <polygon id="_284540801234567891011121314151617181920212223242526272829303132" class="fil32" points="5.79055,3.73484 4.20236,6.17441 4.36181,6.27106 "/>
      <polygon id="_28454080123456789101112131415161718192021222324252627282930313233" class="fil33" points="5.79055,3.73484 7.37874,1.29528 7.21929,1.19862 "/>
      <polygon id="_2845408012345678910111213141516171819202122232425262728293031323334" class="fil34" points="5.79055,3.73484 4.36181,6.27106 4.52736,6.35748 "/>
      <polygon id="_284540801234567891011121314151617181920212223242526272829303132333435" class="fil35" points="5.79055,3.73484 7.21929,1.19862 7.05374,1.1122 "/>
      <polygon id="_28454080123456789101112131415161718192021222324252627282930313233343536" class="fil36" points="5.79055,3.73484 4.52736,6.35748 4.69803,6.43307 "/>
      <polygon id="_2845408012345678910111213141516171819202122232425262728293031323334353637" class="fil37" points="5.79055,3.73484 7.05374,1.1122 6.88307,1.03661 "/>
      <polygon id="_284540801234567891011121314151617181920212223242526272829303132333435363738" class="fil38" points="5.79055,3.73484 4.69803,6.43307 4.87303,6.49744 "/>
      <polygon id="_28454080123456789101112131415161718192021222324252627282930313233343536373839" class="fil39" points="5.79055,3.73484 6.88307,1.03661 6.70807,0.972244 "/>
      <polygon id="_2845408012345678910111213141516171819202122232425262728293031323334353637383940" class="fil40" points="5.79055,3.73484 4.87303,6.49744 5.05197,6.55059 "/>
      <polygon id="_284540801234567891011121314151617181920212223242526272829303132333435363738394041" class="fil41" points="5.79055,3.73484 6.70807,0.972244 6.52913,0.919094 "/>
      <polygon id="_28454080123456789101112131415161718192021222324252627282930313233343536373839404142" class="fil42" points="5.79055,3.73484 5.05197,6.55059 5.23386,6.59213 "/>
      <polygon id="_2845408012345678910111213141516171819202122232425262728293031323334353637383940414243" class="fil43" points="5.79055,3.73484 6.52913,0.919094 6.34724,0.877559 "/>
      <polygon id="_284540801234567891011121314151617181920212223242526272829303132333435363738394041424344" class="fil44" points="5.79055,3.73484 5.23386,6.59213 5.41811,6.62205 "/>
      <polygon id="_28454080123456789101112131415161718192021222324252627282930313233343536373839404142434445" class="fil45" points="5.79055,3.73484 6.34724,0.877559 6.16299,0.847638 "/>
      <polygon id="_2845408012345678910111213141516171819202122232425262728293031323334353637383940414243444546" class="fil46" points="5.79055,3.73484 5.41811,6.62205 5.60394,6.63996 "/>
      <polygon id="_284540801234567891011121314151617181920212223242526272829303132333435363738394041424344454647" class="fil47" points="5.79055,3.73484 6.16299,0.847638 5.97717,0.829724 "/>
      <polygon id="_28454080123456789101112131415161718192021222324252627282930313233343536373839404142434445464748" class="fil48" points="5.79055,3.73484 5.60394,6.63996 5.79035,6.64587 "/>
      <polygon id="_2845408012345678910111213141516171819202122232425262728293031323334353637383940414243444546474849" class="fil49" points="5.79055,3.73484 5.97717,0.829724 5.79075,0.823819 "/>
      <polygon id="_284540801234567891011121314151617181920212223242526272829303132333435363738394041424344454647484950" class="fil49" points="5.79055,3.73484 5.79035,6.64587 5.97677,6.63996 "/>
      <polygon id="_28454080123456789101112131415161718192021222324252627282930313233343536373839404142434445464748495051" class="fil48" points="5.79055,3.73484 5.79075,0.823819 5.60433,0.829724 "/>
      <polygon id="_2845408012345678910111213141516171819202122232425262728293031323334353637383940414243444546474849505152" class="fil47" points="5.79055,3.73484 5.97677,6.63996 6.1624,6.62205 "/>
      <polygon id="_284540801234567891011121314151617181920212223242526272829303132333435363738394041424344454647484950515253" class="fil46" points="5.79055,3.73484 5.60433,0.829724 5.4187,0.847638 "/>
      <polygon id="_28454080123456789101112131415161718192021222324252627282930313233343536373839404142434445464748495051525354" class="fil45" points="5.79055,3.73484 6.1624,6.62205 6.34665,6.59232 "/>
      <polygon id="_2845408012345678910111213141516171819202122232425262728293031323334353637383940414243444546474849505152535455" class="fil44" points="5.79055,3.73484 5.4187,0.847638 5.23445,0.877362 "/>
      <polygon id="_284540801234567891011121314151617181920212223242526272829303132333435363738394041424344454647484950515253545556" class="fil43" points="5.79055,3.73484 6.34665,6.59232 6.52854,6.55079 "/>
      <polygon id="_28454080123456789101112131415161718192021222324252627282930313233343536373839404142434445464748495051525354555657" class="fil42" points="5.79055,3.73484 5.23445,0.877362 5.05256,0.918898 "/>
      <polygon id="_2845408012345678910111213141516171819202122232425262728293031323334353637383940414243444546474849505152535455565758" class="fil41" points="5.79055,3.73484 6.52854,6.55079 6.70748,6.49764 "/>
      <polygon id="_284540801234567891011121314151617181920212223242526272829303132333435363738394041424344454647484950515253545556575859" class="fil40" points="5.79055,3.73484 5.05256,0.918898 4.87362,0.972047 "/>
      <polygon id="_28454080123456789101112131415161718192021222324252627282930313233343536373839404142434445464748495051525354555657585960" class="fil39" points="5.79055,3.73484 6.70748,6.49764 6.88268,6.43327 "/>
      <polygon id="_2845408012345678910111213141516171819202122232425262728293031323334353637383940414243444546474849505152535455565758596061" class="fil38" points="5.79055,3.73484 4.87362,0.972047 4.69843,1.03642 "/>
      <polygon id="_284540801234567891011121314151617181920212223242526272829303132333435363738394041424344454647484950515253545556575859606162" class="fil37" points="5.79055,3.73484 6.88268,6.43327 7.05335,6.35768 "/>
      <polygon id="_28454080123456789101112131415161718192021222324252627282930313233343536373839404142434445464748495051525354555657585960616263" class="fil36" points="5.79055,3.73484 4.69843,1.03642 4.52776,1.11201 "/>
      <polygon id="_2845408012345678910111213141516171819202122232425262728293031323334353637383940414243444546474849505152535455565758596061626364" class="fil35" points="5.79055,3.73484 7.05335,6.35768 7.2187,6.27146 "/>
      <polygon id="_284540801234567891011121314151617181920212223242526272829303132333435363738394041424344454647484950515253545556575859606162636465" class="fil34" points="5.79055,3.73484 4.52776,1.11201 4.3624,1.19823 "/>
      <polygon id="_28454080123456789101112131415161718192021222324252627282930313233343536373839404142434445464748495051525354555657585960616263646566" class="fil33" points="5.79055,3.73484 7.2187,6.27146 7.37835,6.17461 "/>
      <polygon id="_2845408012345678910111213141516171819202122232425262728293031323334353637383940414243444546474849505152535455565758596061626364656667" class="fil32" points="5.79055,3.73484 4.3624,1.19823 4.20276,1.29508 "/>
      <polygon id="_284540801234567891011121314151617181920212223242526272829303132333435363738394041424344454647484950515253545556575859606162636465666768" class="fil31" points="5.79055,3.73484 7.37835,6.17461 7.5315,6.06791 "/>
      <polygon id="_28454080123456789101112131415161718192021222324252627282930313233343536373839404142434445464748495051525354555657585960616263646566676869" class="fil30" points="5.79055,3.73484 4.20276,1.29508 4.04961,1.40177 "/>
      <polygon id="_2845408012345678910111213141516171819202122232425262728293031323334353637383940414243444546474849505152535455565758596061626364656667686970" class="fil29" points="5.79055,3.73484 7.5315,6.06791 7.67736,5.95157 "/>
      <polygon id="_284540801234567891011121314151617181920212223242526272829303132333435363738394041424344454647484950515253545556575859606162636465666768697071" class="fil28" points="5.79055,3.73484 4.04961,1.40177 3.90374,1.51811 "/>
      <polygon id="_28454080123456789101112131415161718192021222324252627282930313233343536373839404142434445464748495051525354555657585960616263646566676869707172" class="fil27" points="5.79055,3.73484 7.67736,5.95157 7.81555,5.82618 "/>
      <polygon id="_2845408012345678910111213141516171819202122232425262728293031323334353637383940414243444546474849505152535455565758596061626364656667686970717273" class="fil26" points="5.79055,3.73484 3.90374,1.51811 3.76555,1.6435 "/>
      <polygon id="_284540801234567891011121314151617181920212223242526272829303132333435363738394041424344454647484950515253545556575859606162636465666768697071727374" class="fil25" points="5.79055,3.73484 7.81555,5.82618 7.94528,5.69213 "/>
      <polygon id="_28454080123456789101112131415161718192021222324252627282930313233343536373839404142434445464748495051525354555657585960616263646566676869707172737475" class="fil24" points="5.79055,3.73484 3.76555,1.6435 3.63583,1.77756 "/>
      <polygon id="_2845408012345678910111213141516171819202122232425262728293031323334353637383940414243444546474849505152535455565758596061626364656667686970717273747576" class="fil23" points="5.79055,3.73484 7.94528,5.69213 8.06634,5.55 "/>
      <polygon id="_284540801234567891011121314151617181920212223242526272829303132333435363738394041424344454647484950515253545556575859606162636465666768697071727374757677" class="fil22" points="5.79055,3.73484 3.63583,1.77756 3.51476,1.91969 "/>
      <polygon id="_28454080123456789101112131415161718192021222324252627282930313233343536373839404142434445464748495051525354555657585960616263646566676869707172737475767778" class="fil21" points="5.79055,3.73484 8.06634,5.55 8.17795,5.40039 "/>
      <polygon id="_2845408012345678910111213141516171819202122232425262728293031323334353637383940414243444546474849505152535455565758596061626364656667686970717273747576777879" class="fil20" points="5.79055,3.73484 3.51476,1.91969 3.40315,2.06929 "/>
      <polygon id="_284540801234567891011121314151617181920212223242526272829303132333435363738394041424344454647484950515253545556575859606162636465666768697071727374757677787980" class="fil19" points="5.79055,3.73484 8.17795,5.40039 8.27972,5.24409 "/>
      <polygon id="_28454080123456789101112131415161718192021222324252627282930313233343536373839404142434445464748495051525354555657585960616263646566676869707172737475767778798081" class="fil18" points="5.79055,3.73484 3.40315,2.06929 3.30138,2.22559 "/>
      <polygon id="_2845408012345678910111213141516171819202122232425262728293031323334353637383940414243444546474849505152535455565758596061626364656667686970717273747576777879808182" class="fil17" points="5.79055,3.73484 8.27972,5.24409 8.37126,5.0815 "/>
      <polygon id="_284540801234567891011121314151617181920212223242526272829303132333435363738394041424344454647484950515253545556575859606162636465666768697071727374757677787980818283" class="fil16" points="5.79055,3.73484 3.30138,2.22559 3.20984,2.38819 "/>
      <polygon id="_28454080123456789101112131415161718192021222324252627282930313233343536373839404142434445464748495051525354555657585960616263646566676869707172737475767778798081828384" class="fil15" points="5.79055,3.73484 8.37126,5.0815 8.45236,4.91339 "/>
      <polygon id="_2845408012345678910111213141516171819202122232425262728293031323334353637383940414243444546474849505152535455565758596061626364656667686970717273747576777879808182838485" class="fil14" points="5.79055,3.73484 3.20984,2.38819 3.12874,2.5563 "/>
      <polygon id="_284540801234567891011121314151617181920212223242526272829303132333435363738394041424344454647484950515253545556575859606162636465666768697071727374757677787980818283848586" class="fil13" points="5.79055,3.73484 8.45236,4.91339 8.52244,4.74035 "/>
      <polygon id="_28454080123456789101112131415161718192021222324252627282930313233343536373839404142434445464748495051525354555657585960616263646566676869707172737475767778798081828384858687" class="fil12" points="5.79055,3.73484 3.12874,2.5563 3.05866,2.72933 "/>
      <polygon id="_2845408012345678910111213141516171819202122232425262728293031323334353637383940414243444546474849505152535455565758596061626364656667686970717273747576777879808182838485868788" class="fil11" points="5.79055,3.73484 8.52244,4.74035 8.5811,4.56339 "/>
      <polygon id="_284540801234567891011121314151617181920212223242526272829303132333435363738394041424344454647484950515253545556575859606162636465666768697071727374757677787980818283848586878889" class="fil10" points="5.79055,3.73484 3.05866,2.72933 3,2.9063 "/>
      <polygon id="_28454080123456789101112131415161718192021222324252627282930313233343536373839404142434445464748495051525354555657585960616263646566676869707172737475767778798081828384858687888990" class="fil9" points="5.79055,3.73484 8.5811,4.56339 8.62854,4.38287 "/>
      <polygon id="_2845408012345678910111213141516171819202122232425262728293031323334353637383940414243444546474849505152535455565758596061626364656667686970717273747576777879808182838485868788899091" class="fil8" points="5.79055,3.73484 3,2.9063 2.95256,3.08681 "/>
      <polygon id="_284540801234567891011121314151617181920212223242526272829303132333435363738394041424344454647484950515253545556575859606162636465666768697071727374757677787980818283848586878889909192" class="fil7" points="5.79055,3.73484 8.62854,4.38287 8.66417,4.19961 "/>
      <polygon id="_28454080123456789101112131415161718192021222324252627282930313233343536373839404142434445464748495051525354555657585960616263646566676869707172737475767778798081828384858687888990919293" class="fil6" points="5.79055,3.73484 2.95256,3.08681 2.91693,3.27008 "/>
      <polygon id="_2845408012345678910111213141516171819202122232425262728293031323334353637383940414243444546474849505152535455565758596061626364656667686970717273747576777879808182838485868788899091929394" class="fil5" points="5.79055,3.73484 8.66417,4.19961 8.68819,4.01457 "/>
      <polygon id="_284540801234567891011121314151617181920212223242526272829303132333435363738394041424344454647484950515253545556575859606162636465666768697071727374757677787980818283848586878889909192939495" class="fil4" points="5.79055,3.73484 2.91693,3.27008 2.89291,3.45512 "/>
      <polygon id="_28454080123456789101112131415161718192021222324252627282930313233343536373839404142434445464748495051525354555657585960616263646566676869707172737475767778798081828384858687888990919293949596" class="fil3" points="5.79055,3.73484 8.68819,4.01457 8.7,3.82835 "/>
      <polygon id="_2845408012345678910111213141516171819202122232425262728293031323334353637383940414243444546474849505152535455565758596061626364656667686970717273747576777879808182838485868788899091929394959697" class="fil2" points="5.79055,3.73484 2.89291,3.45512 2.8811,3.64134 "/>
     </g>
     <path id="_284540801234567891011121314151617181920212223242526272829303132333435363738394041424344454647484950515253545556575859606162636465666768697071727374757677787980818283848586878889909192939495969798" class="fil50 str0" d="M5.79075 1.68425c-1.13228,-0.00019685 -2.05079,0.91811 -2.05079,2.05039 -0.00019685,1.13228 0.91811,2.05059 2.05039,2.05079 1.13228,0.00019685 2.05059,-0.91811 2.05079,-2.05039 0,-1.13228 -0.91811,-2.05059 -2.05039,-2.05079zm0 0.644291c-0.776575,0 -1.4065,0.629528 -1.4065,1.4061 -0.00019685,0.776575 0.629528,1.4065 1.4061,1.4065 0.776575,0.00019685 1.4063,-0.629528 1.4065,-1.4061 0,-0.776575 -0.629528,-1.4063 -1.4061,-1.4065z"/>
    </g>
    <polygon id="_28454008" class="fil51 str0" points="6.21909,4.64705 5.40039,4.64705 5.4002,6.66417 6.2189,6.66417 "/>
   </g>
   <path class="fil52 str0" d="M31.9972 6.54764l-32 -0.00334646 -0.00177165 17.8892 32 0.00334646 0.00177165 -17.8892zm-2.76437 2.06988l-26.3888 -0.00275591 -0.00137795 13.7071 26.3888 0.00275591 0.00137795 -13.7071z"/>
   <rect class="fil53 str0" transform="matrix(-0.0887858 -9.33946E-006 -4.50582E-005 0.428346 2.8638 8.61359)" width="32" height="32"/>
   <rect class="fil53 str0" transform="matrix(-0.0863805 -9.08645E-006 -4.50582E-005 0.428346 32.0044 8.61725)" width="32" height="32"/>
   <g id="_28453528">
    <circle id="_28453696" class="fil54" cx="30.6307" cy="10.99" r="0.739567"/>
    <circle id="_28453624" class="fil55" cx="30.6447" cy="13.2366" r="0.735236"/>
    <circle id="_28453552" class="fil56" cx="30.6453" cy="15.4661" r="0.736811"/>
   </g>
   <g id="_28452400">
    <g>
     <g style="clip-path:url(#id1)">
      <polygon id="_28453456" class="fil0" points="26.4313,3.61358 23.5219,3.52008 23.5217,3.7065 "/>
      <polygon id="_284534561" class="fil1" points="26.4313,3.61358 29.3407,3.70709 29.3409,3.52067 "/>
      <polygon id="_2845345612" class="fil2" points="26.4313,3.61358 23.5217,3.7065 23.5337,3.89272 "/>
      <polygon id="_28453456123" class="fil3" points="26.4313,3.61358 29.3409,3.52067 29.3289,3.33445 "/>
      <polygon id="_284534561234" class="fil4" points="26.4313,3.61358 23.5337,3.89272 23.5575,4.07776 "/>
      <polygon id="_2845345612345" class="fil5" points="26.4313,3.61358 29.3289,3.33445 29.3051,3.14941 "/>
      <polygon id="_28453456123456" class="fil6" points="26.4313,3.61358 23.5575,4.07776 23.5931,4.26102 "/>
      <polygon id="_284534561234567" class="fil7" points="26.4313,3.61358 29.3051,3.14941 29.2695,2.96614 "/>
      <polygon id="_2845345612345678" class="fil8" points="26.4313,3.61358 23.5931,4.26102 23.6406,4.44154 "/>
      <polygon id="_28453456123456789" class="fil9" points="26.4313,3.61358 29.2695,2.96614 29.222,2.78563 "/>
      <polygon id="_2845345612345678910" class="fil10" points="26.4313,3.61358 23.6406,4.44154 23.6992,4.6187 "/>
      <polygon id="_284534561234567891011" class="fil11" points="26.4313,3.61358 29.222,2.78563 29.1634,2.60846 "/>
      <polygon id="_28453456123456789101112" class="fil12" points="26.4313,3.61358 23.6992,4.6187 23.7693,4.79154 "/>
      <polygon id="_2845345612345678910111213" class="fil13" points="26.4313,3.61358 29.1634,2.60846 29.0933,2.43563 "/>
      <polygon id="_284534561234567891011121314" class="fil14" points="26.4313,3.61358 23.7693,4.79154 23.8502,4.95984 "/>
      <polygon id="_28453456123456789101112131415" class="fil15" points="26.4313,3.61358 29.0933,2.43563 29.0124,2.26732 "/>
      <polygon id="_2845345612345678910111213141516" class="fil16" points="26.4313,3.61358 23.8502,4.95984 23.9417,5.12244 "/>
      <polygon id="_284534561234567891011121314151617" class="fil17" points="26.4313,3.61358 29.0124,2.26732 28.9209,2.10472 "/>
      <polygon id="_28453456123456789101112131415161718" class="fil18" points="26.4313,3.61358 23.9417,5.12244 24.0435,5.27874 "/>
      <polygon id="_2845345612345678910111213141516171819" class="fil19" points="26.4313,3.61358 28.9209,2.10472 28.8191,1.94843 "/>
      <polygon id="_284534561234567891011121314151617181920" class="fil20" points="26.4313,3.61358 24.0435,5.27874 24.1551,5.42835 "/>
      <polygon id="_28453456123456789101112131415161718192021" class="fil21" points="26.4313,3.61358 28.8191,1.94843 28.7075,1.79882 "/>
      <polygon id="_2845345612345678910111213141516171819202122" class="fil22" points="26.4313,3.61358 24.1551,5.42835 24.2762,5.57047 "/>
      <polygon id="_284534561234567891011121314151617181920212223" class="fil23" points="26.4313,3.61358 28.7075,1.79882 28.5864,1.65669 "/>
      <polygon id="_28453456123456789101112131415161718192021222324" class="fil24" points="26.4313,3.61358 24.2762,5.57047 24.4059,5.70453 "/>
      <polygon id="_2845345612345678910111213141516171819202122232425" class="fil25" points="26.4313,3.61358 28.5864,1.65669 28.4567,1.52264 "/>
      <polygon id="_284534561234567891011121314151617181920212223242526" class="fil26" points="26.4313,3.61358 24.4059,5.70453 24.5441,5.82992 "/>
      <polygon id="_28453456123456789101112131415161718192021222324252627" class="fil27" points="26.4313,3.61358 28.4567,1.52264 28.3185,1.39724 "/>
      <polygon id="_2845345612345678910111213141516171819202122232425262728" class="fil28" points="26.4313,3.61358 24.5441,5.82992 24.69,5.94626 "/>
      <polygon id="_284534561234567891011121314151617181920212223242526272829" class="fil29" points="26.4313,3.61358 28.3185,1.39724 28.1726,1.28091 "/>
      <polygon id="_28453456123456789101112131415161718192021222324252627282930" class="fil30" points="26.4313,3.61358 24.69,5.94626 24.8431,6.05315 "/>
      <polygon id="_2845345612345678910111213141516171819202122232425262728293031" class="fil31" points="26.4313,3.61358 28.1726,1.28091 28.0195,1.17402 "/>
      <polygon id="_284534561234567891011121314151617181920212223242526272829303132" class="fil32" points="26.4313,3.61358 24.8431,6.05315 25.0026,6.1498 "/>
      <polygon id="_28453456123456789101112131415161718192021222324252627282930313233" class="fil33" points="26.4313,3.61358 28.0195,1.17402 27.86,1.07736 "/>
      <polygon id="_2845345612345678910111213141516171819202122232425262728293031323334" class="fil34" points="26.4313,3.61358 25.0026,6.1498 25.1681,6.23622 "/>
      <polygon id="_284534561234567891011121314151617181920212223242526272829303132333435" class="fil35" points="26.4313,3.61358 27.86,1.07736 27.6945,0.990945 "/>
      <polygon id="_28453456123456789101112131415161718192021222324252627282930313233343536" class="fil36" points="26.4313,3.61358 25.1681,6.23622 25.3388,6.31181 "/>
      <polygon id="_2845345612345678910111213141516171819202122232425262728293031323334353637" class="fil37" points="26.4313,3.61358 27.6945,0.990945 27.5238,0.915354 "/>
      <polygon id="_284534561234567891011121314151617181920212223242526272829303132333435363738" class="fil38" points="26.4313,3.61358 25.3388,6.31181 25.5138,6.37618 "/>
      <polygon id="_28453456123456789101112131415161718192021222324252627282930313233343536373839" class="fil39" points="26.4313,3.61358 27.5238,0.915354 27.3488,0.850984 "/>
      <polygon id="_2845345612345678910111213141516171819202122232425262728293031323334353637383940" class="fil40" points="26.4313,3.61358 25.5138,6.37618 25.6927,6.42933 "/>
      <polygon id="_284534561234567891011121314151617181920212223242526272829303132333435363738394041" class="fil41" points="26.4313,3.61358 27.3488,0.850984 27.1699,0.797835 "/>
      <polygon id="_28453456123456789101112131415161718192021222324252627282930313233343536373839404142" class="fil42" points="26.4313,3.61358 25.6927,6.42933 25.8746,6.47087 "/>
      <polygon id="_2845345612345678910111213141516171819202122232425262728293031323334353637383940414243" class="fil43" points="26.4313,3.61358 27.1699,0.797835 26.988,0.756299 "/>
      <polygon id="_284534561234567891011121314151617181920212223242526272829303132333435363738394041424344" class="fil44" points="26.4313,3.61358 25.8746,6.47087 26.0589,6.50079 "/>
      <polygon id="_28453456123456789101112131415161718192021222324252627282930313233343536373839404142434445" class="fil45" points="26.4313,3.61358 26.988,0.756299 26.8037,0.726378 "/>
      <polygon id="_2845345612345678910111213141516171819202122232425262728293031323334353637383940414243444546" class="fil46" points="26.4313,3.61358 26.0589,6.50079 26.2447,6.5187 "/>
      <polygon id="_284534561234567891011121314151617181920212223242526272829303132333435363738394041424344454647" class="fil47" points="26.4313,3.61358 26.8037,0.726378 26.6179,0.708465 "/>
      <polygon id="_28453456123456789101112131415161718192021222324252627282930313233343536373839404142434445464748" class="fil48" points="26.4313,3.61358 26.2447,6.5187 26.4311,6.52461 "/>
      <polygon id="_2845345612345678910111213141516171819202122232425262728293031323334353637383940414243444546474849" class="fil49" points="26.4313,3.61358 26.6179,0.708465 26.4315,0.702559 "/>
      <polygon id="_284534561234567891011121314151617181920212223242526272829303132333435363738394041424344454647484950" class="fil49" points="26.4313,3.61358 26.4311,6.52461 26.6175,6.5187 "/>
      <polygon id="_28453456123456789101112131415161718192021222324252627282930313233343536373839404142434445464748495051" class="fil48" points="26.4313,3.61358 26.4315,0.702559 26.2451,0.708465 "/>
      <polygon id="_2845345612345678910111213141516171819202122232425262728293031323334353637383940414243444546474849505152" class="fil47" points="26.4313,3.61358 26.6175,6.5187 26.8031,6.50079 "/>
      <polygon id="_284534561234567891011121314151617181920212223242526272829303132333435363738394041424344454647484950515253" class="fil46" points="26.4313,3.61358 26.2451,0.708465 26.0594,0.726378 "/>
      <polygon id="_28453456123456789101112131415161718192021222324252627282930313233343536373839404142434445464748495051525354" class="fil45" points="26.4313,3.61358 26.8031,6.50079 26.9874,6.47106 "/>
      <polygon id="_2845345612345678910111213141516171819202122232425262728293031323334353637383940414243444546474849505152535455" class="fil44" points="26.4313,3.61358 26.0594,0.726378 25.8752,0.756102 "/>
      <polygon id="_284534561234567891011121314151617181920212223242526272829303132333435363738394041424344454647484950515253545556" class="fil43" points="26.4313,3.61358 26.9874,6.47106 27.1693,6.42953 "/>
      <polygon id="_28453456123456789101112131415161718192021222324252627282930313233343536373839404142434445464748495051525354555657" class="fil42" points="26.4313,3.61358 25.8752,0.756102 25.6933,0.797638 "/>
      <polygon id="_2845345612345678910111213141516171819202122232425262728293031323334353637383940414243444546474849505152535455565758" class="fil41" points="26.4313,3.61358 27.1693,6.42953 27.3482,6.37638 "/>
      <polygon id="_284534561234567891011121314151617181920212223242526272829303132333435363738394041424344454647484950515253545556575859" class="fil40" points="26.4313,3.61358 25.6933,0.797638 25.5144,0.850787 "/>
      <polygon id="_28453456123456789101112131415161718192021222324252627282930313233343536373839404142434445464748495051525354555657585960" class="fil39" points="26.4313,3.61358 27.3482,6.37638 27.5234,6.31201 "/>
      <polygon id="_2845345612345678910111213141516171819202122232425262728293031323334353637383940414243444546474849505152535455565758596061" class="fil38" points="26.4313,3.61358 25.5144,0.850787 25.3392,0.915157 "/>
      <polygon id="_284534561234567891011121314151617181920212223242526272829303132333435363738394041424344454647484950515253545556575859606162" class="fil37" points="26.4313,3.61358 27.5234,6.31201 27.6941,6.23642 "/>
      <polygon id="_28453456123456789101112131415161718192021222324252627282930313233343536373839404142434445464748495051525354555657585960616263" class="fil36" points="26.4313,3.61358 25.3392,0.915157 25.1685,0.990748 "/>
      <polygon id="_2845345612345678910111213141516171819202122232425262728293031323334353637383940414243444546474849505152535455565758596061626364" class="fil35" points="26.4313,3.61358 27.6941,6.23642 27.8594,6.1502 "/>
      <polygon id="_284534561234567891011121314151617181920212223242526272829303132333435363738394041424344454647484950515253545556575859606162636465" class="fil34" points="26.4313,3.61358 25.1685,0.990748 25.0031,1.07697 "/>
      <polygon id="_28453456123456789101112131415161718192021222324252627282930313233343536373839404142434445464748495051525354555657585960616263646566" class="fil33" points="26.4313,3.61358 27.8594,6.1502 28.0191,6.05335 "/>
      <polygon id="_2845345612345678910111213141516171819202122232425262728293031323334353637383940414243444546474849505152535455565758596061626364656667" class="fil32" points="26.4313,3.61358 25.0031,1.07697 24.8435,1.17382 "/>
      <polygon id="_284534561234567891011121314151617181920212223242526272829303132333435363738394041424344454647484950515253545556575859606162636465666768" class="fil31" points="26.4313,3.61358 28.0191,6.05335 28.1722,5.94665 "/>
      <polygon id="_28453456123456789101112131415161718192021222324252627282930313233343536373839404142434445464748495051525354555657585960616263646566676869" class="fil30" points="26.4313,3.61358 24.8435,1.17382 24.6904,1.28051 "/>
      <polygon id="_2845345612345678910111213141516171819202122232425262728293031323334353637383940414243444546474849505152535455565758596061626364656667686970" class="fil29" points="26.4313,3.61358 28.1722,5.94665 28.3181,5.83031 "/>
      <polygon id="_284534561234567891011121314151617181920212223242526272829303132333435363738394041424344454647484950515253545556575859606162636465666768697071" class="fil28" points="26.4313,3.61358 24.6904,1.28051 24.5445,1.39685 "/>
      <polygon id="_28453456123456789101112131415161718192021222324252627282930313233343536373839404142434445464748495051525354555657585960616263646566676869707172" class="fil27" points="26.4313,3.61358 28.3181,5.83031 28.4563,5.70492 "/>
      <polygon id="_2845345612345678910111213141516171819202122232425262728293031323334353637383940414243444546474849505152535455565758596061626364656667686970717273" class="fil26" points="26.4313,3.61358 24.5445,1.39685 24.4063,1.52224 "/>
      <polygon id="_284534561234567891011121314151617181920212223242526272829303132333435363738394041424344454647484950515253545556575859606162636465666768697071727374" class="fil25" points="26.4313,3.61358 28.4563,5.70492 28.586,5.57087 "/>
      <polygon id="_28453456123456789101112131415161718192021222324252627282930313233343536373839404142434445464748495051525354555657585960616263646566676869707172737475" class="fil24" points="26.4313,3.61358 24.4063,1.52224 24.2766,1.6563 "/>
      <polygon id="_2845345612345678910111213141516171819202122232425262728293031323334353637383940414243444546474849505152535455565758596061626364656667686970717273747576" class="fil23" points="26.4313,3.61358 28.586,5.57087 28.7071,5.42874 "/>
      <polygon id="_284534561234567891011121314151617181920212223242526272829303132333435363738394041424344454647484950515253545556575859606162636465666768697071727374757677" class="fil22" points="26.4313,3.61358 24.2766,1.6563 24.1555,1.79843 "/>
      <polygon id="_28453456123456789101112131415161718192021222324252627282930313233343536373839404142434445464748495051525354555657585960616263646566676869707172737475767778" class="fil21" points="26.4313,3.61358 28.7071,5.42874 28.8187,5.27913 "/>
      <polygon id="_2845345612345678910111213141516171819202122232425262728293031323334353637383940414243444546474849505152535455565758596061626364656667686970717273747576777879" class="fil20" points="26.4313,3.61358 24.1555,1.79843 24.0439,1.94803 "/>
      <polygon id="_284534561234567891011121314151617181920212223242526272829303132333435363738394041424344454647484950515253545556575859606162636465666768697071727374757677787980" class="fil19" points="26.4313,3.61358 28.8187,5.27913 28.9205,5.12283 "/>
      <polygon id="_28453456123456789101112131415161718192021222324252627282930313233343536373839404142434445464748495051525354555657585960616263646566676869707172737475767778798081" class="fil18" points="26.4313,3.61358 24.0439,1.94803 23.9421,2.10433 "/>
      <polygon id="_2845345612345678910111213141516171819202122232425262728293031323334353637383940414243444546474849505152535455565758596061626364656667686970717273747576777879808182" class="fil17" points="26.4313,3.61358 28.9205,5.12283 29.012,4.96024 "/>
      <polygon id="_284534561234567891011121314151617181920212223242526272829303132333435363738394041424344454647484950515253545556575859606162636465666768697071727374757677787980818283" class="fil16" points="26.4313,3.61358 23.9421,2.10433 23.8506,2.26693 "/>
      <polygon id="_28453456123456789101112131415161718192021222324252627282930313233343536373839404142434445464748495051525354555657585960616263646566676869707172737475767778798081828384" class="fil15" points="26.4313,3.61358 29.012,4.96024 29.0931,4.79213 "/>
      <polygon id="_2845345612345678910111213141516171819202122232425262728293031323334353637383940414243444546474849505152535455565758596061626364656667686970717273747576777879808182838485" class="fil14" points="26.4313,3.61358 23.8506,2.26693 23.7695,2.43504 "/>
      <polygon id="_284534561234567891011121314151617181920212223242526272829303132333435363738394041424344454647484950515253545556575859606162636465666768697071727374757677787980818283848586" class="fil13" points="26.4313,3.61358 29.0931,4.79213 29.1632,4.61909 "/>
      <polygon id="_28453456123456789101112131415161718192021222324252627282930313233343536373839404142434445464748495051525354555657585960616263646566676869707172737475767778798081828384858687" class="fil12" points="26.4313,3.61358 23.7695,2.43504 23.6994,2.60807 "/>
      <polygon id="_2845345612345678910111213141516171819202122232425262728293031323334353637383940414243444546474849505152535455565758596061626364656667686970717273747576777879808182838485868788" class="fil11" points="26.4313,3.61358 29.1632,4.61909 29.2219,4.44213 "/>
      <polygon id="_284534561234567891011121314151617181920212223242526272829303132333435363738394041424344454647484950515253545556575859606162636465666768697071727374757677787980818283848586878889" class="fil10" points="26.4313,3.61358 23.6994,2.60807 23.6407,2.78504 "/>
      <polygon id="_28453456123456789101112131415161718192021222324252627282930313233343536373839404142434445464748495051525354555657585960616263646566676869707172737475767778798081828384858687888990" class="fil9" points="26.4313,3.61358 29.2219,4.44213 29.2693,4.26161 "/>
      <polygon id="_2845345612345678910111213141516171819202122232425262728293031323334353637383940414243444546474849505152535455565758596061626364656667686970717273747576777879808182838485868788899091" class="fil8" points="26.4313,3.61358 23.6407,2.78504 23.5933,2.96555 "/>
      <polygon id="_284534561234567891011121314151617181920212223242526272829303132333435363738394041424344454647484950515253545556575859606162636465666768697071727374757677787980818283848586878889909192" class="fil7" points="26.4313,3.61358 29.2693,4.26161 29.3049,4.07835 "/>
      <polygon id="_28453456123456789101112131415161718192021222324252627282930313233343536373839404142434445464748495051525354555657585960616263646566676869707172737475767778798081828384858687888990919293" class="fil6" points="26.4313,3.61358 23.5933,2.96555 23.5577,3.14882 "/>
      <polygon id="_2845345612345678910111213141516171819202122232425262728293031323334353637383940414243444546474849505152535455565758596061626364656667686970717273747576777879808182838485868788899091929394" class="fil5" points="26.4313,3.61358 29.3049,4.07835 29.3289,3.89331 "/>
      <polygon id="_284534561234567891011121314151617181920212223242526272829303132333435363738394041424344454647484950515253545556575859606162636465666768697071727374757677787980818283848586878889909192939495" class="fil4" points="26.4313,3.61358 23.5577,3.14882 23.5337,3.33386 "/>
      <polygon id="_28453456123456789101112131415161718192021222324252627282930313233343536373839404142434445464748495051525354555657585960616263646566676869707172737475767778798081828384858687888990919293949596" class="fil3" points="26.4313,3.61358 29.3289,3.89331 29.3407,3.70709 "/>
      <polygon id="_2845345612345678910111213141516171819202122232425262728293031323334353637383940414243444546474849505152535455565758596061626364656667686970717273747576777879808182838485868788899091929394959697" class="fil2" points="26.4313,3.61358 23.5337,3.33386 23.5219,3.52008 "/>
     </g>
     <path id="_284534561234567891011121314151617181920212223242526272829303132333435363738394041424344454647484950515253545556575859606162636465666768697071727374757677787980818283848586878889909192939495969798" class="fil50 str0" d="M26.4315 1.56299c-1.13228,-0.00019685 -2.05079,0.91811 -2.05079,2.05039 -0.00019685,1.13228 0.91811,2.05059 2.05039,2.05079 1.13228,0 2.05059,-0.91811 2.05079,-2.05039 0,-1.13228 -0.91811,-2.05079 -2.05039,-2.05079zm0 0.644291c-0.776575,-0.00019685 -1.4065,0.629528 -1.4065,1.4061 -0.00019685,0.776575 0.629528,1.4063 1.4061,1.4065 0.776575,0 1.4063,-0.629724 1.4065,-1.4063 0,-0.776575 -0.629528,-1.4063 -1.4061,-1.4063z"/>
    </g>
    <polygon class="fil57 str0" points="26.8598,4.52579 26.0411,4.52579 26.0409,6.54291 26.8596,6.54291 "/>
   </g>
   <rect class="fil58 str0" x="2.88642" y="8.61201" width="26.3965" height="13.7028"/>
   <polygon class="fil59" points="19.9213,11.1972 14.5825,11.1972 14.5825,14.8445 18.6185,14.8445 18.6185,16.0807 14.5825,16.0807 14.5825,21.0947 13.0852,21.0947 13.0852,9.96122 19.9213,9.96122 "/>
  </g>
 </g>
</svg>
