<?xml version="1.0" encoding="UTF-8"?>
<!DOCTYPE svg PUBLIC "-//W3C//DTD SVG 1.1//EN" "http://www.w3.org/Graphics/SVG/1.1/DTD/svg11.dtd">
<!-- Creator: CorelDRAW -->
<svg xmlns="http://www.w3.org/2000/svg" xml:space="preserve" width="32px" height="32px" style="shape-rendering:geometricPrecision; text-rendering:geometricPrecision; image-rendering:optimizeQuality; fill-rule:evenodd; clip-rule:evenodd"
viewBox="0 0 32 32"
 xmlns:xlink="http://www.w3.org/1999/xlink">
 <defs>
  <style type="text/css">
   <![CDATA[
    .str0 {stroke:#1F1A17;stroke-width:0.15}
    .fil0 {fill:#7CC3E3}
    .fil1 {fill:white;fill-rule:nonzero}
   ]]>
  </style>
 </defs>
 <g id="图层_x0020_1">
  <metadata id="CorelCorpID_0Corel-Layer"/>
  <circle class="fil0 str0" cx="15.9604" cy="16.1183" r="15.7478"/>
  <path class="fil1" d="M3.46949 14.3813l0 -0.929134 2.54508 0 0 -1.27264c0.459449,0 0.75748,0.011811 0.895472,0.0338583 0.183465,0 0.28622,0.011811 0.309646,0.0352362 0,0.0220472 -0.011811,0.0572835 -0.0352362,0.102756 -0.0909449,0.183465 -0.126181,0.37874 -0.102756,0.58563l0 0.515157 2.54508 0 0 0.929134 -2.54508 0 0 0.998031 3.09567 0 0 0.927756 -2.47618 0c0.573819,0.917323 1.54843,1.60571 2.92382,2.06516 0,0.0218504 -0.0572835,0.102756 -0.17185,0.240551 -0.252362,0.367126 -0.447638,0.653346 -0.58563,0.860236 -1.3063,-0.574016 -2.23543,-1.34154 -2.78583,-2.30591l0 3.06181 -1.06713 0 0 -3.06181c-0.617913,0.849803 -1.50138,1.64094 -2.64783,2.3748 -0.412402,-0.366929 -0.711811,-0.642913 -0.895276,-0.826378 1.14783,-0.504921 2.11063,-1.30768 2.88996,-2.40846l-2.47618 0 0 -0.927756 3.12933 0 0 -0.998031 -2.54508 0z"/>
  <path id="1" class="fil1" d="M15.3449 13.1087c-0.0454724,-0.344882 -0.102756,-0.619291 -0.171654,-0.826378 -0.0234252,-0.0454724 -0.0234252,-0.0791339 0,-0.102756 0,0 0.126181,-0.0116142 0.37874,-0.0336614 0.274409,-0.0234252 0.629528,-0.0470472 1.06555,-0.0690945 0.0234252,0.160039 0.0352362,0.436024 0.0352362,0.825 0,0.0688976 0,0.137992 0,0.20689l2.92382 0 0 1.54705 -1.23878 0 0 -0.584055 -4.95374 0 0 0.584055 -1.16988 0 0 -1.54705 3.13071 0zm3.40531 2.64783l-2.13268 0 0 0.895472 2.09902 0 0 0.998031 -2.09902 0 0 1.27264c0.619488,0 1.26083,-0.011811 1.92717,-0.0352362 0.550394,0 0.996654,-0.011811 1.34154,-0.0338583 -0.252362,0.343504 -0.37874,0.745669 -0.37874,1.20374 -2.61398,-0.0220472 -4.10531,-0.160039 -4.47224,-0.412598 -0.390354,-0.159843 -0.733858,-0.459449 -1.03189,-0.893898 -0.412402,0.526969 -0.836614,0.996654 -1.27244,1.40906 -0.275984,-0.319882 -0.562205,-0.550394 -0.860236,-0.686811 0.93937,-0.733858 1.54705,-1.83484 1.82303,-3.30256 0.802953,0.228937 1.21535,0.366929 1.23878,0.412402 0,0.023622 -0.0688976,0.195276 -0.20689,0.516732 -0.0690945,0.205512 -0.137992,0.412402 -0.207087,0.617913 0.207087,0.413976 0.516732,0.723622 0.929134,0.929134l0 -2.89016 -2.33957 0 0 -0.927559 5.64213 0 0 0.927559z"/>
  <path id="12" class="fil1" d="M24.7427 14.9317c-0.137992,-0.779331 -0.412402,-1.47953 -0.824803,-2.09902 0,-0.0218504 0,-0.0454724 0,-0.0688976 0.664961,-0.228937 1.06555,-0.377165 1.20354,-0.44626 0.343504,0.779528 0.631102,1.50157 0.860039,2.16654 -0.412402,0.137992 -0.826378,0.287598 -1.23878,0.447638zm0.447638 1.78917c0.688386,-0.826378 1.22717,-2.13268 1.61614,-3.92185 0.986417,0.183465 1.44567,0.343504 1.37677,0.481496 -0.137992,0.183465 -0.309646,0.538583 -0.516732,1.06693 -0.343504,1.05394 -0.860039,2.08583 -1.54705,3.09567 0.687008,0.526969 1.73051,1.0435 3.13091,1.54843 -0.366929,0.298031 -0.631299,0.676772 -0.792717,1.13465 -1.55866,-0.641339 -2.67126,-1.22717 -3.33622,-1.75394 -0.940945,0.733858 -1.97264,1.35315 -3.09547,1.85669 -0.275984,-0.412402 -0.58563,-0.733858 -0.929134,-0.962795 1.16969,-0.343504 2.23543,-0.905709 3.1998,-1.68504 -0.91752,-0.940945 -1.64114,-2.31614 -2.16791,-4.12894 0,-0.0220472 0.309646,-0.126181 0.928937,-0.309646 0.205512,-0.0911417 0.321457,-0.011811 0.343504,0.240748 0.412402,1.46772 1.00984,2.58031 1.78917,3.3376z"/>
 </g>
</svg>
