<?xml version="1.0" encoding="UTF-8"?>
<!DOCTYPE svg PUBLIC "-//W3C//DTD SVG 1.1//EN" "http://www.w3.org/Graphics/SVG/1.1/DTD/svg11.dtd">
<!-- Creator: CorelDRAW -->
<svg xmlns="http://www.w3.org/2000/svg" xml:space="preserve" width="32px" height="32px" style="shape-rendering:geometricPrecision; text-rendering:geometricPrecision; image-rendering:optimizeQuality; fill-rule:evenodd; clip-rule:evenodd"
viewBox="0 0 22.4125 22.4125"
 xmlns:xlink="http://www.w3.org/1999/xlink">
 <defs>
  <style type="text/css">
   <![CDATA[
    .str0 {stroke:#1F1A17;stroke-width:0.104583}
    .str1 {stroke:#1F1A17;stroke-width:0.274497}
    .fil4 {fill:none}
    .fil0 {fill:#00923F}
    .fil3 {fill:#DEDEDD}
    .fil1 {fill:#B1FF01}
    .fil2 {fill:url(#id0)}
   ]]>
  </style>
  <linearGradient id="id0" gradientUnits="userSpaceOnUse" x1="19.0384" y1="-2.3593" x2="3.37425" y2="24.7717">
   <stop offset="0" style="stop-color:#B2B2B2"/>
   <stop offset="0.14902" style="stop-color:#E5E5E5"/>
   <stop offset="0.290196" style="stop-color:#B2B2B2"/>
   <stop offset="0.490196" style="stop-color:white"/>
   <stop offset="0.729412" style="stop-color:#B2B2B2"/>
   <stop offset="0.909804" style="stop-color:#E5E5E5"/>
   <stop offset="0.988235" style="stop-color:#B2B2B2"/>
   <stop offset="1" style="stop-color:white"/>
  </linearGradient>
 </defs>
 <g id="图层_x0020_1">
  <metadata id="CorelCorpID_0Corel-Layer"/>
  <g id="_110886920">
   <circle id="_111224376" class="fil0 str0" cx="11.2062" cy="11.2061" r="8.36666"/>
   <path id="_111226800" class="fil1 str0" d="M16.7569 14.0788l-3.10222 2.75142 -3.23316 0.00260772 1.94152 -1.47679 0 0 -6.6446 -0.00219597 -0.0639577 -2.53539 6.71131 0 -1.9643 -1.42683 3.22973 -0.00233322 3.12569 2.68952zm-11.1015 -5.91938l3.10222 -2.75142 3.23316 -0.00260772 -1.94152 1.47679 0 0 6.6446 0.00219597 0.0639577 2.53539 -6.71131 0 1.9643 1.42683 -3.22973 0.00233322 -3.12569 -2.68952z"/>
   <g>
    <path id="_111224280" class="fil2 str0" d="M20.8672 5.62842c3.07999,5.33471 1.25143,12.1588 -4.08328,15.2388 -5.33457,3.07999 -12.1587,1.25143 -15.2387,-4.08328 -3.07999,-5.33457 -1.25143,-12.1587 4.08314,-15.2387 5.33471,-3.07999 12.1588,-1.25143 15.2388,4.08314zm-2.41543 1.39431c0.288771,0.500133 0.519897,1.01783 0.695575,1.54514l0.000137248 0c0.0219597,0.0658792 0.043096,0.132033 0.0632715,0.198187l0.000137248 0c0.0404883,0.132445 0.0772708,0.265438 0.110897,0.398844l0.000137248 0c0.0167443,0.0667027 0.0326651,0.133543 0.0477624,0.200383l0.000137248 0c0.045292,0.200657 0.0827608,0.402275 0.112955,0.604304l0.000137248 0c0.0502329,0.33667 0.0791923,0.674438 0.0879762,1.01166l0.000137248 0c0.00178423,0.0673889 0.00247047,0.134778 0.00260772,0.202167 0.000137248,0.0673889 -0.000411745,0.134641 -0.00192148,0.20203l-0.000137248 0c-0.00150973,0.0672517 -0.00370571,0.134503 -0.00686242,0.201618l-0.000137248 0c-0.00315671,0.0671144 -0.00686242,0.134092 -0.0116661,0.201069l-0.000137248 0.000137248c-0.00466644,0.0669772 -0.0101564,0.133954 -0.0164698,0.200657l-0.000137248 0c-0.00631342,0.0668399 -0.0133131,0.133405 -0.0212735,0.199971l-0.000137248 0c-0.0079604,0.0665654 -0.0164698,0.133131 -0.0260772,0.199422l-0.000137248 0c-0.00947014,0.0662909 -0.0196265,0.132582 -0.0307436,0.198598l-0.000137248 0c-0.0111171,0.0660165 -0.0227832,0.131896 -0.0354101,0.197638l-0.000137248 0c-0.0126268,0.065742 -0.0259399,0.131347 -0.0402138,0.196677l-0.000137248 0.000137248c-0.0142738,0.0653302 -0.0292339,0.130523 -0.0448802,0.195579l-0.000137248 0c-0.0157836,0.0650557 -0.0321161,0.129837 -0.0495467,0.194481l-0.000137248 0c-0.0172933,0.064644 -0.0352728,0.129013 -0.0540758,0.193246l-0.000137248 0.000137248c-0.018803,0.064095 -0.0382923,0.128053 -0.0587423,0.191873l-0.000137248 0c-0.0203128,0.0636832 -0.0413118,0.127229 -0.0632715,0.190501l-0.000137248 0.000137248c-0.0218225,0.0632715 -0.0444685,0.126268 -0.0679379,0.188991l-0.000137248 0c-0.0234695,0.0627225 -0.0474879,0.12517 -0.0723299,0.187344l-0.000137248 0c-0.0249792,0.0621735 -0.0505074,0.124073 -0.0768591,0.185697l-0.000137248 0.000137248c-0.0263517,0.0616245 -0.0535269,0.122975 -0.0813883,0.183913l-0.000137248 0c-0.0278614,0.0610755 -0.0564091,0.121602 -0.0857802,0.181991l-0.000137248 0.000137248c-0.0293711,0.0603893 -0.0594285,0.120504 -0.0903094,0.18007l-0.000137248 0c-0.0308809,0.059703 -0.0623107,0.119132 -0.0945641,0.178011l-0.000137248 0.000137248c-0.0322534,0.0590168 -0.0653302,0.117622 -0.0990933,0.175815l-0.000137248 0.000137248c-0.0337631,0.0581933 -0.0682124,0.116112 -0.103348,0.173619l-0.000137248 0.000137248c-0.0351356,0.0575071 -0.0710946,0.114602 -0.10774,0.171286l-0.000137248 0c-0.0366453,0.0566836 -0.0738396,0.113093 -0.111995,0.168953l-0.000137248 0.000137248c-0.0380178,0.0558601 -0.0769963,0.111446 -0.116387,0.166482l-0.000137248 0c-0.0395275,0.0550366 -0.079604,0.109661 -0.120504,0.163875l-0.000137248 0c-0.0409,0.0542131 -0.0824863,0.107877 -0.124896,0.161267l-0.000137248 0c-0.0422725,0.0532524 -0.0853685,0.106093 -0.129013,0.158385l-0.000137248 0.000137248c-0.043645,0.0522916 -0.0881134,0.104171 -0.133131,0.155502l-0.000137248 0.000137248c-0.0451547,0.0513309 -0.0908584,0.10225 -0.137386,0.15262l-0.000137248 0c-0.0465272,0.0503701 -0.0936034,0.100191 -0.141503,0.149601l-0.000137248 0.000137248c-0.0478997,0.0492722 -0.0964856,0.0979953 -0.145758,0.146307l-0.000137248 0.000137248c-0.0492722,0.0483114 -0.0989561,0.0962111 -0.149601,0.143287l-0.000137248 0c-0.0506446,0.0472134 -0.101976,0.0940151 -0.153855,0.139993l-0.000137248 0c-0.0518799,0.0461154 -0.104583,0.0915446 -0.157836,0.136562l-0.000137248 0c-0.0532524,0.0448802 -0.107328,0.0893487 -0.161953,0.133131l-0.000137248 0c-0.0546248,0.0437822 -0.109799,0.086741 -0.165796,0.129425l-0.000137248 0.000137248c-0.0558601,0.042547 -0.112406,0.084545 -0.169776,0.125857l-0.000137248 0c-0.0572326,0.0413118 -0.115426,0.0819373 -0.173894,0.122014l-0.000137248 0.000137248c-0.058605,0.0399393 -0.117759,0.0794668 -0.177599,0.118171l-0.000137248 0.000137248c-0.0598403,0.038704 -0.120504,0.0768591 -0.181717,0.114191l-0.000137248 0.000137248c-0.0612128,0.0373315 -0.122837,0.0741141 -0.185423,0.11021l-0.000137248 0.000137248c-0.062448,0.0360963 -0.12517,0.0710946 -0.188167,0.105407l-0.000137248 0.000137248c-0.062997,0.0343121 -0.126406,0.0676634 -0.189814,0.100191l-0.000137248 0c-0.063546,0.0325279 -0.127229,0.064095 -0.191187,0.0948386l-0.000137248 0.000137248c-0.0639577,0.0307436 -0.12819,0.0603893 -0.192559,0.0893487l-0.000137248 0.000137248c-0.0643695,0.0289594 -0.129151,0.0569581 -0.193932,0.0841332l-0.000137248 0.000137248c-0.0647812,0.0271752 -0.129837,0.0535269 -0.19503,0.0789178l-0.000137248 0.000137248c-0.065193,0.0253909 -0.130523,0.0498211 -0.196128,0.0735651l-0.000137248 0.000137248c-0.0656047,0.023744 -0.131209,0.0463899 -0.197089,0.0683497l-0.000137248 0.000137248c-0.0658792,0.0219597 -0.131896,0.043096 -0.198049,0.0632715l-0.000137248 0c-0.0661537,0.0201755 -0.132582,0.0396648 -0.19901,0.058056l-0.000137248 0.000137248c-0.0664282,0.0185285 -0.132994,0.0360963 -0.199559,0.0528406l-0.000137248 0.000137248c-0.0667027,0.0167443 -0.133405,0.0326651 -0.200245,0.0477624l-0.000137248 0.000137248c-0.0668399,0.0150973 -0.133954,0.0292339 -0.200932,0.042547l-0.000137248 0.000137248c-0.0669772,0.0134503 -0.134092,0.0258027 -0.201343,0.037606l-0.000137248 0c-0.0672517,0.0116661 -0.134229,0.022646 -0.201618,0.0326651l-0.000137248 0c-0.0672517,0.0100191 -0.134641,0.0192148 -0.20203,0.0275869l-0.000137248 0c-0.0673889,0.00837215 -0.134778,0.0157836 -0.202167,0.0225087l-0.000137248 0.000137248c-0.0673889,0.00672517 -0.134915,0.0124896 -0.202304,0.0174305l-0.000137248 0.000137248c-0.0673889,0.00507819 -0.134915,0.00919564 -0.202304,0.0124896l-0.000137248 0.000137248c-0.0673889,0.00343121 -0.134778,0.00603893 -0.202167,0.00768591l-0.000137248 0c-0.0673889,0.00178423 -0.134641,0.00260772 -0.20203,0.00274497l-0.000137248 0c-0.0673889,0.000137248 -0.134641,-0.000548993 -0.201892,-0.00205873l-0.000137248 0c-0.0672517,-0.00150973 -0.134366,-0.0039802 -0.201481,-0.00699967l-0.000137248 0c-0.0671144,-0.00315671 -0.134092,-0.00713691 -0.201069,-0.0118034l-0.000137248 0c-0.0669772,-0.00466644 -0.13368,-0.0102936 -0.20052,-0.016607l-0.000137248 0c-0.0667027,-0.00631342 -0.133268,-0.0135876 -0.199834,-0.0214107l-0.000137248 0c-0.133131,-0.0157836 -0.26585,-0.0349983 -0.397883,-0.0570953l-0.000137248 0c-0.0660165,-0.0111171 -0.131758,-0.0229205 -0.1975,-0.0355473l-0.000137248 0c-0.065742,-0.0126268 -0.131209,-0.0262144 -0.196677,-0.040351l-0.000137248 0c-0.0653302,-0.0141366 -0.130386,-0.0292339 -0.195442,-0.0450175l-0.000137248 0c-0.0650557,-0.0157836 -0.1297,-0.0323906 -0.194344,-0.0496839l-0.000274497 0c-0.0645067,-0.0172933 -0.128876,-0.0354101 -0.193108,-0.0542131l-0.000137248 0c-0.0642322,-0.018803 -0.128053,-0.0385668 -0.191736,-0.0588795l-0.000137248 0c-0.0636832,-0.0203128 -0.127229,-0.041449 -0.190501,-0.0634087l-0.000137248 0c-0.126543,-0.0437822 -0.251851,-0.0907212 -0.376198,-0.140542l-0.000137248 0c-0.0621735,-0.0248419 -0.124073,-0.0506446 -0.185697,-0.0769963l-0.000137248 0c-0.0616245,-0.0263517 -0.1227,-0.0536641 -0.183776,-0.0815255l-0.000137248 0c-0.0609383,-0.0278614 -0.121602,-0.0566836 -0.181991,-0.0859175l-0.000137248 0c-0.120779,-0.0587423 -0.240047,-0.120504 -0.358081,-0.185148l-0.000137248 0c-0.0590168,-0.0322534 -0.117622,-0.0654675 -0.175815,-0.0992306l-0.000137248 0c-0.0581933,-0.0337631 -0.116112,-0.0683497 -0.173619,-0.103485l-0.000137248 0c-0.0575071,-0.0351356 -0.114465,-0.0712319 -0.171149,-0.107877l-0.000137248 0c-0.0566836,-0.0366453 -0.113093,-0.0739769 -0.168953,-0.112132l-0.000137248 0c-0.111857,-0.0761728 -0.221931,-0.155365 -0.33022,-0.237165l-0.000137248 0c-0.162639,-0.122837 -0.321298,-0.252125 -0.475291,-0.387452l-0.000137248 0c-0.0513309,-0.0451547 -0.102113,-0.0909957 -0.152483,-0.137523l-0.000137248 0c-0.0503701,-0.0465272 -0.100191,-0.0938779 -0.149601,-0.14164l-0.000137248 0c-0.0986816,-0.0956621 -0.19503,-0.194481 -0.289594,-0.295633l-0.000137248 0c-0.236067,-0.252949 -0.458135,-0.523328 -0.664968,-0.809902l-0.000137248 0c-0.165247,-0.229205 -0.320749,-0.46884 -0.465135,-0.719044 -0.288771,-0.500133 -0.519759,-1.0177 -0.695575,-1.54514l-0.000137248 0c-0.0219597,-0.0658792 -0.0429587,-0.132033 -0.0631342,-0.198187l-0.000137248 0c-0.0404883,-0.132445 -0.0774081,-0.265438 -0.111034,-0.398844l-0.000137248 0c-0.0167443,-0.0667027 -0.0326651,-0.133543 -0.0477624,-0.200383l-0.000137248 0c-0.045292,-0.200657 -0.0827608,-0.402275 -0.112818,-0.604304l-0.000137248 0c-0.0502329,-0.33667 -0.0791923,-0.674438 -0.0879762,-1.01166l-0.000137248 0c-0.00178423,-0.0673889 -0.00247047,-0.134778 -0.00260772,-0.202167 -0.000137248,-0.0673889 0.000411745,-0.134641 0.00192148,-0.20203l0.000137248 0c0.00150973,-0.0672517 0.00370571,-0.134503 0.00686242,-0.201618l0.000137248 0c0.00315671,-0.0671144 0.00686242,-0.134092 0.0116661,-0.201069l0.000137248 -0.000137248c0.00480369,-0.0669772 0.0101564,-0.133817 0.0164698,-0.200657l0.000137248 0c0.00631342,-0.0668399 0.0133131,-0.133405 0.0212735,-0.199971l0.000137248 0c0.0079604,-0.0665654 0.0163326,-0.133131 0.0259399,-0.199422l0.000137248 0c0.00947014,-0.0662909 0.0197638,-0.132582 0.0308809,-0.198598l0.000137248 0c0.0111171,-0.0660165 0.022646,-0.131896 0.0354101,-0.197638l0.000137248 0c0.0126268,-0.065742 0.0259399,-0.131347 0.0402138,-0.196677l0.000137248 -0.000137248c0.0142738,-0.0653302 0.0290966,-0.130523 0.0448802,-0.195579l0.000137248 0c0.0157836,-0.0649185 0.0322534,-0.129974 0.0495467,-0.194481l0.000137248 -0.000137248c0.0172933,-0.064644 0.0352728,-0.129013 0.0540758,-0.193108l0.000137248 -0.000137248c0.018803,-0.0642322 0.0382923,-0.12819 0.0587423,-0.191873l0.000137248 0c0.0203128,-0.0636832 0.0413118,-0.127366 0.0632715,-0.190501l0.000137248 -0.000137248c0.0219597,-0.0632715 0.0444685,-0.126268 0.0678007,-0.188991l0.000137248 0c0.0234695,-0.0627225 0.0476252,-0.12517 0.0724671,-0.187344l0.000137248 0c0.0248419,-0.0621735 0.0503701,-0.12421 0.0768591,-0.185697l0.000137248 -0.000137248c0.0263517,-0.0616245 0.0535269,-0.122975 0.0813883,-0.183913l0.000137248 0c0.0278614,-0.0609383 0.0565463,-0.121602 0.0857802,-0.181991l0.000137248 -0.000137248c0.0293711,-0.0603893 0.0592913,-0.120367 0.0901722,-0.18007l0.000137248 0c0.0308809,-0.059703 0.062448,-0.118994 0.0947014,-0.178011l0.000137248 -0.000137248c0.0322534,-0.0590168 0.0653302,-0.117622 0.0990933,-0.175815l0.000137248 -0.000137248c0.0337631,-0.0581933 0.0682124,-0.116112 0.103348,-0.173619l0.000137248 -0.000137248c0.0352728,-0.0575071 0.0710946,-0.114465 0.10774,-0.171286l0.000137248 0c0.0366453,-0.0566836 0.0739769,-0.113093 0.111995,-0.168953l0.000137248 -0.000137248c0.038155,-0.0558601 0.0767218,-0.111446 0.116249,-0.166482l0.000137248 0c0.0395275,-0.0550366 0.0797413,-0.109661 0.120641,-0.163875l0.000137248 0c0.0409,-0.0542131 0.082349,-0.107877 0.124759,-0.161267l0.000137248 0c0.0422725,-0.0532524 0.0852312,-0.106093 0.129013,-0.158385l0.000137248 -0.000137248c0.043645,-0.0522916 0.0882507,-0.104171 0.133268,-0.155502l0.000137248 -0.000137248c0.0451547,-0.0513309 0.0908584,-0.10225 0.137386,-0.15262l0.000137248 0c0.0465272,-0.0503701 0.0936034,-0.100329 0.141503,-0.149601l0.000137248 -0.000137248c0.0478997,-0.0492722 0.0963483,-0.0979953 0.14562,-0.146307l0.000137248 -0.000137248c0.0492722,-0.0483114 0.0990933,-0.0960738 0.149738,-0.143287l0.000137248 0c0.0505074,-0.0472134 0.101701,-0.0938779 0.153718,-0.139856l0.000137248 -0.000137248c0.0518799,-0.0461154 0.104446,-0.0916819 0.157836,-0.136562l0.000137248 0c0.0532524,-0.0450175 0.107465,-0.0893487 0.161953,-0.133131l0.000137248 0c0.0546248,-0.0437822 0.109936,-0.0868782 0.165796,-0.129425l0.000137248 -0.000137248c0.0559973,-0.042547 0.112681,-0.084545 0.169913,-0.125857l0.000137248 0c0.0572326,-0.0413118 0.115289,-0.0820745 0.173756,-0.122014l0.000137248 -0.000137248c0.058605,-0.0400765 0.117759,-0.0793295 0.177599,-0.118171l0.000137248 -0.000137248c0.0598403,-0.038704 0.120504,-0.0768591 0.181717,-0.114191l0.000137248 -0.000137248c0.0612128,-0.0373315 0.122837,-0.0741141 0.185423,-0.11021l0.000137248 -0.000137248c0.062448,-0.0360963 0.12517,-0.0710946 0.188167,-0.105407l0.000137248 -0.000137248c0.062997,-0.0343121 0.126268,-0.0676634 0.189814,-0.100191l0.000137248 0c0.063546,-0.0325279 0.127229,-0.064095 0.191187,-0.0948386l0.000137248 -0.000137248c0.0639577,-0.0307436 0.12819,-0.0603893 0.192559,-0.0893487l0.000137248 -0.000137248c0.0643695,-0.0289594 0.129151,-0.0569581 0.193932,-0.0841332l0.000137248 -0.000137248c0.0647812,-0.0271752 0.129837,-0.0535269 0.19503,-0.0789178l0.000137248 -0.000137248c0.065193,-0.0253909 0.130523,-0.0498211 0.196128,-0.0735651l0.000137248 -0.000137248c0.0656047,-0.023744 0.131347,-0.0463899 0.197226,-0.0683497l0.000137248 -0.000137248c0.0658792,-0.0219597 0.131896,-0.043096 0.198049,-0.0632715l0.000137248 0c0.0661537,-0.0201755 0.132445,-0.0396648 0.198873,-0.058056l0.000137248 -0.000137248c0.0664282,-0.0185285 0.132994,-0.0359591 0.199696,-0.0528406l0.000137248 -0.000137248c0.0667027,-0.0167443 0.133405,-0.0326651 0.200245,-0.0477624l0.000137248 -0.000137248c0.0668399,-0.0150973 0.133817,-0.0292339 0.200794,-0.042547l0.000137248 -0.000137248c0.0669772,-0.0134503 0.134229,-0.0258027 0.201343,-0.037606l0.000137248 0c0.0672517,-0.0116661 0.134366,-0.022646 0.201755,-0.0326651l0.000137248 0c0.0672517,-0.0100191 0.134503,-0.0192148 0.201892,-0.0275869l0.000137248 0c0.0673889,-0.00837215 0.134778,-0.0157836 0.202167,-0.0225087l0.000137248 -0.000137248c0.0673889,-0.00672517 0.134915,-0.0124896 0.202304,-0.0174305l0.000137248 -0.000137248c0.0673889,-0.00507819 0.134915,-0.00919564 0.202304,-0.0124896l0.000137248 -0.000137248c0.0673889,-0.00343121 0.134915,-0.00603893 0.202304,-0.00768591l0.000137248 0c0.0673889,-0.00178423 0.134641,-0.00260772 0.20203,-0.00274497l0.000137248 0c0.0673889,-0.000137248 0.134641,0.000548993 0.201892,0.00205873l0.000137248 0c0.0672517,0.00150973 0.134366,0.0039802 0.201481,0.00699967l0.000137248 0c0.0671144,0.00315671 0.133954,0.00713691 0.200932,0.0118034l0.000137248 0c0.0669772,0.00466644 0.133817,0.0102936 0.200657,0.016607l0.000137248 0c0.0667027,0.00631342 0.133268,0.0135876 0.199834,0.0214107l0.000137248 0c0.133131,0.0157836 0.26585,0.0349983 0.397883,0.0570953l0.000137248 0c0.0660165,0.0111171 0.131758,0.0229205 0.1975,0.0355473l0.000137248 0c0.065742,0.0126268 0.131072,0.0262144 0.19654,0.040351l0.000137248 0c0.0653302,0.0141366 0.130523,0.0292339 0.195579,0.0450175l0.000137248 0c0.0650557,0.0157836 0.1297,0.0323906 0.194344,0.0496839l0.000137248 0c0.064644,0.0172933 0.128876,0.0352728 0.193108,0.0542131l0.000137248 0c0.0642322,0.018803 0.12819,0.0385668 0.191873,0.0588795l0.000137248 0c0.0636832,0.0203128 0.127092,0.0415862 0.190363,0.0634087l0.000137248 0c0.126543,0.0437822 0.251851,0.0908584 0.376335,0.140542l0.000137248 0c0.0621735,0.0248419 0.123935,0.0506446 0.18556,0.0769963l0.000137248 0c0.0616245,0.0263517 0.122837,0.0536641 0.183913,0.0815255l0.000137248 0c0.0609383,0.0278614 0.121465,0.0565463 0.181854,0.0859175l0.000137248 0c0.120641,0.0587423 0.240047,0.120504 0.358081,0.185148l0.000137248 0c0.0590168,0.0322534 0.117622,0.0654675 0.175815,0.0992306l0.000137248 0c0.0581933,0.0337631 0.116112,0.0683497 0.173619,0.103485l0.000137248 0c0.0575071,0.0351356 0.114602,0.0712319 0.171286,0.107877l0.000137248 0c0.0566836,0.0366453 0.112818,0.0741141 0.168815,0.112132l0.000137248 0c0.111857,0.0761728 0.221931,0.155365 0.330357,0.237165l0.000137248 0c0.162502,0.1227 0.321024,0.252125 0.475154,0.387452l0.000137248 0c0.0513309,0.0451547 0.10225,0.0909957 0.15262,0.137523l0.000137248 0c0.0503701,0.0465272 0.100054,0.0937406 0.149463,0.14164l0.000137248 0c0.0986816,0.0956621 0.195304,0.194481 0.289731,0.295633l0.000137248 0c0.0472134,0.0506446 0.0937406,0.101838 0.139856,0.153855l0 0.000137248c0.184325,0.207657 0.359728,0.426705 0.525112,0.65591l0.000137248 0c0.165384,0.229342 0.320612,0.468703 0.464997,0.719044zm-8.22859 12.4922c-0.133131,-0.0157836 -0.265713,-0.0349983 -0.397883,-0.0570953m-1.36054 -0.347101c-0.126543,-0.0437822 -0.251851,-0.0907212 -0.376198,-0.140542m-0.552013 -0.244439c-0.120779,-0.0587423 -0.240185,-0.120641 -0.358081,-0.185148m-0.690222 -0.422725c-0.111857,-0.0761728 -0.221931,-0.155365 -0.33022,-0.237165m-0.777924 -0.666615c-0.0986816,-0.0957993 -0.195167,-0.194344 -0.289594,-0.295633m-1.88936 -3.27227c-0.0404883,-0.132445 -0.0774081,-0.265438 -0.111034,-0.398844m-0.251713 -2.01851c-0.000137248,-0.0673889 0.000411745,-0.134641 0.00192148,-0.20203"/>
    <path id="_111224064" class="fil3 str0" d="M7.27471 2.98872c-0.138895,0.518387 -0.671968,0.826235 -1.19035,0.68734 -0.51825,-0.138895 -0.826098,-0.671968 -0.687202,-1.19035 0.138895,-0.518387 0.671968,-0.826098 1.19035,-0.687202 0.518387,0.138895 0.826098,0.671968 0.687202,1.19022z"/>
    <line id="_111226056" class="fil4 str1" x1="6.48677" y1="2.1677" x2="6.17178" y2= "3.34323" />
    <line id="_111226344" class="fil4 str1" x1="6.94394" y1="2.89923" x2="5.74261" y2= "2.57739" />
    <path id="_111224712" class="fil3 str0" d="M17.0601 19.9377c-0.138895,0.518387 -0.671831,0.826098 -1.19022,0.687202 -0.518387,-0.138895 -0.826098,-0.671831 -0.687202,-1.19022 0.138895,-0.518387 0.671968,-0.826098 1.19022,-0.687202 0.518387,0.138895 0.826098,0.671968 0.687202,1.19022z"/>
    <line id="_111227088" class="fil4 str1" x1="16.2723" y1="19.1166" x2="15.9573" y2= "20.2922" />
    <line id="_111225168" class="fil4 str1" x1="16.7293" y1="19.8482" x2="15.5281" y2= "19.5263" />
    <path id="_111226248" class="fil3 str0" d="M2.15864 10.5231c0.379492,0.379492 0.379492,0.99505 0,1.3744 -0.379492,0.379492 -0.994913,0.379492 -1.3744,0 -0.379492,-0.379354 -0.379492,-0.994913 0,-1.3744 0.379492,-0.379492 0.994913,-0.379492 1.3744,0z"/>
    <line id="_111226464" class="fil4 str1" x1="1.05366" y1="10.795" x2="1.91407" y2= "11.6554" />
    <line id="_111224520" class="fil4 str1" x1="1.91558" y1="10.7648" x2="1.03622" y2= "11.6441" />
    <path id="_111224592" class="fil3 str0" d="M21.6752 10.5094c0.379492,0.379492 0.379492,0.99505 0,1.3744 -0.379492,0.379492 -0.994913,0.379492 -1.3744,0 -0.379492,-0.379354 -0.379492,-0.994913 0,-1.3744 0.379492,-0.379492 0.994913,-0.379492 1.3744,0z"/>
    <line id="_111226104" class="fil4 str1" x1="20.5702" y1="10.7813" x2="21.4306" y2= "11.6417" />
    <line id="_111224736" class="fil4 str1" x1="21.4322" y1="10.7511" x2="20.5528" y2= "11.6304" />
    <path id="_110888600" class="fil3 str0" d="M6.07708 18.7086c0.518387,-0.138895 1.05146,0.168815 1.19035,0.687202 0.138895,0.518387 -0.168815,1.05132 -0.687202,1.19022 -0.518387,0.138895 -1.05146,-0.168815 -1.19035,-0.687202 -0.138895,-0.518387 0.168953,-1.05132 0.687202,-1.19022z"/>
    <line id="_110887376" class="fil4 str1" x1="5.76004" y1="19.8015" x2="6.93543" y2= "19.4865" />
    <line id="_110887640" class="fil4 str1" x1="6.16492" y1="19.0398" x2="6.48677" y2= "20.2411" />
    <path id="_110886992" class="fil3 str0" d="M15.8113 1.84887c0.518387,-0.138895 1.05132,0.168815 1.19022,0.687202 0.138895,0.518387 -0.168815,1.05132 -0.687202,1.19022 -0.518387,0.138895 -1.05132,-0.168815 -1.19022,-0.687202 -0.138895,-0.51825 0.168815,-1.05132 0.687202,-1.19022z"/>
    <line id="_110887424" class="fil4 str1" x1="15.4941" y1="2.94178" x2="16.6696" y2= "2.6268" />
    <line id="_110888480" class="fil4 str1" x1="15.8991" y1="2.18019" x2="16.221" y2= "3.38139" />
   </g>
  </g>
 </g>
</svg>
